<svg width="1920" height="1051" viewBox="0 0 1920 1051" fill="none" xmlns="http://www.w3.org/2000/svg">
<g opacity="0.3" clip-path="url(#clip0_1268_37875)">
<path d="M-391.293 1414.94L-186.793 1414.87L19.9812 1331.56L171.633 1257.98L286.735 1190.44L376.316 1126.75L447.341 1065.5L504.441 1005.74L550.778 946.808L588.617 888.205L681.676 888.17L774.736 888.134L867.802 888.099L960.869 888.064L1053.93 888.021L1147 887.986L1240.07 887.95L1333.14 887.915L1371 946.497L1417.34 1005.4L1474.44 1065.12L1545.46 1126.32L1635.03 1189.96L1750.11 1257.42L1901.74 1330.92L2108.48 1414.11L2311.3 1414.04" stroke="url(#paint0_linear_1268_37875)" stroke-opacity="0.6" stroke-linecap="round" stroke-linejoin="round"/>
<path d="M-391.293 1388.42L-215.184 1331.64L-25.637 1258.04L171.633 1257.97L368.918 1257.9L455.247 1190.37L522.442 1126.69L575.72 1065.45L618.543 1005.7L653.299 946.77L755.82 946.727L858.341 946.692L960.869 946.649L1063.4 946.614L1165.93 946.572L1268.46 946.529L1303.22 1005.44L1346.04 1065.16L1474.44 1065.12L1602.84 1065.07L1691.62 1126.27L1803.59 1189.89L1947.46 1257.35L2137.01 1330.84L2311.3 1386.93" stroke="url(#paint1_linear_1268_37875)" stroke-opacity="0.6" stroke-linecap="round" stroke-linejoin="round"/>
<path d="M-391.293 1248.49L-218.775 1190.61L-62.0399 1126.9L62.2413 1065.64L162.151 1005.87L243.235 946.923L309.452 888.306L363.68 829.646L408.066 770.647L444.244 711.054L518.042 711.026L591.841 710.997L665.639 710.962L739.438 710.934L813.237 710.906L887.042 710.877L960.841 710.842L1034.65 710.814L1108.45 710.785L1182.26 710.757L1256.06 710.722L1329.88 710.693L1403.69 710.665L1477.49 710.63L1513.7 770.202L1558.11 829.179L1612.37 887.804L1705.45 887.768L1798.53 887.726L1883.7 946.294L1987.99 1005.18L2116.49 1064.88L2276.33 1126.05L2311.3 1137.09" stroke="url(#paint2_linear_1268_37875)" stroke-opacity="0.6" stroke-linecap="round" stroke-linejoin="round"/>
<path d="M-391.293 1312.61L-222.9 1258.1L-50.2764 1190.55L84.0718 1126.85L190.606 1065.59L276.245 1005.82L345.749 946.88L402.505 888.27L448.989 829.617L487.032 770.611L565.998 770.583L644.971 770.548L723.936 770.519L802.909 770.484L881.882 770.456L960.855 770.42L1039.83 770.392L1118.8 770.357L1197.78 770.328L1276.76 770.293L1355.74 770.265L1434.72 770.229L1472.79 829.207L1558.11 829.179L1643.44 829.144L1705.45 887.768L1781.16 946.336L1873.86 1005.22L1988.07 1064.93L2130.15 1126.1L2309.33 1189.71L2311.3 1190.29" stroke="url(#paint3_linear_1268_37875)" stroke-opacity="0.6" stroke-linecap="round" stroke-linejoin="round"/>
<path d="M-391.293 1258.17L-222.9 1258.11L-25.637 1258.04L118.222 1190.49L230.191 1126.8L318.97 1065.55L390.34 1005.78L448.263 946.847L495.564 888.237L534.297 829.584L619.606 829.549L704.915 829.514L790.23 829.478L875.546 829.45L960.862 829.415L1046.18 829.379L1131.49 829.344L1216.82 829.316L1302.14 829.28L1387.46 829.245L1426.22 887.877L1473.53 946.452L1531.47 1005.35L1602.84 1065.07L1731.25 1065.02L1837.79 1126.21L1972.17 1189.83L2144.81 1257.29L2311.3 1311.06" stroke="url(#paint4_linear_1268_37875)" stroke-opacity="0.6" stroke-linecap="round" stroke-linejoin="round"/>
<path d="M-391.293 998.879L-269.293 947.125L-166.793 947.082L-64.2857 947.047L30.3015 888.422L123.354 888.387L216.399 888.352L278.378 829.685L363.68 829.65L448.989 829.621L534.297 829.586" stroke="url(#paint5_linear_1268_37875)" stroke-opacity="0.6" stroke-linecap="round" stroke-linejoin="round"/>
<path d="M-381.512 770.967L-293.655 711.36L-219.87 711.324L-153.055 650.933L-83.4452 650.904L-33.575 589.545L32.705 589.523L98.9921 589.495" stroke="url(#paint6_linear_1268_37875)" stroke-opacity="0.6" stroke-linecap="round" stroke-linejoin="round"/>
<path d="M-391.293 1043.02L-294.2 1006.04L-166.793 947.081L-62.7439 888.456L22.4662 829.782L92.2169 770.776L149.071 711.176L195.006 650.792L231.577 589.439L297.865 589.411L364.159 589.383L430.446 589.354L496.74 589.326L563.034 589.298L629.328 589.27L695.622 589.241L761.923 589.213L828.217 589.185L894.519 589.156L960.813 589.128L1027.11 589.1L1093.41 589.072L1159.72 589.043L1226.02 589.015L1292.33 588.994L1358.63 588.966L1424.93 588.937L1491.24 588.909L1557.55 588.881L1623.86 588.853L1690.17 588.824L1726.78 650.156L1796.42 650.128L1866.06 650.099L1935.7 650.071L2005.34 650.043L2068.03 710.392L2145.62 769.949L2240.79 828.906L2311.3 864.452" stroke="url(#paint7_linear_1268_37875)" stroke-opacity="0.6" stroke-linecap="round" stroke-linejoin="round"/>
<path d="M-391.293 822.558L-302.556 770.931L-223.604 770.903L-146.081 711.296L-72.297 711.268L1.49453 711.24L55.7787 650.848L125.396 650.82L165.283 589.467L196.301 526.983L220.454 464.181L237.603 399.945L248.452 334.146L253.591 266.665L253.485 197.374L248.536 126.161L239.054 52.8984L229.536 0.706055" stroke="url(#paint8_linear_1268_37875)" stroke-opacity="0.6" stroke-linecap="round" stroke-linejoin="round"/>
<path d="M1268.46 946.528L1370.99 946.492L1473.53 946.45L1576.07 946.414L1678.61 946.372L1759.72 1005.27L1859.66 1064.97L1988.07 1064.93L2116.48 1064.88L2244.9 1064.83L2311.3 1064.81" stroke="url(#paint9_linear_1268_37875)" stroke-opacity="0.6" stroke-linecap="round" stroke-linejoin="round"/>
<path d="M-391.293 1006.08L-294.2 1006.04L-180.119 1006L-64.2857 947.045L38.2143 947.002L140.728 946.967L216.399 888.35L309.452 888.307L402.504 888.272L495.564 888.237L588.617 888.201" stroke="url(#paint10_linear_1268_37875)" stroke-opacity="0.6" stroke-linecap="round" stroke-linejoin="round"/>
<path d="M1333.14 887.911L1426.21 887.875L1519.29 887.84L1612.37 887.805L1678.61 946.373L1781.16 946.337L1883.7 946.295L1986.25 946.259L2088.8 946.217L2191.35 946.175L2293.91 946.139L2311.3 946.132" stroke="url(#paint11_linear_1268_37875)" stroke-opacity="0.6" stroke-linecap="round" stroke-linejoin="round"/>
<path d="M-293.648 711.36L-222.659 650.961L-153.049 650.933L-99.8559 589.573L-33.5688 589.545L5.19952 527.061L35.3933 464.266L56.8296 400.029L70.3954 334.224L76.8228 266.743L76.7031 197.459L70.5151 126.246L58.667 52.9832L46.7556 0.706055" stroke="url(#paint12_linear_1268_37875)" stroke-opacity="0.6" stroke-linecap="round" stroke-linejoin="round"/>
<path d="M1387.46 829.245L1472.79 829.21L1519.28 887.841L1576.07 946.416L1645.59 1005.31L1759.72 1005.27L1873.85 1005.22L1987.99 1005.18L2102.13 1005.14L2216.27 1005.1L2311.29 1005.06" stroke="url(#paint13_linear_1268_37875)" stroke-opacity="0.6" stroke-linecap="round" stroke-linejoin="round"/>
<path d="M-222.664 650.963L-166.148 589.603L-99.8612 589.575L-58.5092 527.091L5.19428 527.063L68.8907 527.042" stroke="url(#paint14_linear_1268_37875)" stroke-opacity="0.6" stroke-linecap="round" stroke-linejoin="round"/>
<path d="M-391.293 866.572L-318.712 829.923L-233.425 829.888L-148.123 829.853L-65.6936 770.839L13.2581 770.804L75.2791 711.204L149.071 711.176L222.862 711.148L264.622 650.763L297.865 589.41L323.708 526.927L343.835 464.132L358.118 399.895L367.158 334.096L371.438 266.608L371.346 197.318L367.221 126.105L359.308 52.8347L351.381 0.706055" stroke="url(#paint15_linear_1268_37875)" stroke-opacity="0.6" stroke-linecap="round" stroke-linejoin="round"/>
<path d="M1434.71 770.231L1513.69 770.203L1592.68 770.167L1671.66 770.139L1750.65 770.104L1829.64 770.075L1908.63 770.04L1987.62 770.012L2066.61 769.984L2145.61 769.948L2224.6 769.92L2311.29 820.26" stroke="url(#paint16_linear_1268_37875)" stroke-opacity="0.6" stroke-linecap="round" stroke-linejoin="round"/>
<path d="M1477.49 710.633L1551.3 710.604L1625.12 710.576L1698.93 710.548L1750.65 770.105L1814.1 829.076L1899.43 829.048L1984.77 829.012L2070.11 828.977L2155.45 828.942L2240.78 828.906L2311.29 828.878" stroke="url(#paint17_linear_1268_37875)" stroke-opacity="0.6" stroke-linecap="round" stroke-linejoin="round"/>
<path d="M-391.293 829.946L-318.712 829.925L-223.604 770.904L-144.652 770.869L-65.6936 770.841L1.49456 711.241L75.2791 711.206L125.396 650.821L195.006 650.793L264.622 650.765L334.239 650.736" stroke="url(#paint18_linear_1268_37875)" stroke-opacity="0.6" stroke-linecap="round" stroke-linejoin="round"/>
<path d="M98.9961 589.495L132.597 527.011L158.771 464.21L177.342 399.973L189.099 334.174L194.667 266.693L194.555 197.403L189.19 126.19L178.919 52.9266L168.606 0.706055" stroke="url(#paint19_linear_1268_37875)" stroke-opacity="0.6" stroke-linecap="round" stroke-linejoin="round"/>
<path d="M-14.1808 0.706055L-1.46684 53.0115L11.1697 126.274L17.766 197.48L17.8927 266.771L11.043 334.252L-3.43094 400.051L-26.2963 464.294L-58.5106 527.089L-122.207 527.117" stroke="url(#paint20_linear_1268_37875)" stroke-opacity="0.6" stroke-linecap="round" stroke-linejoin="round"/>
<path d="M1587.5 650.216L1657.14 650.187L1726.78 650.159L1772.75 710.515L1829.65 770.08L1899.44 829.051L1984.7 887.661L2077.79 887.626L2170.87 887.59L2263.96 887.555L2311.3 887.534" stroke="url(#paint21_linear_1268_37875)" stroke-opacity="0.6" stroke-linecap="round" stroke-linejoin="round"/>
<path d="M68.8945 527.04L97.082 464.238L117.089 400.001L129.747 334.202L135.745 266.714L135.625 197.431L129.852 126.218L118.793 52.9549L107.677 0.706055" stroke="url(#paint22_linear_1268_37875)" stroke-opacity="0.6" stroke-linecap="round" stroke-linejoin="round"/>
<path d="M-391.293 1065.81L-322.831 1065.78L-180.119 1006L-66.0316 1005.95L48.056 1005.91L140.728 946.966L243.235 946.924L345.749 946.882L448.263 946.846L550.777 946.804L653.299 946.769" stroke="url(#paint23_linear_1268_37875)" stroke-opacity="0.6" stroke-linecap="round" stroke-linejoin="round"/>
<path d="M231.574 589.439L260.001 526.955L282.141 464.16L297.861 399.923L307.802 334.118L312.511 266.637L312.413 197.346L307.872 126.133L299.178 52.8701L290.455 0.706055" stroke="url(#paint24_linear_1268_37875)" stroke-opacity="0.6" stroke-linecap="round" stroke-linejoin="round"/>
<path d="M334.238 650.735L364.158 589.382L387.41 526.898L405.524 464.104L418.378 399.867L426.516 334.068L430.36 266.58L430.276 197.29L426.559 126.076L419.441 52.8065L412.31 0.706055" stroke="url(#paint25_linear_1268_37875)" stroke-opacity="0.6" stroke-linecap="round" stroke-linejoin="round"/>
<path d="M487.031 770.613L518.042 711.027L543.089 650.643L563.033 589.297L578.535 526.821L590.608 464.026L599.169 399.789L604.582 333.99L607.145 266.502L607.082 197.212L604.596 125.992L599.838 52.7216L595.086 0.706055" stroke="url(#paint26_linear_1268_37875)" stroke-opacity="0.6" stroke-linecap="round" stroke-linejoin="round"/>
<path d="M444.238 711.056L473.468 650.678L496.734 589.326L514.82 526.849L528.906 464.047L538.903 399.817L545.225 334.012L548.21 266.531L548.139 197.24L545.246 126.02L539.698 52.7499L534.158 0.706055" stroke="url(#paint27_linear_1268_37875)" stroke-opacity="0.6" stroke-linecap="round" stroke-linejoin="round"/>
<path d="M534.293 829.584L565.993 770.585L591.837 710.999L612.71 650.615L629.324 589.269L642.242 526.792L652.295 463.998L659.433 399.761L663.938 333.962L666.065 266.474L666.015 197.184L663.938 125.963L659.968 52.6934L656.005 0.706055" stroke="url(#paint28_linear_1268_37875)" stroke-opacity="0.6" stroke-linecap="round" stroke-linejoin="round"/>
<path d="M1690.17 588.824L1756.48 588.796L1822.78 588.767L1889.1 588.739L1955.41 588.711L2005.33 650.043L2074.97 650.014L2144.62 649.986" stroke="url(#paint29_linear_1268_37875)" stroke-opacity="0.6" stroke-linecap="round" stroke-linejoin="round"/>
<path d="M588.609 888.201L619.599 829.549L644.963 770.55L665.632 710.964L682.324 650.587L695.615 589.241L705.949 526.764L713.989 463.969L719.691 399.733L723.295 333.934L724.992 266.446L724.943 197.155L723.281 125.935L720.099 52.6651L716.931 0.706055" stroke="url(#paint30_linear_1268_37875)" stroke-opacity="0.6" stroke-linecap="round" stroke-linejoin="round"/>
<path d="M704.09 1065.4L732.636 1005.66L755.811 946.727L774.728 888.131L790.222 829.478L802.901 770.486L813.228 710.907L821.571 650.53L828.209 589.184L833.369 526.707L837.382 463.92L840.226 399.683L842.014 333.877L842.852 266.396L842.817 197.099L841.972 125.879L840.374 52.6086L838.783 0.706055" stroke="url(#paint31_linear_1268_37875)" stroke-opacity="0.6" stroke-linecap="round" stroke-linejoin="round"/>
<path d="M653.293 946.769L681.671 888.166L704.909 829.513L723.931 770.521L739.432 710.936L751.949 650.558L761.918 589.212L769.661 526.736L775.687 463.941L779.961 399.704L782.657 333.906L783.924 266.417L783.882 197.127L782.629 125.907L780.235 52.6368L777.856 0.706055" stroke="url(#paint32_linear_1268_37875)" stroke-opacity="0.6" stroke-linecap="round" stroke-linejoin="round"/>
<path d="M-87.9805 464.317L-26.2975 464.295L35.3856 464.267L97.0756 464.239L158.766 464.211L220.449 464.182L282.139 464.161L343.829 464.133L405.519 464.105L467.216 464.076L528.906 464.048L590.603 464.027L652.293 463.998L713.99 463.97L775.687 463.942L837.384 463.921L899.082 463.892L960.779 463.864L1022.48 463.836L1084.18 463.807L1145.88 463.786L1207.58 463.758L1269.29 463.73L1330.99 463.701L1392.69 463.673L1454.4 463.652L1516.1 463.624L1577.81 463.595L1639.52 463.567L1701.22 463.539L1762.93 463.517L1824.64 463.489L1886.35 463.461L1948.07 463.433L2009.78 463.404" stroke="url(#paint33_linear_1268_37875)" stroke-opacity="0.6" stroke-linecap="round" stroke-linejoin="round"/>
<path d="M-63.6836 400.078L-3.42964 400.05L56.8243 400.029L117.085 400L177.339 399.972L237.6 399.944L297.861 399.923L358.115 399.894L418.376 399.866L478.644 399.838L538.905 399.817L599.166 399.788L659.434 399.76L719.695 399.732L779.963 399.703L840.231 399.682L900.492 399.654L960.76 399.626L1021.03 399.597L1081.3 399.576L1141.57 399.548L1201.84 399.519L1262.11 399.491L1322.39 399.47L1382.66 399.442L1442.93 399.413L1503.21 399.385L1563.48 399.364L1623.76 399.336L1684.04 399.307L1744.31 399.279L1804.6 399.251L1864.88 399.229L1925.15 399.201L1985.44 399.173" stroke="url(#paint34_linear_1268_37875)" stroke-opacity="0.6" stroke-linecap="round" stroke-linejoin="round"/>
<path d="M-61.5859 53.0398L-1.46576 53.0115L58.6614 52.9832L118.789 52.9549L178.916 52.9266L239.05 52.8983L299.177 52.87L359.305 52.8347L419.439 52.8064L479.566 52.7781L539.7 52.7498L599.835 52.7215L659.969 52.6932L720.103 52.6649L780.237 52.6366L840.379 52.6083L900.513 52.58L960.654 52.5517L1020.79 52.5235L1080.93 52.4952L1141.07 52.4669L1201.21 52.4315L1261.35 52.4032L1321.5 52.3749L1381.64 52.3466L1441.78 52.3183L1501.93 52.29L1562.07 52.2618L1622.22 52.2335L1682.37 52.2052L1742.52 52.1769L1802.67 52.1486L1862.82 52.1203L1922.97 52.092L1983.12 52.0566" stroke="url(#paint35_linear_1268_37875)" stroke-opacity="0.6" stroke-linecap="round" stroke-linejoin="round"/>
<path d="M-48.3125 334.281L11.0404 334.253L70.3861 334.225L129.739 334.204L189.092 334.175L248.445 334.147L307.797 334.119L367.15 334.097L426.51 334.069L485.863 334.041L545.223 334.013L604.576 333.991L663.936 333.963L723.296 333.935L782.655 333.906L842.015 333.878L901.375 333.857L960.742 333.829L1020.1 333.8L1079.47 333.772L1138.83 333.751L1198.2 333.723L1257.56 333.694L1316.93 333.666L1376.3 333.645L1435.66 333.616L1495.03 333.588L1554.4 333.56L1613.77 333.532L1673.15 333.51L1732.52 333.482L1791.89 333.454L1851.26 333.425L1910.63 333.404L1970.01 333.376" stroke="url(#paint36_linear_1268_37875)" stroke-opacity="0.6" stroke-linecap="round" stroke-linejoin="round"/>
<path d="M-48.1641 126.304L11.1747 126.276L70.5134 126.248L129.852 126.22L189.191 126.191L248.537 126.163L307.875 126.135L367.221 126.106L426.56 126.078L485.906 126.05L545.252 126.022L604.597 125.993L663.943 125.965L723.289 125.937L782.635 125.908L841.981 125.88L901.333 125.852L960.679 125.823L1020.03 125.795L1079.38 125.767L1138.74 125.739L1198.09 125.717L1257.44 125.689L1316.8 125.661L1376.15 125.633L1435.51 125.604L1494.86 125.576L1554.22 125.548L1613.57 125.519L1672.93 125.491L1732.29 125.463L1791.65 125.434L1851.02 125.406L1910.38 125.378L1969.74 125.35" stroke="url(#paint37_linear_1268_37875)" stroke-opacity="0.6" stroke-linecap="round" stroke-linejoin="round"/>
<path d="M-41.1602 197.509L17.7703 197.48L76.7008 197.459L135.624 197.431L194.555 197.402L253.485 197.374L312.415 197.346L371.346 197.318L430.276 197.289L489.214 197.268L548.144 197.24L607.082 197.212L666.019 197.183L724.95 197.155L783.887 197.127L842.825 197.098L901.762 197.07L960.707 197.049L1019.64 197.021L1078.58 196.992L1137.53 196.964L1196.46 196.936L1255.41 196.907L1314.35 196.879L1373.3 196.858L1432.24 196.83L1491.19 196.801L1550.14 196.773L1609.08 196.745L1668.03 196.716L1726.98 196.688L1785.93 196.667L1844.88 196.639L1903.83 196.61L1962.78 196.582" stroke="url(#paint38_linear_1268_37875)" stroke-opacity="0.6" stroke-linecap="round" stroke-linejoin="round"/>
<path d="M-41.0195 266.799L17.8968 266.771L76.8202 266.743L135.744 266.714L194.667 266.693L253.59 266.665L312.514 266.637L371.437 266.608L430.361 266.58L489.291 266.559L548.215 266.531L607.145 266.502L666.068 266.474L724.999 266.446L783.929 266.417L842.86 266.396L901.79 266.368L960.728 266.34L1019.66 266.311L1078.6 266.283L1137.53 266.262L1196.46 266.234L1255.4 266.205L1314.34 266.177L1373.28 266.149L1432.21 266.127L1491.15 266.099L1550.09 266.071L1609.03 266.043L1667.97 266.014L1726.91 265.993L1785.86 265.965L1844.8 265.936L1903.74 265.908L1962.69 265.88" stroke="url(#paint39_linear_1268_37875)" stroke-opacity="0.6" stroke-linecap="round" stroke-linejoin="round"/>
<path d="M-391.293 910.455L-341.866 888.565L-233.425 829.891L-144.652 770.87L-72.297 711.271L-13.8312 650.879L32.7092 589.526L68.8939 527.043L132.597 527.014L196.301 526.986L260.004 526.958L323.708 526.929L387.411 526.901L451.122 526.873L514.825 526.852L578.536 526.823L642.246 526.795L705.957 526.767L769.667 526.739L833.378 526.71L897.088 526.682L960.799 526.661L1024.52 526.633L1088.23 526.604L1151.94 526.576L1215.66 526.548L1279.38 526.519L1343.1 526.491L1406.81 526.47L1470.54 526.442L1534.26 526.413L1597.98 526.385L1661.71 526.357L1725.42 526.329L1789.15 526.3L1852.88 526.279L1916.6 526.251L1980.33 526.223L2044.06 526.194L2047.13 530.555L2088.05 588.657L2144.62 649.988L2215.68 710.338L2303.6 769.888L2311.3 774.094" stroke="url(#paint40_linear_1268_37875)" stroke-opacity="0.6" stroke-linecap="round" stroke-linejoin="round"/>
<path d="M1935.42 0.706055L1922.97 52.0926L1910.38 125.377L1903.82 196.611L1903.74 265.909L1910.64 333.404L1925.15 399.203L1948.07 463.432L1980.32 526.22L2021.73 588.682L2088.05 588.654" stroke="url(#paint41_linear_1268_37875)" stroke-opacity="0.6" stroke-linecap="round" stroke-linejoin="round"/>
<path d="M1874.49 0.706055L1862.81 52.1208L1851.02 125.405L1844.88 196.639L1844.79 265.937L1851.26 333.425L1864.88 399.231L1886.36 463.46L1916.6 526.248L1955.42 588.711L2021.73 588.682L2074.97 650.014L2141.85 710.363L2224.61 769.921L2303.6 769.885" stroke="url(#paint42_linear_1268_37875)" stroke-opacity="0.6" stroke-linecap="round" stroke-linejoin="round"/>
<path d="M1813.57 0.706055L1802.67 52.1491L1791.65 125.433L1785.93 196.668L1785.86 265.965L1791.89 333.453L1804.6 399.252L1824.64 463.489L1852.87 526.276L1889.1 588.739L1935.69 650.071L1994.21 710.427L2066.62 769.984L2155.45 828.941L2263.96 887.551L2311.29 908.466" stroke="url(#paint43_linear_1268_37875)" stroke-opacity="0.6" stroke-linecap="round" stroke-linejoin="round"/>
<path d="M1752.65 0.706055L1742.52 52.1774L1732.29 125.462L1726.97 196.689L1726.91 265.993L1732.52 333.481L1744.31 399.28L1762.93 463.517L1789.14 526.298L1822.79 588.767L1866.05 650.099L1920.39 710.455L1994.21 710.427L2068.03 710.391L2141.85 710.363L2215.67 710.335" stroke="url(#paint44_linear_1268_37875)" stroke-opacity="0.6" stroke-linecap="round" stroke-linejoin="round"/>
<path d="M1691.73 0.706055L1682.37 52.2057L1672.93 125.49L1668.03 196.717L1667.97 266.015L1673.15 333.51L1684.04 399.309L1701.22 463.538L1725.42 526.326L1756.48 588.795L1796.42 650.127L1846.57 710.483L1908.63 770.041L1984.78 829.012L2077.79 887.622L2191.35 946.176L2311.3 996.961" stroke="url(#paint45_linear_1268_37875)" stroke-opacity="0.6" stroke-linecap="round" stroke-linejoin="round"/>
<path d="M1630.81 0.706055L1622.22 52.2339L1613.57 125.518L1609.08 196.745L1609.03 266.043L1613.78 333.531L1623.77 399.337L1639.52 463.566L1661.7 526.354L1690.17 588.824" stroke="url(#paint46_linear_1268_37875)" stroke-opacity="0.6" stroke-linecap="round" stroke-linejoin="round"/>
<path d="M1569.88 0.706055L1562.07 52.2622L1554.22 125.546L1550.14 196.774L1550.09 266.071L1554.41 333.559L1563.48 399.365L1577.81 463.595L1597.98 526.382L1623.86 588.852L1657.14 650.184L1698.94 710.547L1772.75 710.511L1846.57 710.483L1920.39 710.455L1987.63 770.012L2070.11 828.976L2170.87 887.586L2293.91 946.14L2311.3 952.933" stroke="url(#paint47_linear_1268_37875)" stroke-opacity="0.6" stroke-linecap="round" stroke-linejoin="round"/>
<path d="M1508.96 0.706055L1501.93 52.2905L1494.86 125.575L1491.18 196.802L1491.15 266.099L1495.03 333.587L1503.21 399.386L1516.1 463.623L1534.25 526.411L1557.55 588.88L1587.5 650.212" stroke="url(#paint48_linear_1268_37875)" stroke-opacity="0.6" stroke-linecap="round" stroke-linejoin="round"/>
<path d="M1448.03 0.706055L1441.79 52.3188L1435.51 125.603L1432.24 196.83L1432.21 266.128L1435.67 333.616L1442.94 399.415L1454.4 463.651L1470.54 526.439L1491.24 588.908L1517.88 650.24L1551.31 710.603L1592.69 770.168L1643.45 829.146L1728.77 829.11L1798.53 887.728L1891.61 887.692L1984.7 887.657L2088.81 946.218L2216.28 1005.1L2311.3 1041.21" stroke="url(#paint49_linear_1268_37875)" stroke-opacity="0.6" stroke-linecap="round" stroke-linejoin="round"/>
<path d="M1387.11 0.706055L1381.65 52.347L1376.15 125.631L1373.3 196.858L1373.28 266.149L1376.3 333.644L1382.66 399.443L1392.7 463.672L1406.82 526.467L1424.94 588.937L1448.24 650.268L1477.5 710.632" stroke="url(#paint50_linear_1268_37875)" stroke-opacity="0.6" stroke-linecap="round" stroke-linejoin="round"/>
<path d="M1326.18 0.706055L1321.49 52.3753L1316.79 125.659L1314.35 196.88L1314.33 266.177L1316.93 333.665L1322.39 399.471L1330.99 463.701L1343.09 526.488L1358.63 588.965L1378.6 650.304L1403.68 710.667L1434.71 770.231" stroke="url(#paint51_linear_1268_37875)" stroke-opacity="0.6" stroke-linecap="round" stroke-linejoin="round"/>
<path d="M1265.26 0.706055L1261.35 52.4036L1257.44 125.688L1255.41 196.908L1255.4 266.205L1257.57 333.694L1262.11 399.492L1269.29 463.729L1279.38 526.517L1292.32 588.993L1308.97 650.332L1329.87 710.695L1355.74 770.267L1387.46 829.245" stroke="url(#paint52_linear_1268_37875)" stroke-opacity="0.6" stroke-linecap="round" stroke-linejoin="round"/>
<path d="M1204.33 0.706055L1201.21 52.4318L1198.09 125.716L1196.46 196.936V266.234L1198.2 333.722L1201.84 399.521L1207.58 463.757L1215.66 526.545L1226.02 589.015L1239.34 650.36L1256.06 710.724L1276.76 770.295L1302.14 829.28L1333.14 887.912" stroke="url(#paint53_linear_1268_37875)" stroke-opacity="0.6" stroke-linecap="round" stroke-linejoin="round"/>
<path d="M1021.57 0.706055L1020.79 52.5237L1020.03 125.794L1019.64 197.021L1019.66 266.311L1020.11 333.8L1021.03 399.598L1022.48 463.835L1024.52 526.63L1027.11 589.099L1030.46 650.445L1034.65 710.815L1039.83 770.394L1046.18 829.379L1053.93 888.018L1063.4 946.614L1074.98 1005.53L1089.25 1065.26L1106.99 1126.48L1129.37 1190.13L1158.12 1257.63L1195.99 1331.16" stroke="url(#paint54_linear_1268_37875)" stroke-opacity="0.6" stroke-linecap="round" stroke-linejoin="round"/>
<path d="M1143.41 0.706055L1141.07 52.4672L1138.73 125.737L1137.52 196.964V266.262L1138.83 333.75L1141.57 399.549L1145.88 463.786L1151.94 526.573L1159.72 589.043L1169.71 650.389L1182.25 710.759L1197.78 770.33L1216.81 829.315L1240.07 887.947L1268.46 946.529" stroke="url(#paint55_linear_1268_37875)" stroke-opacity="0.6" stroke-linecap="round" stroke-linejoin="round"/>
<path d="M1082.49 0.706055L1080.93 52.4955L1079.38 125.765L1078.58 196.993L1078.59 266.283L1079.47 333.771L1081.3 399.577L1084.18 463.807L1088.22 526.601L1093.41 589.071L1100.08 650.417L1108.45 710.787L1118.8 770.359L1131.49 829.344L1147 887.982L1165.92 946.571L1189.1 1005.49L1217.64 1065.21" stroke="url(#paint56_linear_1268_37875)" stroke-opacity="0.6" stroke-linecap="round" stroke-linejoin="round"/>
<path d="M-391.293 888.583L-341.866 888.562L-248.828 888.527L-148.123 829.853L-62.8284 829.817L13.2581 770.804L92.2169 770.776L171.183 770.741L250.141 770.712L329.1 770.677L370.452 711.084L403.856 650.707L430.446 589.354L451.122 526.87L467.222 464.075L478.647 399.839L485.87 334.04L489.292 266.559L489.214 197.268L485.906 126.048L479.57 52.7782L473.234 0.706055" stroke="url(#paint57_linear_1268_37875)" stroke-opacity="0.6" stroke-linecap="round" stroke-linejoin="round"/>
<path d="M-391.293 1138.73L-354.256 1127.01L-194.473 1065.74L-66.0315 1005.95L38.2143 947.005L123.354 888.387L193.07 829.72L250.141 770.714L296.654 711.121L334.239 650.737L403.856 650.709L473.473 650.68L543.09 650.645L612.714 650.617L682.331 650.588L751.955 650.56L821.579 650.532L891.203 650.504L960.827 650.475L1030.46 650.447L1100.08 650.419L1169.71 650.391L1239.34 650.362L1308.97 650.334L1378.61 650.306L1448.24 650.27L1517.87 650.242L1587.51 650.214L1625.13 710.577L1671.67 770.142L1728.77 829.112L1814.1 829.077L1891.61 887.694L1986.25 946.262L2102.13 1005.14L2244.91 1064.83L2311.3 1087.7" stroke="url(#paint58_linear_1268_37875)" stroke-opacity="0.6" stroke-linecap="round" stroke-linejoin="round"/>
<path d="M-391.293 954.8L-371.793 947.159L-269.293 947.124L-155.789 888.492L-62.7439 888.457L30.3015 888.422L107.768 829.755L193.07 829.719L278.378 829.684L329.1 770.678L408.066 770.65L487.032 770.614" stroke="url(#paint59_linear_1268_37875)" stroke-opacity="0.6" stroke-linecap="round" stroke-linejoin="round"/>
<path d="M-391.293 947.163L-371.793 947.156L-248.828 888.525L-155.789 888.489L-62.8284 829.815L22.4662 829.78L107.768 829.752L171.183 770.738L222.862 711.146L296.654 711.117L370.452 711.082L444.244 711.054" stroke="url(#paint60_linear_1268_37875)" stroke-opacity="0.6" stroke-linecap="round" stroke-linejoin="round"/>
<path d="M588.168 1527.46L599.784 1514.21L673.8 1414.58L725.55 1331.32L763.502 1257.77L792.302 1190.25L814.71 1126.59L832.478 1065.35L846.755 1005.61L858.343 946.692L867.804 888.095L875.548 829.45L881.884 770.458L887.044 710.879L891.205 650.502L894.52 589.156L897.09 526.679L899.089 463.892L900.497 399.655L901.384 333.856L901.793 266.368L901.764 197.07L901.335 125.85L900.518 52.5803L899.716 0.706055" stroke="url(#paint61_linear_1268_37875)" stroke-opacity="0.6" stroke-linecap="round" stroke-linejoin="round"/>
<path d="M960.594 1527.46L960.608 1514.09L960.699 1414.49L960.763 1331.24L960.805 1257.7L960.833 1190.19L960.847 1126.53L960.861 1065.3L960.868 1005.57V946.649V888.06L960.861 829.414L960.854 770.422L960.84 710.844L960.826 650.473L960.812 589.128L960.798 526.658L960.784 463.863L960.763 399.627L960.749 333.828L960.728 266.34L960.706 197.049L960.678 125.822L960.657 52.552L960.636 0.706055" stroke="url(#paint62_linear_1268_37875)" stroke-opacity="0.6" stroke-linecap="round" stroke-linejoin="round"/>
<path d="M-391.293 776.315L-381.508 770.965L-302.556 770.929L-219.866 711.322L-146.081 711.294L-83.4411 650.902L-13.8312 650.874L55.7787 650.846L98.9963 589.493L165.283 589.465L231.577 589.437" stroke="url(#paint63_linear_1268_37875)" stroke-opacity="0.6" stroke-linecap="round" stroke-linejoin="round"/>
<path d="M-391.293 1191.86L-387.266 1190.67L-208.152 1126.95L-66.116 1065.69L48.056 1005.91L162.151 1005.87L276.245 1005.82L390.34 1005.78L504.441 1005.74L618.543 1005.7L732.645 1005.65L846.753 1005.61L960.869 1005.57L1074.98 1005.53L1189.1 1005.49L1303.22 1005.44L1417.34 1005.4L1531.47 1005.35L1645.59 1005.31L1731.25 1065.02L1859.66 1064.97L1983.97 1126.16L2140.75 1189.78L2311.3 1246.87" stroke="url(#paint64_linear_1268_37875)" stroke-opacity="0.6" stroke-linecap="round" stroke-linejoin="round"/>
</g>
<defs>
<linearGradient id="paint0_linear_1268_37875" x1="960.003" y1="887.915" x2="960.003" y2="1414.94" gradientUnits="userSpaceOnUse">
<stop stop-color="#69BBD2"/>
<stop offset="1" stop-color="#3A6C97"/>
</linearGradient>
<linearGradient id="paint1_linear_1268_37875" x1="960.003" y1="946.529" x2="960.003" y2="1388.42" gradientUnits="userSpaceOnUse">
<stop stop-color="#69BBD2"/>
<stop offset="1" stop-color="#3A6C97"/>
</linearGradient>
<linearGradient id="paint2_linear_1268_37875" x1="960.003" y1="710.63" x2="960.003" y2="1248.49" gradientUnits="userSpaceOnUse">
<stop stop-color="#69BBD2"/>
<stop offset="1" stop-color="#3A6C97"/>
</linearGradient>
<linearGradient id="paint3_linear_1268_37875" x1="960.003" y1="770.229" x2="960.003" y2="1312.61" gradientUnits="userSpaceOnUse">
<stop stop-color="#69BBD2"/>
<stop offset="1" stop-color="#3A6C97"/>
</linearGradient>
<linearGradient id="paint4_linear_1268_37875" x1="960.003" y1="829.245" x2="960.003" y2="1311.06" gradientUnits="userSpaceOnUse">
<stop stop-color="#69BBD2"/>
<stop offset="1" stop-color="#3A6C97"/>
</linearGradient>
<linearGradient id="paint5_linear_1268_37875" x1="71.5022" y1="829.586" x2="71.5022" y2="998.879" gradientUnits="userSpaceOnUse">
<stop stop-color="#69BBD2"/>
<stop offset="1" stop-color="#3A6C97"/>
</linearGradient>
<linearGradient id="paint6_linear_1268_37875" x1="-141.26" y1="589.495" x2="-141.26" y2="770.967" gradientUnits="userSpaceOnUse">
<stop stop-color="#69BBD2"/>
<stop offset="1" stop-color="#3A6C97"/>
</linearGradient>
<linearGradient id="paint7_linear_1268_37875" x1="960.003" y1="588.824" x2="960.003" y2="1043.02" gradientUnits="userSpaceOnUse">
<stop stop-color="#69BBD2"/>
<stop offset="1" stop-color="#3A6C97"/>
</linearGradient>
<linearGradient id="paint8_linear_1268_37875" x1="-68.851" y1="0.706055" x2="-68.851" y2="822.558" gradientUnits="userSpaceOnUse">
<stop stop-color="#69BBD2"/>
<stop offset="1" stop-color="#3A6C97"/>
</linearGradient>
<linearGradient id="paint9_linear_1268_37875" x1="1789.88" y1="946.372" x2="1789.88" y2="1064.97" gradientUnits="userSpaceOnUse">
<stop stop-color="#69BBD2"/>
<stop offset="1" stop-color="#3A6C97"/>
</linearGradient>
<linearGradient id="paint10_linear_1268_37875" x1="98.6618" y1="888.201" x2="98.6618" y2="1006.08" gradientUnits="userSpaceOnUse">
<stop stop-color="#69BBD2"/>
<stop offset="1" stop-color="#3A6C97"/>
</linearGradient>
<linearGradient id="paint11_linear_1268_37875" x1="1822.22" y1="887.805" x2="1822.22" y2="946.373" gradientUnits="userSpaceOnUse">
<stop stop-color="#69BBD2"/>
<stop offset="1" stop-color="#3A6C97"/>
</linearGradient>
<linearGradient id="paint12_linear_1268_37875" x1="-108.413" y1="0.706055" x2="-108.413" y2="711.36" gradientUnits="userSpaceOnUse">
<stop stop-color="#69BBD2"/>
<stop offset="1" stop-color="#3A6C97"/>
</linearGradient>
<linearGradient id="paint13_linear_1268_37875" x1="1849.38" y1="829.21" x2="1849.38" y2="1005.31" gradientUnits="userSpaceOnUse">
<stop stop-color="#69BBD2"/>
<stop offset="1" stop-color="#3A6C97"/>
</linearGradient>
<linearGradient id="paint14_linear_1268_37875" x1="-76.8867" y1="527.042" x2="-76.8867" y2="650.963" gradientUnits="userSpaceOnUse">
<stop stop-color="#69BBD2"/>
<stop offset="1" stop-color="#3A6C97"/>
</linearGradient>
<linearGradient id="paint15_linear_1268_37875" x1="-9.92761" y1="0.706055" x2="-9.92761" y2="866.572" gradientUnits="userSpaceOnUse">
<stop stop-color="#69BBD2"/>
<stop offset="1" stop-color="#3A6C97"/>
</linearGradient>
<linearGradient id="paint16_linear_1268_37875" x1="1873" y1="769.92" x2="1873" y2="820.26" gradientUnits="userSpaceOnUse">
<stop stop-color="#69BBD2"/>
<stop offset="1" stop-color="#3A6C97"/>
</linearGradient>
<linearGradient id="paint17_linear_1268_37875" x1="1894.39" y1="710.548" x2="1894.39" y2="829.076" gradientUnits="userSpaceOnUse">
<stop stop-color="#69BBD2"/>
<stop offset="1" stop-color="#3A6C97"/>
</linearGradient>
<linearGradient id="paint18_linear_1268_37875" x1="-28.5268" y1="650.736" x2="-28.5268" y2="829.946" gradientUnits="userSpaceOnUse">
<stop stop-color="#69BBD2"/>
<stop offset="1" stop-color="#3A6C97"/>
</linearGradient>
<linearGradient id="paint19_linear_1268_37875" x1="146.832" y1="0.706055" x2="146.832" y2="589.495" gradientUnits="userSpaceOnUse">
<stop stop-color="#69BBD2"/>
<stop offset="1" stop-color="#3A6C97"/>
</linearGradient>
<linearGradient id="paint20_linear_1268_37875" x1="-52.1572" y1="0.706055" x2="-52.1572" y2="527.117" gradientUnits="userSpaceOnUse">
<stop stop-color="#69BBD2"/>
<stop offset="1" stop-color="#3A6C97"/>
</linearGradient>
<linearGradient id="paint21_linear_1268_37875" x1="1949.4" y1="650.159" x2="1949.4" y2="887.661" gradientUnits="userSpaceOnUse">
<stop stop-color="#69BBD2"/>
<stop offset="1" stop-color="#3A6C97"/>
</linearGradient>
<linearGradient id="paint22_linear_1268_37875" x1="102.32" y1="0.706055" x2="102.32" y2="527.04" gradientUnits="userSpaceOnUse">
<stop stop-color="#69BBD2"/>
<stop offset="1" stop-color="#3A6C97"/>
</linearGradient>
<linearGradient id="paint23_linear_1268_37875" x1="131.003" y1="946.769" x2="131.003" y2="1065.81" gradientUnits="userSpaceOnUse">
<stop stop-color="#69BBD2"/>
<stop offset="1" stop-color="#3A6C97"/>
</linearGradient>
<linearGradient id="paint24_linear_1268_37875" x1="272.043" y1="0.706055" x2="272.043" y2="589.439" gradientUnits="userSpaceOnUse">
<stop stop-color="#69BBD2"/>
<stop offset="1" stop-color="#3A6C97"/>
</linearGradient>
<linearGradient id="paint25_linear_1268_37875" x1="382.299" y1="0.706055" x2="382.299" y2="650.735" gradientUnits="userSpaceOnUse">
<stop stop-color="#69BBD2"/>
<stop offset="1" stop-color="#3A6C97"/>
</linearGradient>
<linearGradient id="paint26_linear_1268_37875" x1="547.088" y1="0.706055" x2="547.088" y2="770.613" gradientUnits="userSpaceOnUse">
<stop stop-color="#69BBD2"/>
<stop offset="1" stop-color="#3A6C97"/>
</linearGradient>
<linearGradient id="paint27_linear_1268_37875" x1="496.224" y1="0.706055" x2="496.224" y2="711.056" gradientUnits="userSpaceOnUse">
<stop stop-color="#69BBD2"/>
<stop offset="1" stop-color="#3A6C97"/>
</linearGradient>
<linearGradient id="paint28_linear_1268_37875" x1="600.179" y1="0.706055" x2="600.179" y2="829.584" gradientUnits="userSpaceOnUse">
<stop stop-color="#69BBD2"/>
<stop offset="1" stop-color="#3A6C97"/>
</linearGradient>
<linearGradient id="paint29_linear_1268_37875" x1="1917.39" y1="588.711" x2="1917.39" y2="650.043" gradientUnits="userSpaceOnUse">
<stop stop-color="#69BBD2"/>
<stop offset="1" stop-color="#3A6C97"/>
</linearGradient>
<linearGradient id="paint30_linear_1268_37875" x1="656.801" y1="0.706055" x2="656.801" y2="888.201" gradientUnits="userSpaceOnUse">
<stop stop-color="#69BBD2"/>
<stop offset="1" stop-color="#3A6C97"/>
</linearGradient>
<linearGradient id="paint31_linear_1268_37875" x1="773.471" y1="0.706055" x2="773.471" y2="1065.4" gradientUnits="userSpaceOnUse">
<stop stop-color="#69BBD2"/>
<stop offset="1" stop-color="#3A6C97"/>
</linearGradient>
<linearGradient id="paint32_linear_1268_37875" x1="718.609" y1="0.706055" x2="718.609" y2="946.769" gradientUnits="userSpaceOnUse">
<stop stop-color="#69BBD2"/>
<stop offset="1" stop-color="#3A6C97"/>
</linearGradient>
<linearGradient id="paint33_linear_1268_37875" x1="960.898" y1="463.404" x2="960.898" y2="464.317" gradientUnits="userSpaceOnUse">
<stop stop-color="#69BBD2"/>
<stop offset="1" stop-color="#3A6C97"/>
</linearGradient>
<linearGradient id="paint34_linear_1268_37875" x1="960.876" y1="399.173" x2="960.876" y2="400.078" gradientUnits="userSpaceOnUse">
<stop stop-color="#69BBD2"/>
<stop offset="1" stop-color="#3A6C97"/>
</linearGradient>
<linearGradient id="paint35_linear_1268_37875" x1="960.767" y1="52.0566" x2="960.767" y2="53.0398" gradientUnits="userSpaceOnUse">
<stop stop-color="#69BBD2"/>
<stop offset="1" stop-color="#3A6C97"/>
</linearGradient>
<linearGradient id="paint36_linear_1268_37875" x1="960.851" y1="333.376" x2="960.851" y2="334.281" gradientUnits="userSpaceOnUse">
<stop stop-color="#69BBD2"/>
<stop offset="1" stop-color="#3A6C97"/>
</linearGradient>
<linearGradient id="paint37_linear_1268_37875" x1="960.788" y1="125.35" x2="960.788" y2="126.304" gradientUnits="userSpaceOnUse">
<stop stop-color="#69BBD2"/>
<stop offset="1" stop-color="#3A6C97"/>
</linearGradient>
<linearGradient id="paint38_linear_1268_37875" x1="960.809" y1="196.582" x2="960.809" y2="197.509" gradientUnits="userSpaceOnUse">
<stop stop-color="#69BBD2"/>
<stop offset="1" stop-color="#3A6C97"/>
</linearGradient>
<linearGradient id="paint39_linear_1268_37875" x1="960.837" y1="265.88" x2="960.837" y2="266.799" gradientUnits="userSpaceOnUse">
<stop stop-color="#69BBD2"/>
<stop offset="1" stop-color="#3A6C97"/>
</linearGradient>
<linearGradient id="paint40_linear_1268_37875" x1="960.003" y1="526.194" x2="960.003" y2="910.455" gradientUnits="userSpaceOnUse">
<stop stop-color="#69BBD2"/>
<stop offset="1" stop-color="#3A6C97"/>
</linearGradient>
<linearGradient id="paint41_linear_1268_37875" x1="1995.89" y1="0.706055" x2="1995.89" y2="588.682" gradientUnits="userSpaceOnUse">
<stop stop-color="#69BBD2"/>
<stop offset="1" stop-color="#3A6C97"/>
</linearGradient>
<linearGradient id="paint42_linear_1268_37875" x1="2074.2" y1="0.706055" x2="2074.2" y2="769.921" gradientUnits="userSpaceOnUse">
<stop stop-color="#69BBD2"/>
<stop offset="1" stop-color="#3A6C97"/>
</linearGradient>
<linearGradient id="paint43_linear_1268_37875" x1="2048.57" y1="0.706055" x2="2048.57" y2="908.466" gradientUnits="userSpaceOnUse">
<stop stop-color="#69BBD2"/>
<stop offset="1" stop-color="#3A6C97"/>
</linearGradient>
<linearGradient id="paint44_linear_1268_37875" x1="1971.29" y1="0.706055" x2="1971.29" y2="710.455" gradientUnits="userSpaceOnUse">
<stop stop-color="#69BBD2"/>
<stop offset="1" stop-color="#3A6C97"/>
</linearGradient>
<linearGradient id="paint45_linear_1268_37875" x1="1989.63" y1="0.706055" x2="1989.63" y2="996.961" gradientUnits="userSpaceOnUse">
<stop stop-color="#69BBD2"/>
<stop offset="1" stop-color="#3A6C97"/>
</linearGradient>
<linearGradient id="paint46_linear_1268_37875" x1="1649.6" y1="0.706055" x2="1649.6" y2="588.824" gradientUnits="userSpaceOnUse">
<stop stop-color="#69BBD2"/>
<stop offset="1" stop-color="#3A6C97"/>
</linearGradient>
<linearGradient id="paint47_linear_1268_37875" x1="1930.69" y1="0.706055" x2="1930.69" y2="952.933" gradientUnits="userSpaceOnUse">
<stop stop-color="#69BBD2"/>
<stop offset="1" stop-color="#3A6C97"/>
</linearGradient>
<linearGradient id="paint48_linear_1268_37875" x1="1539.33" y1="0.706055" x2="1539.33" y2="650.212" gradientUnits="userSpaceOnUse">
<stop stop-color="#69BBD2"/>
<stop offset="1" stop-color="#3A6C97"/>
</linearGradient>
<linearGradient id="paint49_linear_1268_37875" x1="1871.76" y1="0.706055" x2="1871.76" y2="1041.21" gradientUnits="userSpaceOnUse">
<stop stop-color="#69BBD2"/>
<stop offset="1" stop-color="#3A6C97"/>
</linearGradient>
<linearGradient id="paint50_linear_1268_37875" x1="1425.39" y1="0.706055" x2="1425.39" y2="710.632" gradientUnits="userSpaceOnUse">
<stop stop-color="#69BBD2"/>
<stop offset="1" stop-color="#3A6C97"/>
</linearGradient>
<linearGradient id="paint51_linear_1268_37875" x1="1374.52" y1="0.706055" x2="1374.52" y2="770.232" gradientUnits="userSpaceOnUse">
<stop stop-color="#69BBD2"/>
<stop offset="1" stop-color="#3A6C97"/>
</linearGradient>
<linearGradient id="paint52_linear_1268_37875" x1="1321.43" y1="0.706055" x2="1321.43" y2="829.245" gradientUnits="userSpaceOnUse">
<stop stop-color="#69BBD2"/>
<stop offset="1" stop-color="#3A6C97"/>
</linearGradient>
<linearGradient id="paint53_linear_1268_37875" x1="1264.8" y1="0.706055" x2="1264.8" y2="887.912" gradientUnits="userSpaceOnUse">
<stop stop-color="#69BBD2"/>
<stop offset="1" stop-color="#3A6C97"/>
</linearGradient>
<linearGradient id="paint54_linear_1268_37875" x1="1107.82" y1="0.706055" x2="1107.82" y2="1331.16" gradientUnits="userSpaceOnUse">
<stop stop-color="#69BBD2"/>
<stop offset="1" stop-color="#3A6C97"/>
</linearGradient>
<linearGradient id="paint55_linear_1268_37875" x1="1202.99" y1="0.706055" x2="1202.99" y2="946.529" gradientUnits="userSpaceOnUse">
<stop stop-color="#69BBD2"/>
<stop offset="1" stop-color="#3A6C97"/>
</linearGradient>
<linearGradient id="paint56_linear_1268_37875" x1="1148.11" y1="0.706055" x2="1148.11" y2="1065.21" gradientUnits="userSpaceOnUse">
<stop stop-color="#69BBD2"/>
<stop offset="1" stop-color="#3A6C97"/>
</linearGradient>
<linearGradient id="paint57_linear_1268_37875" x1="48.9993" y1="0.706055" x2="48.9993" y2="888.583" gradientUnits="userSpaceOnUse">
<stop stop-color="#69BBD2"/>
<stop offset="1" stop-color="#3A6C97"/>
</linearGradient>
<linearGradient id="paint58_linear_1268_37875" x1="960.003" y1="650.214" x2="960.003" y2="1138.73" gradientUnits="userSpaceOnUse">
<stop stop-color="#69BBD2"/>
<stop offset="1" stop-color="#3A6C97"/>
</linearGradient>
<linearGradient id="paint59_linear_1268_37875" x1="47.8694" y1="770.614" x2="47.8694" y2="954.8" gradientUnits="userSpaceOnUse">
<stop stop-color="#69BBD2"/>
<stop offset="1" stop-color="#3A6C97"/>
</linearGradient>
<linearGradient id="paint60_linear_1268_37875" x1="26.4754" y1="711.054" x2="26.4754" y2="947.163" gradientUnits="userSpaceOnUse">
<stop stop-color="#69BBD2"/>
<stop offset="1" stop-color="#3A6C97"/>
</linearGradient>
<linearGradient id="paint61_linear_1268_37875" x1="744.98" y1="0.706055" x2="744.98" y2="1527.46" gradientUnits="userSpaceOnUse">
<stop stop-color="#69BBD2"/>
<stop offset="1" stop-color="#3A6C97"/>
</linearGradient>
<linearGradient id="paint62_linear_1268_37875" x1="960.731" y1="0.706055" x2="960.731" y2="1527.46" gradientUnits="userSpaceOnUse">
<stop stop-color="#69BBD2"/>
<stop offset="1" stop-color="#3A6C97"/>
</linearGradient>
<linearGradient id="paint63_linear_1268_37875" x1="-79.8578" y1="589.437" x2="-79.8578" y2="776.315" gradientUnits="userSpaceOnUse">
<stop stop-color="#69BBD2"/>
<stop offset="1" stop-color="#3A6C97"/>
</linearGradient>
<linearGradient id="paint64_linear_1268_37875" x1="960.003" y1="1005.31" x2="960.003" y2="1246.87" gradientUnits="userSpaceOnUse">
<stop stop-color="#69BBD2"/>
<stop offset="1" stop-color="#3A6C97"/>
</linearGradient>
<clipPath id="clip0_1268_37875">
<rect width="1920" height="1051" fill="white"/>
</clipPath>
</defs>
</svg>
