<svg width="948" height="804" viewBox="0 0 948 804" fill="none" xmlns="http://www.w3.org/2000/svg">
<g opacity="0.3" clip-path="url(#clip0_3016_16752)">
<path d="M-1331.98 1192.47L-1159.52 1192.41L-985.152 1122.2L-857.263 1060.18L-760.198 1003.26L-684.653 949.586L-624.758 897.969L-576.605 847.609L-537.53 797.94L-505.62 748.551L-427.142 748.521L-348.665 748.491L-270.181 748.462L-191.698 748.432L-113.221 748.396L-34.7315 748.366L43.7519 748.336L122.241 748.307L154.163 797.678L193.244 847.323L241.397 897.653L301.292 949.228L376.825 1002.86L473.873 1059.72L601.738 1121.66L776.087 1191.77L947.124 1191.71" stroke="url(#paint0_linear_3016_16752)" stroke-opacity="0.6" stroke-width="0.75" stroke-linecap="round" stroke-linejoin="round"/>
<path d="M-1331.98 1170.12L-1183.47 1122.26L-1023.62 1060.24L-857.263 1060.18L-690.893 1060.12L-618.091 1003.21L-561.425 949.542L-516.496 897.925L-480.383 847.571L-451.073 797.908L-364.617 797.872L-278.16 797.842L-191.698 797.806L-105.236 797.777L-18.7736 797.741L67.6946 797.705L97.0042 847.356L133.117 897.686L241.397 897.651L349.677 897.609L424.55 949.184L518.974 1002.8L640.297 1059.66L800.148 1121.59L947.124 1168.86" stroke="url(#paint1_linear_3016_16752)" stroke-opacity="0.6" stroke-width="0.75" stroke-linecap="round" stroke-linejoin="round"/>
<path d="M-1331.98 1052.19L-1186.5 1003.41L-1054.32 949.719L-949.514 898.084L-865.26 847.712L-796.881 798.037L-741.04 748.636L-695.31 699.199L-657.879 649.477L-627.37 599.254L-565.135 599.23L-502.901 599.206L-440.666 599.176L-378.432 599.153L-316.197 599.129L-253.956 599.105L-191.722 599.075L-129.481 599.051L-67.2408 599.028L-5.00042 599.004L57.2401 598.974L119.486 598.95L181.733 598.926L243.974 598.896L274.506 649.102L311.961 698.806L357.715 748.213L436.21 748.183L514.705 748.148L586.528 797.507L674.48 847.134L782.837 897.446L917.636 949.004L947.124 958.303" stroke="url(#paint2_linear_3016_16752)" stroke-opacity="0.6" stroke-width="0.75" stroke-linecap="round" stroke-linejoin="round"/>
<path d="M-1331.98 1106.23L-1189.97 1060.29L-1044.4 1003.36L-931.104 949.671L-841.264 898.049L-769.044 847.677L-710.43 798.002L-662.569 748.607L-623.368 699.176L-591.286 649.448L-524.694 649.424L-458.096 649.394L-391.504 649.37L-324.906 649.34L-258.308 649.317L-191.71 649.287L-125.112 649.263L-58.5139 649.233L8.09007 649.209L74.694 649.18L141.298 649.156L207.902 649.126L240.008 698.831L311.961 698.807L383.92 698.777L436.21 748.184L500.054 797.543L578.228 847.17L674.546 897.489L794.36 949.046L945.461 1002.65L947.124 1003.14" stroke="url(#paint3_linear_3016_16752)" stroke-opacity="0.6" stroke-width="0.75" stroke-linecap="round" stroke-linejoin="round"/>
<path d="M-1331.98 1060.35L-1189.97 1060.29L-1023.62 1060.24L-902.305 1003.31L-807.881 949.631L-733.014 898.008L-672.827 847.642L-623.98 797.973L-584.091 748.578L-551.427 699.147L-479.486 699.118L-407.545 699.088L-335.598 699.058L-263.651 699.034L-191.704 699.004L-119.757 698.975L-47.81 698.945L24.143 698.921L96.0959 698.891L168.049 698.861L200.73 748.274L240.631 797.639L289.49 847.278L349.677 897.609L457.962 897.567L547.814 949.136L661.134 1002.75L806.726 1059.6L947.124 1104.92" stroke="url(#paint4_linear_3016_16752)" stroke-opacity="0.6" stroke-width="0.75" stroke-linecap="round" stroke-linejoin="round"/>
<path d="M-1331.98 879.024L-1250.1 847.863L-1142.66 798.171L-1054.91 748.764L-983.056 699.315L-924.235 649.587L-876.29 599.358L-837.553 548.468L-806.712 496.761L-750.812 496.738L-694.906 496.714L-639.006 496.69L-583.1 496.666L-527.194 496.642L-471.288 496.618L-415.382 496.595L-359.47 496.571L-303.564 496.547L-247.652 496.523L-191.746 496.499L-135.834 496.475L-79.9217 496.452L-24.0038 496.428L31.9081 496.404L87.8202 496.386L143.738 496.362L199.65 496.338L255.568 496.315L311.486 496.291L367.404 496.267L423.327 496.243L454.198 547.932L512.924 547.908L571.65 547.884L630.376 547.86L689.108 547.836L741.975 598.697L807.403 648.89L887.662 698.577L947.124 728.534" stroke="url(#paint5_linear_3016_16752)" stroke-opacity="0.6" stroke-width="0.75" stroke-linecap="round" stroke-linejoin="round"/>
<path d="M67.6953 797.704L154.164 797.674L240.632 797.639L327.106 797.609L413.58 797.573L481.977 847.206L566.255 897.525L674.546 897.489L782.838 897.447L891.135 897.406L947.124 897.388" stroke="url(#paint6_linear_3016_16752)" stroke-opacity="0.6" stroke-width="0.75" stroke-linecap="round" stroke-linejoin="round"/>
<path d="M122.242 748.304L200.731 748.274L279.221 748.245L357.716 748.215L413.58 797.574L500.055 797.544L586.529 797.509L673.009 797.479L759.495 797.443L845.975 797.407L932.461 797.377L947.125 797.372" stroke="url(#paint7_linear_3016_16752)" stroke-opacity="0.6" stroke-width="0.75" stroke-linecap="round" stroke-linejoin="round"/>
<path d="M168.047 698.862L240.006 698.832L279.218 748.245L327.103 797.61L385.728 847.243L481.974 847.207L578.226 847.172L674.478 847.136L770.73 847.1L866.988 847.065L947.122 847.035" stroke="url(#paint8_linear_3016_16752)" stroke-opacity="0.6" stroke-width="0.75" stroke-linecap="round" stroke-linejoin="round"/>
<path d="M207.895 649.126L274.498 649.103L341.108 649.073L407.718 649.049L474.328 649.019L540.938 648.995L607.548 648.966L674.164 648.942L740.78 648.918L807.396 648.888L874.012 648.864L947.116 691.29" stroke="url(#paint9_linear_3016_16752)" stroke-opacity="0.6" stroke-width="0.75" stroke-linecap="round" stroke-linejoin="round"/>
<path d="M243.969 598.899L306.215 598.875L368.468 598.851L430.714 598.827L474.331 649.02L527.833 698.719L599.797 698.695L671.762 698.665L743.727 698.636L815.692 698.606L887.657 698.576L947.119 698.552" stroke="url(#paint10_linear_3016_16752)" stroke-opacity="0.6" stroke-width="0.75" stroke-linecap="round" stroke-linejoin="round"/>
<path d="M336.746 547.98L395.472 547.956L454.198 547.933L492.965 598.799L540.945 648.998L599.802 698.697L671.701 748.092L750.203 748.062L828.704 748.032L907.205 748.002L947.123 747.985" stroke="url(#paint11_linear_3016_16752)" stroke-opacity="0.6" stroke-width="0.75" stroke-linecap="round" stroke-linejoin="round"/>
<path d="M423.324 496.242L479.242 496.218L535.16 496.194L591.084 496.17L647.008 496.146L689.105 547.835L747.831 547.811L806.563 547.787" stroke="url(#paint12_linear_3016_16752)" stroke-opacity="0.6" stroke-width="0.75" stroke-linecap="round" stroke-linejoin="round"/>
<path d="M-1076.19 391.312L-1024.17 391.294L-972.156 391.27L-920.133 391.246L-868.11 391.223L-816.092 391.199L-764.069 391.181L-712.045 391.157L-660.022 391.133L-607.993 391.109L-555.969 391.085L-503.94 391.068L-451.916 391.044L-399.887 391.02L-347.858 390.996L-295.828 390.978L-243.799 390.954L-191.77 390.93L-139.74 390.907L-87.705 390.883L-35.6755 390.865L16.3597 390.841L68.3951 390.817L120.43 390.793L172.465 390.769L224.501 390.752L276.536 390.728L328.571 390.704L380.613 390.68L432.648 390.656L484.689 390.638L536.73 390.614L588.772 390.591L640.813 390.567L692.854 390.543" stroke="url(#paint13_linear_3016_16752)" stroke-opacity="0.6" stroke-width="0.75" stroke-linecap="round" stroke-linejoin="round"/>
<path d="M-1055.7 337.174L-1004.89 337.15L-954.078 337.132L-903.26 337.109L-852.448 337.085L-801.63 337.061L-750.811 337.043L-699.999 337.019L-649.181 336.995L-598.357 336.971L-547.538 336.954L-496.72 336.93L-445.896 336.906L-395.078 336.882L-344.253 336.858L-293.429 336.84L-242.611 336.816L-191.787 336.793L-140.963 336.769L-90.1323 336.751L-39.3082 336.727L11.5161 336.703L62.3461 336.679L113.176 336.661L164 336.638L214.831 336.614L265.661 336.59L316.491 336.572L367.327 336.548L418.157 336.524L468.987 336.501L519.823 336.477L570.659 336.459L621.49 336.435L672.326 336.411" stroke="url(#paint14_linear_3016_16752)" stroke-opacity="0.6" stroke-width="0.75" stroke-linecap="round" stroke-linejoin="round"/>
<path d="M-1053.94 44.7006L-1003.24 44.6768L-952.533 44.6529L-901.827 44.6291L-851.122 44.6053L-800.41 44.5814L-749.705 44.5576L-698.999 44.5278L-648.288 44.5039L-597.582 44.4801L-546.871 44.4562L-496.159 44.4324L-445.448 44.4085L-394.737 44.3847L-344.025 44.3609L-293.308 44.337L-242.596 44.3132L-191.879 44.2893L-141.168 44.2655L-90.4504 44.2416L-39.7331 44.2178L10.9842 44.188L61.7017 44.1642L112.419 44.1403L163.142 44.1165L213.86 44.0926L264.583 44.0688L315.3 44.0449L366.023 44.0211L416.747 43.9972L467.47 43.9734L518.193 43.9496L568.917 43.9257L619.646 43.9019L670.369 43.8721" stroke="url(#paint15_linear_3016_16752)" stroke-opacity="0.6" stroke-width="0.75" stroke-linecap="round" stroke-linejoin="round"/>
<path d="M-1042.74 281.722L-992.69 281.698L-942.643 281.674L-892.591 281.656L-842.538 281.633L-792.486 281.609L-742.434 281.585L-692.381 281.567L-642.323 281.543L-592.27 281.519L-542.212 281.495L-492.16 281.478L-442.101 281.454L-392.043 281.43L-341.984 281.406L-291.926 281.382L-241.868 281.364L-191.803 281.34L-141.745 281.317L-91.6807 281.293L-41.6223 281.275L8.44203 281.251L58.5062 281.227L108.571 281.203L158.635 281.186L208.699 281.162L258.763 281.138L308.834 281.114L358.898 281.09L408.968 281.072L459.039 281.048L509.103 281.025L559.173 281.001L609.243 280.983L659.319 280.959" stroke="url(#paint16_linear_3016_16752)" stroke-opacity="0.6" stroke-width="0.75" stroke-linecap="round" stroke-linejoin="round"/>
<path d="M-1042.62 106.445L-992.577 106.421L-942.536 106.398L-892.496 106.374L-842.455 106.35L-792.409 106.326L-742.368 106.302L-692.322 106.278L-642.281 106.255L-592.234 106.231L-542.188 106.207L-492.141 106.183L-442.095 106.159L-392.048 106.135L-342.002 106.112L-291.956 106.088L-241.903 106.064L-191.857 106.04L-141.804 106.016L-91.7517 105.992L-41.6994 105.968L8.35306 105.951L58.4055 105.927L108.458 105.903L158.51 105.879L208.569 105.855L258.621 105.831L308.68 105.808L358.732 105.784L408.79 105.76L458.849 105.736L508.907 105.712L558.971 105.688L609.03 105.664L659.088 105.641" stroke="url(#paint17_linear_3016_16752)" stroke-opacity="0.6" stroke-width="0.75" stroke-linecap="round" stroke-linejoin="round"/>
<path d="M-1036.71 166.454L-987.015 166.43L-937.318 166.412L-887.628 166.388L-837.932 166.364L-788.236 166.34L-738.54 166.317L-688.843 166.293L-639.147 166.269L-589.445 166.251L-539.749 166.227L-490.046 166.203L-440.344 166.18L-390.648 166.156L-340.946 166.132L-291.244 166.108L-241.542 166.084L-191.834 166.066L-142.131 166.042L-92.4292 166.019L-42.7211 165.995L6.981 165.971L56.6892 165.947L106.397 165.923L156.105 165.905L205.814 165.881L255.522 165.858L305.236 165.834L354.944 165.81L404.652 165.786L454.366 165.762L504.08 165.744L553.794 165.721L603.502 165.697L653.216 165.673" stroke="url(#paint18_linear_3016_16752)" stroke-opacity="0.6" stroke-width="0.75" stroke-linecap="round" stroke-linejoin="round"/>
<path d="M-1036.59 224.851L-986.909 224.827L-937.219 224.803L-887.529 224.78L-837.839 224.762L-788.148 224.738L-738.458 224.714L-688.768 224.69L-639.077 224.666L-589.381 224.648L-539.691 224.625L-489.995 224.601L-440.304 224.577L-390.608 224.553L-340.912 224.529L-291.216 224.511L-241.519 224.487L-191.817 224.464L-142.121 224.44L-92.4189 224.416L-42.7227 224.398L6.97941 224.374L56.6817 224.35L106.384 224.327L156.086 224.303L205.788 224.285L255.49 224.261L305.192 224.237L354.901 224.213L404.603 224.189L454.311 224.172L504.019 224.148L553.721 224.124L603.429 224.1L653.143 224.076" stroke="url(#paint19_linear_3016_16752)" stroke-opacity="0.6" stroke-width="0.75" stroke-linecap="round" stroke-linejoin="round"/>
<path d="M-1331.98 767.303L-1290.3 748.854L-1198.85 699.406L-1123.99 649.665L-1062.97 599.436L-1013.67 548.54L-974.418 496.834L-943.903 444.175L-890.182 444.151L-836.461 444.127L-782.74 444.103L-729.018 444.079L-675.297 444.056L-621.57 444.032L-567.848 444.014L-514.121 443.99L-460.394 443.966L-406.667 443.942L-352.939 443.919L-299.212 443.895L-245.485 443.871L-191.758 443.853L-138.024 443.829L-84.2971 443.805L-30.5639 443.782L23.1693 443.758L76.9025 443.734L130.636 443.71L184.369 443.692L238.108 443.668L291.841 443.645L345.58 443.621L399.319 443.597L453.053 443.573L506.792 443.549L560.537 443.531L614.276 443.508L668.015 443.484L721.76 443.46L724.349 447.135L758.859 496.101L806.566 547.79L866.485 598.65L940.635 648.837L947.124 652.382" stroke="url(#paint20_linear_3016_16752)" stroke-opacity="0.6" stroke-width="0.75" stroke-linecap="round" stroke-linejoin="round"/>
<path d="M630.151 0.594727L619.649 43.9017L609.028 105.663L603.501 165.697L603.43 224.099L609.248 280.982L621.489 336.435L640.813 390.566L668.015 443.481L702.935 496.123L758.859 496.099" stroke="url(#paint21_linear_3016_16752)" stroke-opacity="0.6" stroke-width="0.75" stroke-linecap="round" stroke-linejoin="round"/>
<path d="M578.766 0.594727L568.917 43.9255L558.967 105.687L553.79 165.721L553.719 224.123L559.175 281L570.656 336.459L588.769 390.59L614.273 443.505L647.008 496.147L702.932 496.123L747.831 547.811L804.224 598.672L874.016 648.865L940.632 648.835" stroke="url(#paint22_linear_3016_16752)" stroke-opacity="0.6" stroke-width="0.75" stroke-linecap="round" stroke-linejoin="round"/>
<path d="M527.388 0.594727L518.192 43.9493L508.902 105.711L504.075 165.745L504.016 224.147L509.103 281.024L519.819 336.477L536.727 390.613L560.533 443.529L591.083 496.17L630.373 547.859L679.719 598.725L740.784 648.918L815.693 698.605L907.202 748L947.12 765.627" stroke="url(#paint23_linear_3016_16752)" stroke-opacity="0.6" stroke-width="0.75" stroke-linecap="round" stroke-linejoin="round"/>
<path d="M476.013 0.594727L467.47 43.9732L458.844 105.735L454.362 165.763L454.309 224.171L459.04 281.047L468.984 336.501L484.687 390.637L506.789 443.547L535.161 496.194L571.648 547.883L617.467 598.749L679.72 598.725L741.972 598.695L804.225 598.672L866.483 598.648" stroke="url(#paint24_linear_3016_16752)" stroke-opacity="0.6" stroke-width="0.75" stroke-linecap="round" stroke-linejoin="round"/>
<path d="M424.638 0.594727L416.748 43.997L408.787 105.759L404.649 165.787L404.602 224.188L408.971 281.071L418.155 336.524L432.647 390.655L453.051 443.571L479.244 496.218L512.923 547.907L555.216 598.773L607.554 648.966L671.766 698.665L750.201 748.06L845.973 797.407L947.122 840.208" stroke="url(#paint25_linear_3016_16752)" stroke-opacity="0.6" stroke-width="0.75" stroke-linecap="round" stroke-linejoin="round"/>
<path d="M373.265 0.594727L366.028 44.0208L358.731 105.782L354.944 165.81L354.902 224.212L358.904 281.089L367.328 336.548L380.614 390.679L399.321 443.595L423.329 496.242" stroke="url(#paint26_linear_3016_16752)" stroke-opacity="0.6" stroke-width="0.75" stroke-linecap="round" stroke-linejoin="round"/>
<path d="M321.886 0.594727L315.302 44.0446L308.676 105.806L305.233 165.834L305.191 224.236L308.837 281.113L316.489 336.572L328.57 390.703L345.579 443.618L367.402 496.266L395.471 547.954L430.717 598.826L492.964 598.797L555.216 598.773L617.468 598.749L674.17 648.942L743.73 698.635L828.703 748.03L932.459 797.377L947.122 803.102" stroke="url(#paint27_linear_3016_16752)" stroke-opacity="0.6" stroke-width="0.75" stroke-linecap="round" stroke-linejoin="round"/>
<path d="M270.508 0.594727L264.583 44.0685L258.617 105.83L255.518 165.858L255.488 224.26L258.765 281.137L265.658 336.59L276.534 390.727L291.839 443.642L311.483 496.29L336.744 547.978" stroke="url(#paint28_linear_3016_16752)" stroke-opacity="0.6" stroke-width="0.75" stroke-linecap="round" stroke-linejoin="round"/>
<path d="M219.129 0.594727L213.863 44.0923L208.567 105.854L205.813 165.882L205.789 224.284L208.704 281.161L214.831 336.614L224.502 390.75L238.108 443.666L255.568 496.313L278.027 548.002L306.22 598.874L341.116 649.073L383.92 698.778L455.879 698.748L514.706 748.149L593.201 748.119L671.702 748.089L759.494 797.443L866.99 847.064L947.124 877.498" stroke="url(#paint29_linear_3016_16752)" stroke-opacity="0.6" stroke-width="0.75" stroke-linecap="round" stroke-linejoin="round"/>
<path d="M167.755 0.594727L163.149 44.1161L158.512 105.878L156.108 165.906L156.09 224.302L158.643 281.184L164.003 336.638L172.469 390.768L184.372 443.69L199.653 496.337L219.304 548.025L243.977 598.898" stroke="url(#paint30_linear_3016_16752)" stroke-opacity="0.6" stroke-width="0.75" stroke-linecap="round" stroke-linejoin="round"/>
<path d="M116.37 0.594727L112.416 44.14L108.451 105.902L106.391 165.924L106.379 224.325L108.57 281.202L113.17 336.661L120.425 390.792L130.63 443.708L143.733 496.361L160.575 548.055L181.728 598.928L207.897 649.127" stroke="url(#paint31_linear_3016_16752)" stroke-opacity="0.6" stroke-width="0.75" stroke-linecap="round" stroke-linejoin="round"/>
<path d="M64.997 0.594727L61.7021 44.1638L58.4013 105.925L56.6856 165.947L56.6797 224.349L58.5081 281.226L62.3432 336.679L68.3928 390.816L76.9 443.732L87.8177 496.385L101.858 548.079L119.484 598.951L141.296 649.157L168.046 698.861" stroke="url(#paint32_linear_3016_16752)" stroke-opacity="0.6" stroke-width="0.75" stroke-linecap="round" stroke-linejoin="round"/>
<path d="M13.6178 0.594727L10.9878 44.1876L8.35188 105.949L6.98047 165.971V224.373L8.44696 281.25L11.5162 336.703L16.3605 390.84L23.1699 443.755L31.9087 496.403L43.1411 548.103L57.2408 598.975L74.6947 649.18L96.0965 698.891L122.242 748.304" stroke="url(#paint33_linear_3016_16752)" stroke-opacity="0.6" stroke-width="0.75" stroke-linecap="round" stroke-linejoin="round"/>
<path d="M-140.508 0.594727L-141.161 44.2651L-141.802 106.015L-142.129 166.043L-142.117 224.439L-141.737 281.316L-140.959 336.769L-139.736 390.905L-138.021 443.827L-135.83 496.474L-133.01 548.175L-129.478 599.053L-125.108 649.264L-119.753 698.974L-113.217 748.393L-105.232 797.776L-95.4663 847.427L-83.4326 897.769L-68.4661 949.363L-49.5933 1003L-25.3538 1059.89L6.58576 1121.86" stroke="url(#paint34_linear_3016_16752)" stroke-opacity="0.6" stroke-width="0.75" stroke-linecap="round" stroke-linejoin="round"/>
<path d="M-37.7595 0.594727L-39.7305 44.2174L-41.7016 105.967L-42.7227 165.995V224.397L-41.6184 281.274L-39.309 336.727L-35.6757 390.864L-30.5643 443.779L-24.0042 496.427L-15.58 548.127L-5.00076 599.005L8.08972 649.21L24.1426 698.921L43.7516 748.334L67.6943 797.705" stroke="url(#paint35_linear_3016_16752)" stroke-opacity="0.6" stroke-width="0.75" stroke-linecap="round" stroke-linejoin="round"/>
<path d="M-89.1348 0.594727L-90.4468 44.2412L-91.7528 105.991L-92.4297 166.019L-92.4178 224.415L-91.6757 281.292L-90.1321 336.751L-87.7041 390.882L-84.2964 443.803L-79.921 496.45L-74.2989 548.151L-67.2401 599.029L-58.5132 649.234L-47.8093 698.945L-34.7308 748.363L-18.7729 797.741L0.770758 847.392L24.8382 897.728" stroke="url(#paint36_linear_3016_16752)" stroke-opacity="0.6" stroke-width="0.75" stroke-linecap="round" stroke-linejoin="round"/>
<path d="M-1331.98 959.681L-1300.75 949.811L-1166 898.17L-1057.69 847.786L-969.776 798.105L-897.977 748.705L-839.186 699.262L-791.057 649.533L-751.833 599.31L-720.137 548.42L-661.429 548.396L-602.721 548.373L-544.012 548.343L-485.298 548.319L-426.59 548.295L-367.876 548.271L-309.162 548.248L-250.448 548.224L-191.734 548.2L-133.014 548.176L-74.2997 548.152L-15.5797 548.128L43.1404 548.105L101.86 548.081L160.581 548.057L219.301 548.027L278.026 548.003L336.747 547.979L368.472 598.852L407.726 649.051L455.879 698.75L527.837 698.72L593.201 748.121L673.008 797.48L770.732 847.101L891.135 897.408L947.124 916.678" stroke="url(#paint37_linear_3016_16752)" stroke-opacity="0.6" stroke-width="0.75" stroke-linecap="round" stroke-linejoin="round"/>
</g>
<defs>
<linearGradient id="paint0_linear_3016_16752" x1="-192.428" y1="748.307" x2="-192.428" y2="1192.47" gradientUnits="userSpaceOnUse">
<stop stop-color="#69BBD2"/>
<stop offset="1" stop-color="#3A6C97"/>
</linearGradient>
<linearGradient id="paint1_linear_3016_16752" x1="-192.428" y1="797.705" x2="-192.428" y2="1170.12" gradientUnits="userSpaceOnUse">
<stop stop-color="#69BBD2"/>
<stop offset="1" stop-color="#3A6C97"/>
</linearGradient>
<linearGradient id="paint2_linear_3016_16752" x1="-192.428" y1="598.896" x2="-192.428" y2="1052.19" gradientUnits="userSpaceOnUse">
<stop stop-color="#69BBD2"/>
<stop offset="1" stop-color="#3A6C97"/>
</linearGradient>
<linearGradient id="paint3_linear_3016_16752" x1="-192.428" y1="649.126" x2="-192.428" y2="1106.23" gradientUnits="userSpaceOnUse">
<stop stop-color="#69BBD2"/>
<stop offset="1" stop-color="#3A6C97"/>
</linearGradient>
<linearGradient id="paint4_linear_3016_16752" x1="-192.428" y1="698.861" x2="-192.428" y2="1104.92" gradientUnits="userSpaceOnUse">
<stop stop-color="#69BBD2"/>
<stop offset="1" stop-color="#3A6C97"/>
</linearGradient>
<linearGradient id="paint5_linear_3016_16752" x1="-192.428" y1="496.243" x2="-192.428" y2="879.024" gradientUnits="userSpaceOnUse">
<stop stop-color="#69BBD2"/>
<stop offset="1" stop-color="#3A6C97"/>
</linearGradient>
<linearGradient id="paint6_linear_3016_16752" x1="507.41" y1="797.573" x2="507.41" y2="897.525" gradientUnits="userSpaceOnUse">
<stop stop-color="#69BBD2"/>
<stop offset="1" stop-color="#3A6C97"/>
</linearGradient>
<linearGradient id="paint7_linear_3016_16752" x1="534.683" y1="748.215" x2="534.683" y2="797.574" gradientUnits="userSpaceOnUse">
<stop stop-color="#69BBD2"/>
<stop offset="1" stop-color="#3A6C97"/>
</linearGradient>
<linearGradient id="paint8_linear_3016_16752" x1="557.584" y1="698.832" x2="557.584" y2="847.243" gradientUnits="userSpaceOnUse">
<stop stop-color="#69BBD2"/>
<stop offset="1" stop-color="#3A6C97"/>
</linearGradient>
<linearGradient id="paint9_linear_3016_16752" x1="577.505" y1="648.864" x2="577.505" y2="691.29" gradientUnits="userSpaceOnUse">
<stop stop-color="#69BBD2"/>
<stop offset="1" stop-color="#3A6C97"/>
</linearGradient>
<linearGradient id="paint10_linear_3016_16752" x1="595.544" y1="598.827" x2="595.544" y2="698.719" gradientUnits="userSpaceOnUse">
<stop stop-color="#69BBD2"/>
<stop offset="1" stop-color="#3A6C97"/>
</linearGradient>
<linearGradient id="paint11_linear_3016_16752" x1="641.935" y1="547.933" x2="641.935" y2="748.092" gradientUnits="userSpaceOnUse">
<stop stop-color="#69BBD2"/>
<stop offset="1" stop-color="#3A6C97"/>
</linearGradient>
<linearGradient id="paint12_linear_3016_16752" x1="614.944" y1="496.146" x2="614.944" y2="547.835" gradientUnits="userSpaceOnUse">
<stop stop-color="#69BBD2"/>
<stop offset="1" stop-color="#3A6C97"/>
</linearGradient>
<linearGradient id="paint13_linear_3016_16752" x1="-191.669" y1="390.543" x2="-191.669" y2="391.312" gradientUnits="userSpaceOnUse">
<stop stop-color="#69BBD2"/>
<stop offset="1" stop-color="#3A6C97"/>
</linearGradient>
<linearGradient id="paint14_linear_3016_16752" x1="-191.689" y1="336.411" x2="-191.689" y2="337.174" gradientUnits="userSpaceOnUse">
<stop stop-color="#69BBD2"/>
<stop offset="1" stop-color="#3A6C97"/>
</linearGradient>
<linearGradient id="paint15_linear_3016_16752" x1="-191.784" y1="43.8721" x2="-191.784" y2="44.7006" gradientUnits="userSpaceOnUse">
<stop stop-color="#69BBD2"/>
<stop offset="1" stop-color="#3A6C97"/>
</linearGradient>
<linearGradient id="paint16_linear_3016_16752" x1="-191.711" y1="280.959" x2="-191.711" y2="281.722" gradientUnits="userSpaceOnUse">
<stop stop-color="#69BBD2"/>
<stop offset="1" stop-color="#3A6C97"/>
</linearGradient>
<linearGradient id="paint17_linear_3016_16752" x1="-191.765" y1="105.641" x2="-191.765" y2="106.445" gradientUnits="userSpaceOnUse">
<stop stop-color="#69BBD2"/>
<stop offset="1" stop-color="#3A6C97"/>
</linearGradient>
<linearGradient id="paint18_linear_3016_16752" x1="-191.747" y1="165.673" x2="-191.747" y2="166.454" gradientUnits="userSpaceOnUse">
<stop stop-color="#69BBD2"/>
<stop offset="1" stop-color="#3A6C97"/>
</linearGradient>
<linearGradient id="paint19_linear_3016_16752" x1="-191.725" y1="224.076" x2="-191.725" y2="224.851" gradientUnits="userSpaceOnUse">
<stop stop-color="#69BBD2"/>
<stop offset="1" stop-color="#3A6C97"/>
</linearGradient>
<linearGradient id="paint20_linear_3016_16752" x1="-192.428" y1="443.46" x2="-192.428" y2="767.303" gradientUnits="userSpaceOnUse">
<stop stop-color="#69BBD2"/>
<stop offset="1" stop-color="#3A6C97"/>
</linearGradient>
<linearGradient id="paint21_linear_3016_16752" x1="681.144" y1="0.594727" x2="681.144" y2="496.123" gradientUnits="userSpaceOnUse">
<stop stop-color="#69BBD2"/>
<stop offset="1" stop-color="#3A6C97"/>
</linearGradient>
<linearGradient id="paint22_linear_3016_16752" x1="747.175" y1="0.594727" x2="747.175" y2="648.865" gradientUnits="userSpaceOnUse">
<stop stop-color="#69BBD2"/>
<stop offset="1" stop-color="#3A6C97"/>
</linearGradient>
<linearGradient id="paint23_linear_3016_16752" x1="725.568" y1="0.594727" x2="725.568" y2="765.627" gradientUnits="userSpaceOnUse">
<stop stop-color="#69BBD2"/>
<stop offset="1" stop-color="#3A6C97"/>
</linearGradient>
<linearGradient id="paint24_linear_3016_16752" x1="660.396" y1="0.594727" x2="660.396" y2="598.749" gradientUnits="userSpaceOnUse">
<stop stop-color="#69BBD2"/>
<stop offset="1" stop-color="#3A6C97"/>
</linearGradient>
<linearGradient id="paint25_linear_3016_16752" x1="675.862" y1="0.594727" x2="675.862" y2="840.208" gradientUnits="userSpaceOnUse">
<stop stop-color="#69BBD2"/>
<stop offset="1" stop-color="#3A6C97"/>
</linearGradient>
<linearGradient id="paint26_linear_3016_16752" x1="389.116" y1="0.594727" x2="389.116" y2="496.242" gradientUnits="userSpaceOnUse">
<stop stop-color="#69BBD2"/>
<stop offset="1" stop-color="#3A6C97"/>
</linearGradient>
<linearGradient id="paint27_linear_3016_16752" x1="626.157" y1="0.594727" x2="626.157" y2="803.102" gradientUnits="userSpaceOnUse">
<stop stop-color="#69BBD2"/>
<stop offset="1" stop-color="#3A6C97"/>
</linearGradient>
<linearGradient id="paint28_linear_3016_16752" x1="296.116" y1="0.594727" x2="296.116" y2="547.978" gradientUnits="userSpaceOnUse">
<stop stop-color="#69BBD2"/>
<stop offset="1" stop-color="#3A6C97"/>
</linearGradient>
<linearGradient id="paint29_linear_3016_16752" x1="576.457" y1="0.594727" x2="576.457" y2="877.498" gradientUnits="userSpaceOnUse">
<stop stop-color="#69BBD2"/>
<stop offset="1" stop-color="#3A6C97"/>
</linearGradient>
<linearGradient id="paint30_linear_3016_16752" x1="200.033" y1="0.594727" x2="200.033" y2="598.898" gradientUnits="userSpaceOnUse">
<stop stop-color="#69BBD2"/>
<stop offset="1" stop-color="#3A6C97"/>
</linearGradient>
<linearGradient id="paint31_linear_3016_16752" x1="157.138" y1="0.594727" x2="157.138" y2="649.127" gradientUnits="userSpaceOnUse">
<stop stop-color="#69BBD2"/>
<stop offset="1" stop-color="#3A6C97"/>
</linearGradient>
<linearGradient id="paint32_linear_3016_16752" x1="112.363" y1="0.594727" x2="112.363" y2="698.861" gradientUnits="userSpaceOnUse">
<stop stop-color="#69BBD2"/>
<stop offset="1" stop-color="#3A6C97"/>
</linearGradient>
<linearGradient id="paint33_linear_3016_16752" x1="64.6112" y1="0.594727" x2="64.6112" y2="748.304" gradientUnits="userSpaceOnUse">
<stop stop-color="#69BBD2"/>
<stop offset="1" stop-color="#3A6C97"/>
</linearGradient>
<linearGradient id="paint34_linear_3016_16752" x1="-67.7716" y1="0.594727" x2="-67.7716" y2="1121.86" gradientUnits="userSpaceOnUse">
<stop stop-color="#69BBD2"/>
<stop offset="1" stop-color="#3A6C97"/>
</linearGradient>
<linearGradient id="paint35_linear_3016_16752" x1="12.4858" y1="0.594727" x2="12.4858" y2="797.705" gradientUnits="userSpaceOnUse">
<stop stop-color="#69BBD2"/>
<stop offset="1" stop-color="#3A6C97"/>
</linearGradient>
<linearGradient id="paint36_linear_3016_16752" x1="-33.7957" y1="0.594727" x2="-33.7957" y2="897.728" gradientUnits="userSpaceOnUse">
<stop stop-color="#69BBD2"/>
<stop offset="1" stop-color="#3A6C97"/>
</linearGradient>
<linearGradient id="paint37_linear_3016_16752" x1="-192.428" y1="547.979" x2="-192.428" y2="959.681" gradientUnits="userSpaceOnUse">
<stop stop-color="#69BBD2"/>
<stop offset="1" stop-color="#3A6C97"/>
</linearGradient>
<clipPath id="clip0_3016_16752">
<rect width="1949.25" height="803.25" fill="white" transform="translate(-1002)"/>
</clipPath>
</defs>
</svg>
