<svg width="16" height="16" viewBox="0 0 16 16" fill="none" xmlns="http://www.w3.org/2000/svg">
    <path
        d="M6.65603 4.08946C6.07774 4.08946 5.60894 3.62172 5.60894 3.04473C5.60894 2.46774 6.07774 2 6.65603 2C7.23433 2 7.70312 2.46774 7.70312 3.04473C7.70312 3.62172 7.23433 4.08946 6.65603 4.08946Z"
        stroke="#003459" stroke-width="0.5" stroke-linecap="round" stroke-linejoin="round" />
    <path
        d="M8.64709 10.3664L10.9647 12.9383C11.3346 13.361 11.8085 13.2417 12.041 13.0107C12.2837 12.7691 12.2475 12.3834 11.9752 12.0562L9.42264 9.05165C9.69624 8.60791 9.74314 8.06084 9.54853 7.57717L9.06346 6.37067L9.85999 6.55014C10.0863 6.62547 10.2467 6.82594 10.2706 7.06263L10.3928 8.28148C10.4245 8.5972 10.6981 8.83307 11.0157 8.81866C11.3592 8.80302 11.6189 8.50253 11.5839 8.16128L11.416 6.51762C11.3531 5.91376 10.9639 5.61738 10.5849 5.49225L8.48046 4.82581C8.26075 4.75624 8.032 4.71014 7.80118 4.71302C7.15853 4.72043 6.58006 5.01434 6.24968 5.5437L5.91066 6.20108C5.74855 6.51557 5.47454 6.75843 5.1421 6.88151L4.19457 7.23346C3.86337 7.35654 3.67782 7.70766 3.76298 8.04973C3.86296 8.45066 4.29003 8.67541 4.67842 8.53175L5.97566 8.05137C6.3299 7.92006 6.71665 7.67432 6.89192 7.13261"
        stroke="#003459" stroke-width="0.5" stroke-linecap="round" stroke-linejoin="round" />
    <path
        d="M6.7019 6.64062L7.63215 9.01452C7.67823 9.11537 7.67411 9.23186 7.62063 9.32942L5.5536 12.8617C5.35446 13.2235 5.34418 13.6746 5.69595 13.8924C6.07159 14.125 6.53486 13.9611 6.75251 13.5771L9.42188 9.04951"
        stroke="#003459" stroke-width="0.5" stroke-linecap="round" stroke-linejoin="round" />
    <path d="M9.06641 6.36898L8.10324 6.14258" stroke="#003459" stroke-width="0.5" stroke-linecap="round"
        stroke-linejoin="round" />
</svg>