<svg width="18" height="16" viewBox="0 0 18 16" fill="none" xmlns="http://www.w3.org/2000/svg">
    <path
        d="M10.4561 7.77939V6.02139C11.3677 5.99048 13.2002 6.34552 13.9396 7.03626C14.2223 7.30029 14.0293 7.77552 13.6431 7.77037C12.571 7.75535 10.4561 7.77939 10.4561 7.77939Z"
        stroke="#003459" stroke-width="0.5" stroke-linecap="round" />
    <path
        d="M15.4375 6.60961C12.8386 5.02076 11.5311 4.99715 10.5905 5.00016C9.67896 5.00316 7.79221 5.31526 5.16136 6.89724C1.35838 7.47251 1 8.32854 1 9.24296V10.0822C1 10.5343 1.36564 10.9005 1.81629 10.9005H16.4063C16.7488 10.8443 17 10.5476 17 10.1994V9.36016C17 7.9499 16.1457 6.97408 15.4375 6.60918V6.60961Z"
        stroke="#003459" stroke-width="0.5" stroke-linecap="round" />
    <path
        d="M10.4609 7.77328V6.02344C9.07866 6.02344 7.62034 6.63477 6.7246 7.34655C6.5563 7.48049 6.64685 7.77328 6.85488 7.77328H10.4609Z"
        stroke="#003459" stroke-width="0.5" stroke-linecap="round" />
    <path d="M3.22266 8.33594H1.3359" stroke="#003459" stroke-width="0.5" stroke-linecap="round" />
    <path
        d="M14.2262 11.9868C13.4925 11.9868 12.8978 11.3907 12.8978 10.6555C12.8978 9.92025 13.4925 9.32422 14.2262 9.32422C14.9599 9.32422 15.5547 9.92025 15.5547 10.6555C15.5547 11.3907 14.9599 11.9868 14.2262 11.9868Z"
        fill="#003459" stroke="#003459" stroke-width="0.5" stroke-linecap="round" />
    <path
        d="M4.62076 11.9868C3.88708 11.9868 3.29231 11.3907 3.29231 10.6555C3.29231 9.92025 3.88708 9.32422 4.62076 9.32422C5.35445 9.32422 5.94922 9.92025 5.94922 10.6555C5.94922 11.3907 5.35445 11.9868 4.62076 11.9868Z"
        fill="#003459" stroke="#003459" stroke-width="0.5" stroke-linecap="round" />
</svg>