<svg width="18" height="16" viewBox="0 0 18 16" fill="none" xmlns="http://www.w3.org/2000/svg">
    <path d="M11.7722 11.6393H5.43934V10.5996H12.1836" stroke="#003459" stroke-width="0.5" stroke-linecap="round" />
    <path d="M4.36003 11.641H5.44141V6.11719H2.53525L1.06822 8.02111V11.641H2.36432" stroke="#003459" stroke-width="0.5"
        stroke-linecap="round" />
    <path
        d="M2.56428 8.57184H4.19108C4.26452 8.57184 4.32422 8.51234 4.32422 8.43914V7.09168C4.32422 7.01848 4.26452 6.95898 4.19108 6.95898H3.15393C3.1127 6.95898 3.07363 6.97824 3.04829 7.01078L2.45864 7.77611C2.4406 7.79922 2.43116 7.8279 2.43116 7.85701V8.43914C2.43116 8.51234 2.49085 8.57184 2.56428 8.57184Z"
        stroke="#003459" stroke-width="0.5" stroke-linecap="round" />
    <path
        d="M17.0664 10.6028V4.54862C17.0664 4.24899 16.8225 4.00586 16.5218 4.00586H5.98417C5.68355 4.00586 5.43961 4.24899 5.43961 4.54862V10.6028"
        stroke="#003459" stroke-width="0.5" stroke-linecap="round" />
    <path
        d="M15.5354 12.7254C14.9832 12.7254 14.5356 12.2792 14.5356 11.7289C14.5356 11.1786 14.9832 10.7324 15.5354 10.7324C16.0875 10.7324 16.5352 11.1786 16.5352 11.7289C16.5352 12.2792 16.0875 12.7254 15.5354 12.7254Z"
        stroke="#003459" stroke-width="0.5" stroke-linecap="round" />
    <path
        d="M13.5354 12.7254C12.9832 12.7254 12.5356 12.2792 12.5356 11.7289C12.5356 11.1786 12.9832 10.7324 13.5354 10.7324C14.0875 10.7324 14.5352 11.1786 14.5352 11.7289C14.5352 12.2792 14.0875 12.7254 13.5354 12.7254Z"
        stroke="#003459" stroke-width="0.5" stroke-linecap="round" />
    <path
        d="M3.35959 12.7254C2.80742 12.7254 2.3598 12.2792 2.3598 11.7289C2.3598 11.1786 2.80742 10.7324 3.35959 10.7324C3.91176 10.7324 4.35938 11.1786 4.35938 11.7289C4.35938 12.2792 3.91176 12.7254 3.35959 12.7254Z"
        stroke="#003459" stroke-width="0.5" stroke-linecap="round" />
</svg>