<svg width="44" height="44" viewBox="0 0 44 44" fill="none" xmlns="http://www.w3.org/2000/svg">
<rect x="0.5" y="0.5" width="43" height="43" rx="21.5" stroke="#F2F4F5"/>
<path d="M23.5 14.95V19.3H27.4C27.7 19.3 27.85 19.6 27.85 19.9L27.25 22.75C27.25 22.9 26.95 23.05 26.8 23.05H23.5V34H19V23.2H16.45C16.15 23.2 16 23.05 16 22.75V19.9C16 19.6 16.15 19.45 16.45 19.45H19V14.5C19 11.95 20.95 10 23.5 10H27.55C27.85 10 28 10.15 28 10.45V14.05C28 14.35 27.85 14.5 27.55 14.5H23.95C23.65 14.5 23.5 14.65 23.5 14.95V14.95Z" stroke="#F2F4F5" stroke-width="1.10769" stroke-miterlimit="10" stroke-linecap="round"/>
</svg>
