<svg width="20" height="20" viewBox="0 0 20 20" fill="none" xmlns="http://www.w3.org/2000/svg">
<path d="M16.9621 6.96186C16.9621 12.8913 12.3573 13.5112 10.6108 19.5546C10.5238 19.8558 10.2622 20.0031 9.9993 19.9989C9.73665 20.0031 9.47511 19.8561 9.38774 19.5546C8.7956 17.5053 7.87481 16.0797 6.91602 14.8591L11.9105 8.87307C12.0281 8.7552 12.1329 8.62928 12.2239 8.49698L16.1808 3.75488C16.6798 4.71479 16.9618 5.80532 16.9618 6.96186H16.9621Z" fill="#34A853"/>
<path d="M11.9096 8.87313L6.91514 14.8591C5.69092 13.2999 4.40486 12.0757 3.66406 10.314L7.7849 5.41016C7.04355 6.46463 7.14423 7.93042 8.08694 8.87313C9.14225 9.92871 10.854 9.92871 11.9093 8.87313H11.9096Z" fill="#FBBC04"/>
<path d="M12.224 8.49732C12.9529 7.44396 12.8483 5.98871 11.9103 5.05072C10.855 3.99513 9.1432 3.99513 8.08789 5.05072L12.0695 0.3125C13.8548 0.867751 15.332 2.1222 16.1806 3.75522L12.2237 8.49732H12.224Z" fill="#4285F4"/>
<path d="M12.0681 0.313126L8.08647 5.05134L8.08564 5.05218C8.02712 5.1107 7.9722 5.17088 7.92089 5.23301L4.65234 2.50085C5.92953 0.972383 7.84989 0 9.99768 0C10.7188 0 11.4141 0.109553 12.0681 0.312849V0.313126Z" fill="#1A73E8"/>
<path d="M7.92288 5.23188C7.87462 5.28901 7.82941 5.34809 7.78725 5.40855L7.78642 5.40994L3.66558 10.3137C3.27591 9.38739 3.03711 8.31211 3.03711 6.9617C3.03711 5.26378 3.6445 3.70813 4.65433 2.5L7.92288 5.23216V5.23188Z" fill="#EA4335"/>
</svg>
