<svg width="25" height="33" viewBox="0 0 25 33" fill="none" xmlns="http://www.w3.org/2000/svg">
<path d="M12.3289 4.16504C7.99239 4.16504 4.46484 7.66649 4.46484 11.9697C4.46484 16.2729 7.99297 19.7743 12.3289 19.7743C16.6649 19.7743 20.1936 16.2729 20.1936 11.9697C20.1936 7.66649 16.6655 4.16504 12.3289 4.16504ZM19.0003 11.4161H16.7449C16.7099 10.5065 16.5866 9.6462 16.3927 8.85547C16.9365 8.70997 17.4476 8.532 17.926 8.32852C18.5236 9.22997 18.905 10.2827 18.9997 11.4161H19.0003ZM17.9792 15.5297C17.4926 15.3192 16.9716 15.1355 16.4167 14.9859C16.5931 14.2369 16.707 13.4282 16.7432 12.5755H18.9962C18.8975 13.6555 18.537 14.6607 17.9792 15.5297ZM5.6623 12.5755H7.75757C7.79437 13.445 7.91178 14.2688 8.09461 15.03C7.59518 15.1714 7.12204 15.3384 6.67985 15.5297C6.12201 14.6607 5.76161 13.6549 5.66289 12.5755H5.6623ZM6.73184 8.32852C7.16585 8.51345 7.62965 8.6746 8.11798 8.81199C7.91762 9.61489 7.79086 10.4903 7.75523 11.4161H5.65763C5.75226 10.2827 6.13428 9.22997 6.73126 8.32852H6.73184ZM12.9055 9.35055C13.7233 9.32388 14.4996 9.2404 15.2496 9.10533C15.426 9.81837 15.5393 10.5992 15.5755 11.4161H12.9055V9.35055ZM12.9055 8.19113V5.45953C13.7233 5.79287 14.4149 6.7204 14.9014 7.99055C14.2624 8.09896 13.6064 8.16736 12.9055 8.19113ZM11.7372 5.40678V8.19113C10.9779 8.16446 10.2868 8.08736 9.6075 7.96504C10.1227 6.63286 10.861 5.68272 11.7372 5.40736V5.40678ZM11.7372 9.34997V11.4161H8.92524C8.96145 10.5888 9.07653 9.79925 9.25702 9.07867C10.0473 9.22939 10.861 9.32098 11.7372 9.34997ZM8.92699 12.5755H11.7372V14.4856C10.861 14.5152 10.0298 14.6079 9.23307 14.7616C9.0701 14.0833 8.96437 13.3465 8.92757 12.5755H8.92699ZM11.7372 15.6445V18.5326C10.861 18.2503 10.0859 17.2601 9.57011 15.8769C10.26 15.7505 10.9779 15.6711 11.7372 15.6445ZM12.9055 18.4798V15.6439C13.6064 15.6688 14.2881 15.739 14.9382 15.8508C14.4505 17.1708 13.7233 18.1384 12.9055 18.4798ZM12.9055 14.485V12.5755H15.5732C15.537 13.3361 15.4324 14.0636 15.2729 14.7343C14.5165 14.5969 13.7233 14.5123 12.9055 14.485ZM17.1696 7.38475C16.818 7.5204 16.4482 7.64156 16.0592 7.74475C15.8086 7.06012 15.4978 6.45258 15.1392 5.93953C15.9056 6.29258 16.5931 6.78533 17.1702 7.38475H17.1696ZM9.28214 6.0549C8.96379 6.532 8.68633 7.0862 8.45735 7.70301C8.12031 7.6091 7.7967 7.50301 7.48887 7.38475C8.00524 6.84794 8.61098 6.39693 9.28214 6.0549ZM7.41585 16.4787C7.7342 16.3529 8.07124 16.241 8.42172 16.1419C8.65712 16.7975 8.9486 17.383 9.28331 17.885C8.58002 17.5268 7.94799 17.0497 7.41585 16.4787ZM15.138 18.0004C15.5136 17.4636 15.8366 16.823 16.0925 16.0995C16.4961 16.2079 16.8793 16.3355 17.242 16.4792C16.6509 17.1134 15.9365 17.6329 15.1374 18.001L15.138 18.0004Z" fill="#003459" stroke="white" stroke-width="0.266667"/>
<path d="M7.64648 21.9307H16.9922C17.271 21.9307 17.4971 22.1554 17.4971 22.4307V28.459C17.4971 28.7342 17.271 28.959 16.9922 28.959H7.64648C7.36772 28.9589 7.14258 28.7342 7.14258 28.459V22.4307C7.14258 22.1555 7.36772 21.9307 7.64648 21.9307ZM8.15039 27.96H16.4883V25.9443H14.1211L14.1035 26C13.8505 26.7695 13.1209 27.3271 12.2627 27.3271C11.4045 27.327 10.6757 26.7681 10.4229 25.999L10.4043 25.9443H8.15039V27.96ZM12.2627 24.4834C11.7514 24.4836 11.334 24.8962 11.334 25.4053C11.334 25.9143 11.752 26.328 12.2627 26.3281C12.7736 26.3281 13.1914 25.9143 13.1914 25.4053C13.1914 24.8968 12.7742 24.4834 12.2627 24.4834ZM8.15039 24.9453H10.3838L10.4004 24.8867C10.6292 24.0794 11.3766 23.4845 12.2627 23.4844C13.149 23.4844 13.8972 24.0787 14.126 24.8867L14.1426 24.9453H16.4883V22.9297H8.15039V24.9453Z" fill="#003459" stroke="white" stroke-width="0.16"/>
<path d="M21.6107 0.0537109H0.639399C0.316961 0.0537109 0.0546875 0.313421 0.0546875 0.633421V31.474C0.0546875 31.794 0.316961 32.0537 0.639399 32.0537H21.6107C23.2253 32.0537 24.588 30.7082 24.588 29.1157V2.91284C24.588 1.33603 23.2527 0.0537109 21.6107 0.0537109ZM23.4198 29.1157C23.4198 30.063 22.5751 30.8943 21.6107 30.8943H1.22294V1.21313H21.6107C22.5915 1.21313 23.4198 1.99168 23.4198 2.91284V29.1157Z" fill="#003459" stroke="white" stroke-width="0.106667"/>
</svg>
