<svg width="33" height="32" viewBox="0 0 33 32" fill="none" xmlns="http://www.w3.org/2000/svg">
<rect x="0.5" width="32" height="32" rx="6.66667" fill="white"/>
<circle cx="16.5" cy="16" r="7" transform="rotate(-180 16.5 16)" fill="white" stroke="#003459" stroke-width="2"/>
<mask id="path-3-inside-1_3106_3222" fill="white">
<ellipse cx="26.5" cy="6" rx="2" ry="2" transform="rotate(-180 26.5 6)"/>
</mask>
<ellipse cx="26.5" cy="6" rx="2" ry="2" transform="rotate(-180 26.5 6)" fill="#007EA7"/>
<path d="M24.5 6L26.5 6L26.5 6L26.5 4L26.5 2C24.2909 2 22.5 3.79086 22.5 6L24.5 6ZM26.5 4L26.5 6L26.5 6L28.5 6L30.5 6C30.5 3.79086 28.7091 2 26.5 2L26.5 4ZM28.5 6L26.5 6L26.5 6L26.5 8L26.5 10C28.7091 10 30.5 8.20914 30.5 6L28.5 6ZM26.5 8L26.5 6L26.5 6L24.5 6L22.5 6C22.5 8.20914 24.2909 10 26.5 10L26.5 8Z" fill="#003459" mask="url(#path-3-inside-1_3106_3222)"/>
</svg>
