<svg width="26" height="26" viewBox="0 0 26 26" fill="none" xmlns="http://www.w3.org/2000/svg">
<path d="M25.1016 9.28516C25.2204 9.28516 25.3398 9.30951 25.4512 9.3584C25.5626 9.40729 25.6669 9.48121 25.7549 9.57812C25.8369 9.66835 25.8984 9.7724 25.9395 9.88184C25.9805 9.99162 26.001 10.1071 26.001 10.2227C26.001 10.3466 25.9775 10.4707 25.9307 10.5869C25.8838 10.7031 25.8126 10.8116 25.7197 10.9033L23.1299 13.4639L25.7197 16.0244L25.7861 16.0967C25.8472 16.1712 25.8956 16.2539 25.9307 16.3408C25.9775 16.457 26.001 16.5811 26.001 16.7051C26.001 16.8206 25.9805 16.9361 25.9395 17.0459C25.8984 17.1556 25.8366 17.2594 25.7549 17.3496C25.6669 17.4462 25.5626 17.5204 25.4512 17.5693C25.3398 17.6182 25.2204 17.6426 25.1016 17.6426C24.991 17.6425 24.8805 17.6208 24.7754 17.5781C24.6701 17.5353 24.57 17.4702 24.4834 17.3848L21.8223 14.7549L19.1611 17.3848C19.0746 17.4704 18.9754 17.5353 18.8701 17.5781C18.7648 17.621 18.6538 17.6426 18.543 17.6426C18.4243 17.6426 18.3056 17.6181 18.1943 17.5693C18.083 17.5205 17.9786 17.4465 17.8906 17.3496C17.8085 17.2593 17.7462 17.1558 17.7051 17.0459C17.6641 16.9362 17.6446 16.8205 17.6445 16.7051C17.6445 16.5812 17.6671 16.4569 17.7139 16.3408C17.7607 16.2246 17.8319 16.1161 17.9248 16.0244L20.5156 13.4639L17.9248 10.9033C17.8319 10.8116 17.7607 10.7031 17.7139 10.5869C17.667 10.4708 17.6445 10.3466 17.6445 10.2227C17.6445 10.1072 17.6641 9.99158 17.7051 9.88184C17.7462 9.772 17.8088 9.66842 17.8906 9.57812C17.9786 9.4812 18.0829 9.40729 18.1943 9.3584C18.3056 9.30964 18.4243 9.28516 18.543 9.28516C18.6538 9.28516 18.7648 9.30676 18.8701 9.34961C18.9753 9.39244 19.0747 9.45671 19.1611 9.54199L21.8223 12.1729L24.4834 9.54199C24.57 9.45629 24.6703 9.39246 24.7754 9.34961C24.8805 9.30688 24.9909 9.28521 25.1016 9.28516Z" fill="#5CD6FF"/>
<path d="M11.7324 1.85938C11.9178 1.85968 12.0966 1.90189 12.2588 1.97949C12.4208 2.05735 12.5679 2.17096 12.6895 2.31738C12.7705 2.415 12.8404 2.52816 12.8926 2.65234C12.9622 2.8176 13.0003 3.0042 13 3.19238V22.8125C13.0003 22.9184 12.9878 23.0239 12.9648 23.125C12.9419 23.2262 12.9086 23.3239 12.8652 23.4141C12.7785 23.5945 12.6558 23.7459 12.5137 23.8623C12.4191 23.9401 12.3145 24.0023 12.2041 24.0488C12.057 24.1106 11.8974 24.1455 11.7324 24.1455C11.5939 24.1455 11.4512 24.1209 11.3135 24.0693C11.1757 24.018 11.0437 23.9384 10.9277 23.8369L5.56152 19.1523H2.02148C1.81367 19.1523 1.61044 19.1181 1.41992 19.0557C1.22965 18.9933 1.05147 18.9026 0.890625 18.7881C0.568301 18.5589 0.313133 18.2355 0.15918 17.8525C0.0565474 17.5973 0 17.3151 0 17.0234V8.98047C0 8.76172 0.0315966 8.54821 0.0908203 8.34766C0.150045 8.14716 0.236911 7.95953 0.345703 7.79004C0.563442 7.45063 0.870626 7.18162 1.23438 7.01953C1.47674 6.91152 1.74455 6.85156 2.02148 6.85156H5.56152L10.9277 2.16699L11.0176 2.09473C11.1101 2.02758 11.2102 1.97403 11.3135 1.93555C11.451 1.88392 11.5938 1.85938 11.7324 1.85938ZM6.11914 8.48047H2.02051C1.9698 8.48048 1.92282 8.48861 1.87891 8.50293C1.83504 8.51725 1.79379 8.53831 1.75586 8.56543C1.67988 8.61946 1.61845 8.69747 1.58301 8.78613C1.55951 8.8455 1.5459 8.90917 1.5459 8.98047V17.0244C1.54593 17.0776 1.55384 17.1267 1.56738 17.1729C1.58099 17.2191 1.60117 17.2627 1.62695 17.3027C1.67818 17.3826 1.75192 17.447 1.83594 17.4844C1.89225 17.5091 1.9529 17.5234 2.02051 17.5234H6.12012L11.4531 22.1797V3.82227L6.11914 8.48047Z" fill="#5CD6FF"/>
<path d="M5.06641 7.66797V18.3392H6.61298V7.66797" fill="#5CD6FF"/>
</svg>
