<svg width="75" height="14" viewBox="0 0 75 14" fill="none" xmlns="http://www.w3.org/2000/svg">
<g clip-path="url(#clip0_3106_1740)">
<path d="M27.4335 0C27.0387 0 26.7046 0.134261 26.4334 0.40495C26.1601 0.675638 26.0234 1.00913 26.0234 1.40758C26.0234 1.80603 26.1601 2.12653 26.4334 2.39938C26.7068 2.67224 27.0408 2.80866 27.4335 2.80866C27.8261 2.80866 28.1602 2.67224 28.4314 2.39938C28.7026 2.12653 28.837 1.79737 28.837 1.40758C28.837 1.01779 28.7026 0.673473 28.4314 0.40495C28.1602 0.134261 27.8283 0 27.4335 0Z" fill="white"/>
<path d="M28.5816 3.70508H26.2734V11.555H28.5816V3.70508Z" fill="white"/>
<path d="M36.1206 3.95463C35.7409 3.71209 35.2875 3.59082 34.7626 3.59082C34.3287 3.59082 33.923 3.66445 33.5434 3.81387C33.1638 3.96112 32.8384 4.182 32.5694 4.47435C32.4935 4.55664 32.424 4.64326 32.3633 4.73637H32.3242V3.70776H30.0898V11.5577H32.398V6.94736C32.398 6.63119 32.4566 6.367 32.5759 6.15695C32.6952 5.94473 32.8579 5.78448 33.0618 5.6762C33.2657 5.56576 33.4957 5.51162 33.7495 5.51162C34.1335 5.51162 34.4393 5.62856 34.6628 5.8646C34.8862 6.10064 34.999 6.45362 34.999 6.9257V11.5577H37.3072V6.42114C37.3072 5.86677 37.2052 5.37736 37.0013 4.95509C36.7974 4.53282 36.5045 4.19933 36.1249 3.95679" fill="white"/>
<path d="M43.0504 7.45999L46.2806 3.6985H43.5559L41.0135 6.79301V0.320312H38.7031V11.5571H41.0135V8.20059L43.7229 11.5571H46.4476L43.0504 7.45999Z" fill="white"/>
<path d="M3.65748 2.89547C3.87658 2.80669 4.13473 2.76338 4.42325 2.76338C4.92653 2.76338 5.37992 2.89764 5.7704 3.15966C6.16088 3.42386 6.45807 3.79416 6.65548 4.25974L6.71188 4.394L8.8465 3.46717L8.79877 3.3394C8.58401 2.75905 8.25861 2.25665 7.83343 1.84304C7.41041 1.43159 6.90062 1.10893 6.31924 0.883717C5.74003 0.658505 5.10008 0.545898 4.42108 0.545898C3.65097 0.545898 2.95679 0.684491 2.35805 0.95951C1.75498 1.23669 1.2799 1.62865 0.943655 2.12455C0.605241 2.62262 0.436034 3.20731 0.436034 3.86345C0.436034 4.61055 0.67249 5.26021 1.14106 5.79509C1.60313 6.32347 2.29731 6.73492 3.19975 7.01643L5.37341 7.7029C5.68363 7.80035 5.9114 7.92811 6.05241 8.08403C6.18691 8.23561 6.25416 8.41102 6.25416 8.62324C6.25416 8.8203 6.19992 8.98704 6.09146 9.1278C5.97865 9.27289 5.81812 9.39199 5.61421 9.47645C5.40595 9.56307 5.1478 9.60854 4.85061 9.60854C4.28658 9.60854 3.76594 9.4483 3.30171 9.13213C2.83314 8.81597 2.46218 8.37204 2.19752 7.81767L2.13678 7.69207L0 8.61241L0.0455558 8.74018C0.268996 9.36601 0.613918 9.91821 1.06948 10.3795C1.52286 10.8386 2.06953 11.198 2.69647 11.4492C3.32123 11.6983 3.99806 11.8239 4.70743 11.8239C5.50791 11.8239 6.22162 11.6831 6.82903 11.4037C7.44078 11.1222 7.92671 10.7259 8.27814 10.2257C8.63174 9.72115 8.80962 9.13863 8.80962 8.49114C8.80962 7.74404 8.57533 7.10089 8.1111 6.579C7.65337 6.06577 6.95919 5.66299 6.04373 5.37931L3.91563 4.72316C3.60541 4.62571 3.37113 4.49362 3.22144 4.32904C3.0761 4.16879 3.00668 3.98905 3.00668 3.77683C3.00668 3.57761 3.06091 3.40653 3.17155 3.25495C3.28435 3.1012 3.44705 2.98209 3.65965 2.89547" fill="white"/>
<path d="M19.1488 2.27091C18.6455 1.77284 18.0554 1.38305 17.3851 1.1037C16.7126 0.824352 15.9859 0.683594 15.2006 0.683594C14.4153 0.683594 13.7016 0.824352 13.0269 1.1037C12.3523 1.38305 11.7622 1.77284 11.2546 2.27091C10.7491 2.76898 10.3522 3.3515 10.068 4.01414C9.7838 4.67895 9.64062 5.3979 9.64062 6.17099C9.64062 6.94407 9.7838 7.65869 10.068 8.32783C10.3522 8.99697 10.7491 9.58166 11.2589 10.0819C11.7687 10.5821 12.3588 10.9719 13.0334 11.2534C13.7081 11.5328 14.4327 11.6735 15.2071 11.6735C15.8449 11.6735 16.4458 11.5783 17.012 11.392C17.8559 11.9919 18.8863 12.347 19.9991 12.347C20.0404 12.347 20.0816 12.347 20.1228 12.3448V10.0299C20.0816 10.0299 20.0404 10.0321 19.9991 10.0321C18.4286 10.0321 17.153 8.7566 17.153 7.18878V6.76434H14.8362V7.18878C14.8362 8.01383 15.0314 8.79342 15.3785 9.48421C15.3134 9.48854 15.2505 9.49071 15.1854 9.49071C14.7429 9.49071 14.3285 9.40625 13.9467 9.23518C13.5649 9.06411 13.2287 8.83023 12.9423 8.53139C12.656 8.23255 12.4304 7.88174 12.2698 7.47679C12.1093 7.074 12.029 6.63874 12.029 6.17099C12.029 5.70324 12.1093 5.26148 12.2698 4.86086C12.4304 4.46024 12.656 4.10943 12.9445 3.81059C13.233 3.51175 13.5714 3.28004 13.9532 3.11329C14.335 2.94871 14.745 2.86426 15.1832 2.86426C15.6214 2.86426 16.0401 2.94655 16.4241 3.11329C16.8081 3.27787 17.1443 3.51175 17.4328 3.81059C17.7192 4.10943 17.9448 4.46024 18.1075 4.86086C18.2702 5.26148 18.3526 5.69891 18.3526 6.17099C18.3526 6.64307 18.2724 7.06534 18.1118 7.47029C18.0901 7.52443 18.0663 7.57424 18.0424 7.62621C18.2442 8.47292 18.9427 9.04245 19.8256 9.25467C20.0187 8.96666 20.1835 8.65915 20.3224 8.33C20.6022 7.66302 20.7432 6.94407 20.7432 6.17099C20.7432 5.3979 20.6022 4.68545 20.3224 4.01847C20.0425 3.3515 19.6499 2.76898 19.1466 2.27091" fill="white"/>
<path d="M24.7496 0.320312H22.4414V11.555H24.7496V0.320312Z" fill="white"/>
<path d="M51.522 10.2212C51.9515 9.7881 52.1663 9.18175 52.1663 8.40217C52.1663 7.62259 51.9493 7.00325 51.5155 6.56149C51.0816 6.11973 50.459 5.89885 49.6477 5.89885H48.5023V10.8708H49.6477C50.4655 10.8708 51.0903 10.6543 51.5198 10.2212M51.4439 5.613C51.9493 5.87069 52.3377 6.23883 52.6067 6.71524C52.8756 7.19382 53.0101 7.75469 53.0101 8.40217C53.0101 9.04966 52.8756 9.61052 52.6067 10.0848C52.3377 10.559 51.9493 10.9228 51.4439 11.174C50.9384 11.4252 50.3397 11.5508 49.6477 11.5508H47.6758V5.22754H49.6477C50.3397 5.22754 50.9363 5.35747 51.4439 5.613Z" fill="white"/>
<path d="M54.9319 11.5509H54.1054V6.57888H54.9319V11.5509ZM54.1314 5.60873C54.023 5.50046 53.9688 5.3662 53.9688 5.21028C53.9688 5.05436 54.023 4.9201 54.1314 4.81183C54.2399 4.70355 54.3744 4.64941 54.5306 4.64941C54.6868 4.64941 54.8104 4.70355 54.9167 4.81183C55.023 4.9201 55.0751 5.05436 55.0751 5.21028C55.0751 5.3662 55.023 5.50046 54.9167 5.60873C54.8104 5.71701 54.6825 5.77331 54.5306 5.77331C54.3788 5.77331 54.2399 5.71917 54.1314 5.60873Z" fill="white"/>
<path d="M60.0185 8.07517C59.8666 7.79582 59.6627 7.5836 59.4046 7.43635C59.1464 7.28909 58.8644 7.2133 58.5542 7.2133C58.244 7.2133 57.9641 7.28693 57.7081 7.43202C57.4543 7.57711 57.2504 7.78933 57.0986 8.06651C56.9467 8.34586 56.8708 8.67069 56.8708 9.04749C56.8708 9.42428 56.9467 9.75994 57.0986 10.0415C57.2504 10.323 57.4522 10.5374 57.7081 10.6846C57.9619 10.8319 58.244 10.9077 58.5542 10.9077C58.8644 10.9077 59.1464 10.834 59.4046 10.6846C59.6627 10.5374 59.8666 10.3208 60.0185 10.0415C60.1703 9.75994 60.2462 9.43295 60.2462 9.05615C60.2462 8.67935 60.1703 8.35452 60.0185 8.07734M59.5239 6.77803C59.8471 6.96643 60.0879 7.20247 60.2462 7.48616V6.57881H61.0814V11.6591C61.0814 12.1117 60.9838 12.5166 60.7907 12.8696C60.5977 13.2226 60.32 13.4998 59.9599 13.699C59.5998 13.8982 59.1789 13.9978 58.7017 13.9978C58.0466 13.9978 57.5021 13.8441 57.066 13.5344C56.63 13.2269 56.3718 12.8046 56.2937 12.2741H57.1116C57.2027 12.5773 57.3914 12.8198 57.6756 13.0039C57.9598 13.1879 58.3025 13.2811 58.7017 13.2811C59.1551 13.2811 59.526 13.1381 59.8145 12.8544C60.1031 12.5708 60.2462 12.1701 60.2462 11.6569V10.6131C60.0814 10.9033 59.8406 11.1459 59.5195 11.3386C59.1985 11.5313 58.8232 11.6288 58.3936 11.6288C57.9641 11.6288 57.5498 11.5205 57.1897 11.3018C56.8296 11.0831 56.5454 10.7799 56.3393 10.3858C56.1332 9.99381 56.0312 9.54555 56.0312 9.04315C56.0312 8.54076 56.1332 8.08817 56.3393 7.70487C56.5454 7.32158 56.8274 7.02274 57.1897 6.81052C57.5498 6.5983 57.9511 6.49219 58.3936 6.49219C58.8362 6.49219 59.2006 6.5853 59.526 6.7737" fill="white"/>
<path d="M63.3108 11.5509H62.4843V6.57888H63.3108V11.5509ZM62.5104 5.60873C62.4019 5.50046 62.3477 5.3662 62.3477 5.21028C62.3477 5.05436 62.4019 4.9201 62.5104 4.81183C62.6188 4.70355 62.7533 4.64941 62.9095 4.64941C63.0657 4.64941 63.1894 4.70355 63.2956 4.81183C63.4019 4.9201 63.454 5.05436 63.454 5.21028C63.454 5.3662 63.4019 5.50046 63.2956 5.60873C63.1894 5.71701 63.0614 5.77331 62.9095 5.77331C62.7577 5.77331 62.6188 5.71917 62.5104 5.60873Z" fill="white"/>
<path d="M65.7308 7.25878V10.1887C65.7308 10.4312 65.7828 10.6023 65.8848 10.7019C65.9868 10.8015 66.1668 10.8514 66.4206 10.8514H67.0302V11.5508H66.284C65.8241 11.5508 65.477 11.4447 65.247 11.2325C65.0171 11.0203 64.9021 10.6738 64.9021 10.1887V7.25878H64.2578V6.57881H64.9021V5.32715H65.7286V6.57881H67.028V7.25878H65.7286H65.7308Z" fill="white"/>
<path d="M71.7103 8.07475C71.5584 7.79756 71.3545 7.58318 71.0964 7.43592C70.8382 7.28867 70.5562 7.21288 70.246 7.21288C69.9358 7.21288 69.656 7.2865 69.4 7.43159C69.1462 7.57668 68.9422 7.7889 68.7904 8.06609C68.6385 8.34544 68.5626 8.67026 68.5626 9.04706C68.5626 9.42386 68.6385 9.75951 68.7904 10.041C68.9422 10.3225 69.144 10.5369 69.4 10.6842C69.6538 10.8314 69.9358 10.9072 70.246 10.9072C70.5562 10.9072 70.8382 10.8336 71.0964 10.6842C71.3545 10.5369 71.5584 10.3204 71.7103 10.041C71.8622 9.75951 71.9381 9.43252 71.9381 9.05572C71.9381 8.67892 71.8622 8.3541 71.7103 8.07475ZM68.029 7.70878C68.235 7.32548 68.5171 7.02664 68.8793 6.81442C69.2394 6.6022 69.6408 6.49609 70.0833 6.49609C70.5259 6.49609 70.899 6.58921 71.22 6.77761C71.5411 6.96384 71.7797 7.20205 71.9381 7.48573V6.57838H72.7733V11.5504H71.9381V10.6257C71.7732 10.9159 71.5302 11.1563 71.207 11.3468C70.8838 11.5374 70.5063 11.6327 70.0746 11.6327C69.6429 11.6327 69.2329 11.5244 68.875 11.3057C68.5171 11.087 68.235 10.7816 68.029 10.3897C67.8229 9.99555 67.7188 9.54946 67.7188 9.04706C67.7188 8.54466 67.8229 8.09207 68.029 7.70878Z" fill="white"/>
<path d="M75.0023 4.83789H74.1758V11.551H75.0023V4.83789Z" fill="white"/>
</g>
<defs>
<clipPath id="clip0_3106_1740">
<rect width="75" height="14" fill="white"/>
</clipPath>
</defs>
</svg>
