<svg width="26" height="26" viewBox="0 0 26 26" fill="none" xmlns="http://www.w3.org/2000/svg">
<path d="M20.748 4.04004C21.1207 3.62739 21.7493 3.60343 22.1514 3.98535C23.3329 5.10744 24.2948 6.4706 24.9619 7.99902C25.6289 9.52713 26 11.2227 26 13C25.9999 14.7774 25.629 16.4728 24.9619 18.001C24.8784 18.1918 24.7896 18.3797 24.6973 18.5654C24.6282 18.7046 24.5568 18.8435 24.4824 18.9795C24.4575 19.0249 24.4324 19.0703 24.4072 19.1152C23.8001 20.196 23.0374 21.1732 22.1514 22.0146C21.749 22.3965 21.1204 22.3713 20.748 21.959C20.3758 21.5466 20.4004 20.9024 20.8027 20.5205C21.7903 19.5825 22.5936 18.443 23.1494 17.1689C23.7052 15.8947 24.0146 14.4865 24.0146 13C24.0144 11.5133 23.7053 10.1045 23.1494 8.83008C23.08 8.67101 23.0068 8.5132 22.9297 8.3584C22.8527 8.20387 22.7717 8.05136 22.6875 7.90137C22.6454 7.82633 22.6017 7.75163 22.5576 7.67773C22.0731 6.86443 21.4818 6.12337 20.8027 5.47852C20.4004 5.09634 20.3757 4.45241 20.748 4.04004ZM17.8926 6.9707C18.2558 6.55026 18.8827 6.51132 19.293 6.88379C20.116 7.63137 20.7877 8.55075 21.2539 9.58887C21.7203 10.6266 21.9804 11.7846 21.9805 12.999C21.9805 14.2136 21.7201 15.3723 21.2539 16.4102C21.1666 16.6045 21.0721 16.7949 20.9707 16.9805C20.5309 17.7861 19.9615 18.507 19.293 19.1143C18.8826 19.487 18.2561 19.4482 17.8926 19.0273C17.5291 18.6065 17.5664 17.9637 17.9766 17.5908C18.5962 17.0282 19.1018 16.3366 19.4512 15.5586C19.8006 14.7802 19.9951 13.9157 19.9951 12.999C19.9948 12.0823 19.8005 11.2189 19.4512 10.4404C19.3965 10.3189 19.3376 10.1993 19.2754 10.082C18.9404 9.4492 18.4991 8.88284 17.9766 8.4082C17.5662 8.03538 17.5291 7.39158 17.8926 6.9707Z" fill="#5CD6FF"/>
<path d="M11.7324 1.85742C11.9181 1.85742 12.0966 1.89995 12.2588 1.97754C12.4208 2.05539 12.5679 2.16902 12.6895 2.31543C12.7705 2.41304 12.8404 2.52621 12.8926 2.65039C12.9622 2.81565 13.0003 3.00225 13 3.19043V22.8105C13 22.9164 12.9878 23.0219 12.9648 23.123C12.9419 23.2242 12.9086 23.322 12.8652 23.4121C12.7785 23.5925 12.6558 23.744 12.5137 23.8604C12.4191 23.9382 12.3146 24.0003 12.2041 24.0469C12.057 24.1087 11.8974 24.1436 11.7324 24.1436C11.5939 24.1436 11.4512 24.119 11.3135 24.0674C11.1757 24.016 11.0437 23.9365 10.9277 23.835L5.5625 19.1504H2.02148C1.81378 19.1504 1.61133 19.116 1.4209 19.0537C1.23041 18.9913 1.05164 18.9007 0.890625 18.7861C0.56828 18.5569 0.313131 18.2336 0.15918 17.8506C0.056547 17.5954 0 17.3131 0 17.0215V8.97852C0 8.76001 0.0315655 8.546 0.0908203 8.3457C0.150073 8.14522 0.236888 7.95755 0.345703 7.78809C0.563439 7.44873 0.870664 7.17965 1.23438 7.01758C1.47669 6.90962 1.74463 6.85059 2.02148 6.85059H5.5625L10.9277 2.16504L11.0176 2.09375C11.1101 2.02635 11.2101 1.97211 11.3135 1.93359C11.451 1.88196 11.5938 1.85743 11.7324 1.85742ZM6.12012 8.47852H2.02051C1.97007 8.47856 1.92359 8.48677 1.87988 8.50098C1.83594 8.51531 1.79385 8.53631 1.75586 8.56348C1.67997 8.6175 1.61842 8.6956 1.58301 8.78418C1.55955 8.8435 1.54688 8.90729 1.54688 8.97852V17.0215C1.54689 17.0747 1.55387 17.1238 1.56738 17.1699C1.58096 17.2161 1.60125 17.2599 1.62695 17.2998C1.67827 17.3798 1.75271 17.4441 1.83691 17.4814C1.89331 17.5062 1.95375 17.5205 2.02148 17.5205H6.12012L11.4531 22.1768V3.82129L6.12012 8.47852Z" fill="#5CD6FF"/>
<path d="M5.06787 7.66504V18.3361H6.61445V7.66504" fill="#5CD6FF"/>
</svg>
