<svg width="20" height="20" viewBox="0 0 20 20" fill="none" xmlns="http://www.w3.org/2000/svg">
<path d="M13.1017 19.0023C14.3347 19.0023 15.3342 18.0032 15.3342 16.7707C15.3342 15.5382 14.3347 14.5391 13.1017 14.5391C11.8687 14.5391 10.8691 15.5382 10.8691 16.7707C10.8691 18.0032 11.8687 19.0023 13.1017 19.0023Z" fill="#003459"/>
<path d="M3.1742 9.46898C3.18167 9.90294 3.18731 10.3358 3.08869 10.7536C3.05085 10.914 2.99998 11.0716 2.93287 11.2223C2.76768 11.5935 2.49371 11.9091 2.11548 12.0717C1.88492 12.1708 1.63274 12.21 1.38281 12.21C1.38281 12.21 2.44857 17.1696 10.915 16.8777C15.1746 16.8639 18.6229 13.3963 18.6189 9.12233C18.6168 6.92359 17.6639 4.79357 16.0201 3.33145C14.3127 1.81275 11.9599 1.11284 9.70084 1.47798C8.21719 1.71782 6.80125 2.38519 5.68715 3.39575C4.79058 4.20898 4.08726 5.2362 3.66693 6.37119C3.40147 7.08794 3.24972 7.84338 3.18696 8.60421C3.16335 8.89021 3.16917 9.17986 3.1742 9.46898Z" fill="white"/>
<path d="M9.12216 8.06638C8.64549 8.07046 8.24825 7.68746 8.24417 7.22095C8.24009 6.75652 8.61493 6.37352 9.07936 6.36536C9.57435 6.3572 9.97367 6.7422 9.96959 7.22095C9.96551 7.68338 9.58459 8.0623 9.12216 8.06638Z" fill="#003459"/>
<path d="M14.5968 8.06638C14.1201 8.07046 13.7229 7.68746 13.7188 7.22095C13.7147 6.75652 14.0895 6.37352 14.554 6.36536C15.049 6.3572 15.4483 6.7422 15.4442 7.22095C15.4401 7.68338 15.0592 8.0623 14.5968 8.06638Z" fill="#003459"/>
<path d="M3.1742 9.46898C3.18167 9.90294 3.18731 10.3358 3.08869 10.7536C3.05085 10.914 2.99998 11.0716 2.93287 11.2223C2.76768 11.5935 2.49371 11.9091 2.11548 12.0717C1.88492 12.1708 1.63274 12.21 1.38281 12.21C1.38281 12.21 2.44857 17.1696 10.915 16.8777C15.1746 16.8639 18.6229 13.3963 18.6189 9.12233C18.6168 6.92359 17.6639 4.79357 16.0201 3.33145C14.3127 1.81275 11.9599 1.11284 9.70084 1.47798C8.21719 1.71782 6.80125 2.38519 5.68715 3.39575C4.79058 4.20898 4.08726 5.2362 3.66693 6.37119C3.40147 7.08794 3.24972 7.84338 3.18696 8.60421C3.16335 8.89021 3.16917 9.17986 3.1742 9.46898Z" stroke="#003459" stroke-width="1.125" stroke-linecap="round" stroke-linejoin="round"/>
<path d="M6.81068 19.0023C8.04368 19.0023 9.04323 18.0032 9.04323 16.7707C9.04323 15.5382 8.04368 14.5391 6.81068 14.5391C5.57767 14.5391 4.57812 15.5382 4.57812 16.7707C4.57812 18.0032 5.57767 19.0023 6.81068 19.0023Z" fill="#003459"/>
<path d="M14.7175 10.3555C14.7175 10.3555 13.8376 12.2709 11.8138 12.2367C9.79005 12.2709 8.91016 10.3555 8.91016 10.3555" stroke="#003459" stroke-width="0.763918" stroke-linecap="round" stroke-linejoin="round"/>
</svg>
