<svg width="44" height="44" viewBox="0 0 44 44" fill="none" xmlns="http://www.w3.org/2000/svg">
<rect x="0.5" y="0.5" width="43" height="43" rx="21.5" stroke="#F2F4F5"/>
<path d="M33.4976 15.5871C33.368 15.0346 33.1041 14.5283 32.7325 14.1194C32.3609 13.7106 31.8949 13.4136 31.3813 13.2585C29.5051 12.7695 22 12.7695 22 12.7695C22 12.7695 14.4949 12.7695 12.6187 13.3051C12.1051 13.4602 11.6391 13.7571 11.2675 14.166C10.8959 14.5749 10.632 15.0811 10.5024 15.6337C10.159 17.666 9.99106 19.7277 10.0006 21.7928C9.98838 23.8735 10.1564 25.9509 10.5024 27.9985C10.6453 28.5339 10.9151 29.0209 11.2858 29.4125C11.6565 29.8041 12.1156 30.087 12.6187 30.234C14.4949 30.7695 22 30.7695 22 30.7695C22 30.7695 29.5051 30.7695 31.3813 30.234C31.8949 30.0789 32.3609 29.7819 32.7325 29.3731C33.1041 28.9642 33.368 28.4579 33.4976 27.9054C33.8383 25.8883 34.0063 23.8424 33.9994 21.7928C34.0116 19.7122 33.8436 17.6348 33.4976 15.5871Z" stroke="#F2F4F5" stroke-width="1.10769" stroke-linecap="round" stroke-linejoin="round"/>
<path d="M19.2305 24.7689L24.7689 21.9997L19.2305 19.2305V24.7689Z" fill="#F2F4F5"/>
</svg>
