<svg width="33" height="32" viewBox="0 0 33 32" fill="none" xmlns="http://www.w3.org/2000/svg">
<g clip-path="url(#clip0_3106_3226)">
<path d="M30.5567 8.55967C30.3983 7.92689 30.0758 7.3471 29.6216 6.87888C29.1674 6.41066 28.5977 6.07059 27.97 5.89301C25.6767 5.33301 16.5034 5.33301 16.5034 5.33301C16.5034 5.33301 7.33003 5.33301 5.0367 5.94634C4.40903 6.12392 3.83934 6.464 3.38516 6.93222C2.93099 7.40044 2.60842 7.98022 2.45003 8.61301C2.03032 10.9404 1.82501 13.3014 1.8367 15.6663C1.82174 18.0491 2.02706 20.4281 2.45003 22.773C2.62465 23.3861 2.95444 23.9439 3.40756 24.3923C3.86067 24.8408 4.42179 25.1648 5.0367 25.333C7.33003 25.9463 16.5034 25.9463 16.5034 25.9463C16.5034 25.9463 25.6767 25.9463 27.97 25.333C28.5977 25.1554 29.1674 24.8154 29.6216 24.3471C30.0758 23.8789 30.3983 23.2991 30.5567 22.6663C30.9732 20.3565 31.1785 18.0135 31.17 15.6663C31.185 13.2836 30.9797 10.9046 30.5567 8.55967Z" fill="white" stroke="white" stroke-width="4.22222" stroke-linecap="round" stroke-linejoin="round"/>
<path d="M13.5 20.0276L21.1667 15.6676L13.5 11.3076V20.0276Z" fill="#003459" stroke="#003459" stroke-width="2.11111" stroke-linecap="round" stroke-linejoin="round"/>
</g>
<defs>
<clipPath id="clip0_3106_3226">
<rect width="32" height="32" fill="white" transform="translate(0.5)"/>
</clipPath>
</defs>
</svg>
