<svg width="24" height="24" viewBox="0 0 24 24" fill="none" xmlns="http://www.w3.org/2000/svg">
<path d="M6.9834 0.904297C8.37129 0.904297 9.50469 2.01877 9.50488 3.40234C9.50488 4.78609 8.37141 5.90137 6.9834 5.90137H6.8877V5.88672C5.5438 5.83675 4.4629 4.74527 4.46289 3.39355C4.46289 2.00937 5.59591 0.90435 6.9834 0.904297ZM6.9834 1.95801C6.17502 1.95806 5.52344 2.60419 5.52344 3.39355C5.52345 4.18291 6.17503 4.82905 6.9834 4.8291C7.79182 4.8291 8.44335 4.18294 8.44336 3.39355C8.44336 2.60416 7.79182 1.95801 6.9834 1.95801Z" fill="#003459" stroke="#003459" stroke-width="0.192"/>
<path d="M8.00293 6.26465C8.6876 6.02939 9.62855 6.25924 10.0986 7.27832C10.3725 7.87297 10.7097 8.56017 10.9795 9.09863C11.1142 9.36757 11.2324 9.59907 11.3164 9.76367C11.3584 9.84598 11.392 9.91214 11.415 9.95703C11.4264 9.97916 11.4354 9.99617 11.4414 10.0078C11.4444 10.0136 11.4467 10.0185 11.4482 10.0215C11.4489 10.0228 11.4498 10.0237 11.4502 10.0244V10.0254L11.4512 10.0264L11.4521 10.0283C11.7665 10.6847 12.457 11.1113 13.0859 11.1113H16.1738V12.1738H13.0859C12.0437 12.1738 11.0889 11.5403 10.6602 10.5674C10.5326 10.3482 9.66975 8.89526 9.13672 7.72559C9.02525 7.48067 8.88464 7.34894 8.74902 7.28711C8.61306 7.22526 8.47172 7.22846 8.35059 7.27148L8.34961 7.27246C8.07796 7.3656 7.83045 7.68315 7.92188 8.2373L7.94531 8.35156V8.35352L9.20605 14.2969L9.24512 14.4102C9.34383 14.6653 9.48877 14.8554 9.66699 14.9971C9.87167 15.1598 10.1263 15.2628 10.4189 15.3203C11.0067 15.4358 11.7295 15.3674 12.4658 15.2666C12.5245 15.2568 13.4017 15.1646 14.2686 15.0732C14.7036 15.0274 15.1384 14.9818 15.4707 14.9463C15.6369 14.9285 15.7779 14.9136 15.8799 14.9023C15.9308 14.8967 15.972 14.8912 16.002 14.8877C16.0169 14.8859 16.0292 14.8849 16.0381 14.8838C16.0422 14.8833 16.0454 14.8822 16.0479 14.8818C16.0503 14.8815 16.0518 14.8818 16.0518 14.8818L16.0537 14.8809C16.5688 14.8014 17.088 15.0594 17.3086 15.5312L17.3096 15.5332C17.4851 15.9221 17.9227 17.0558 18.3154 18.0879C18.5122 18.605 18.6983 19.0982 18.835 19.4619C18.9033 19.6437 18.9601 19.7934 18.999 19.8975C19.0184 19.9493 19.0336 19.99 19.0439 20.0176L19.0586 20.0566L19.0596 20.0596C19.0951 20.1546 19.2139 20.2166 19.333 20.1768L19.335 20.1758L21.4766 19.5342L21.5693 19.5059L21.5967 19.5986L21.8438 20.4326L21.8711 20.5254L21.7783 20.5527H21.7764C21.7752 20.5531 21.7736 20.5541 21.7715 20.5547C21.767 20.556 21.7605 20.558 21.752 20.5605C21.7346 20.5657 21.7083 20.5725 21.6758 20.582C21.6108 20.6011 21.518 20.6285 21.4062 20.6611C21.1822 20.7265 20.882 20.8142 20.5781 20.9014C20.2743 20.9885 19.9661 21.0751 19.7266 21.1406C19.6069 21.1733 19.5039 21.2014 19.4268 21.2207C19.3883 21.2303 19.3555 21.2377 19.3301 21.2432C19.3122 21.247 19.2898 21.2497 19.2715 21.251V21.2529H19.2627V21.252C18.7432 21.2484 18.2619 20.9342 18.0742 20.4395V20.4385L18.0732 20.4365C18.0726 20.4347 18.0716 20.4313 18.0703 20.4277C18.0677 20.4207 18.0636 20.41 18.0586 20.3965C18.0483 20.3691 18.0329 20.3287 18.0137 20.2773C17.975 20.1741 17.9193 20.0258 17.8516 19.8457C17.7161 19.4853 17.5322 18.9973 17.3379 18.4863C16.9497 17.4658 16.5229 16.3586 16.3584 15.9912L16.3408 15.9688C16.3174 15.9467 16.2765 15.9288 16.2236 15.9336L16.2227 15.9326C16.0989 15.9511 15.2423 16.0441 14.4004 16.1328C13.531 16.2244 12.6647 16.3146 12.6084 16.3193L12.6074 16.3184C12.015 16.396 11.0855 16.5226 10.2207 16.3535C9.34645 16.1825 8.52731 15.7075 8.18945 14.582L8.18555 14.5684V14.5283L6.91699 8.58789C6.62197 7.3662 7.27038 6.52029 8.00293 6.26562V6.26465Z" fill="#003459" stroke="#003459" stroke-width="0.192"/>
<path d="M6.43262 12.4492C6.66801 12.2807 7.00286 12.3375 7.1709 12.5732C7.33868 12.8089 7.28305 13.1432 7.04785 13.3115V13.3125C5.73756 14.2389 4.95613 15.759 4.95605 17.3604C4.95605 20.0954 7.17378 22.3174 9.90234 22.3174C12.6308 22.3173 14.8477 20.0953 14.8477 17.3604V17.3496L14.9443 17.3604L14.8486 17.3496C14.8685 17.1807 14.9222 17.0477 15.0176 16.958C15.114 16.8675 15.2393 16.834 15.374 16.834C15.6651 16.834 15.9003 17.0692 15.9004 17.3604C15.9004 20.6718 13.2137 23.37 9.91113 23.3799V23.3809H9.89258V23.3799C6.59031 23.3697 3.9043 20.6717 3.9043 17.3604C3.90437 15.2278 4.85337 13.5758 6.43262 12.4492Z" fill="#003459" stroke="#003459" stroke-width="0.192"/>
</svg>
