<svg width="24" height="24" viewBox="0 0 24 24" fill="none" xmlns="http://www.w3.org/2000/svg">
<path d="M5.8623 0.293945C7.30796 0.294173 8.48828 1.45523 8.48828 2.89648C8.48822 4.33769 7.30792 5.4988 5.8623 5.49902H5.76172V5.48438C4.36199 5.43215 3.23633 4.29465 3.23633 2.88672C3.23638 1.44487 4.41699 0.293945 5.8623 0.293945ZM5.8623 1.3916C5.02023 1.3916 4.34185 2.06448 4.3418 2.88672C4.3418 3.70901 5.02019 4.38184 5.8623 4.38184C6.70422 4.38161 7.38184 3.70887 7.38184 2.88672C7.38178 2.06461 6.70419 1.39183 5.8623 1.3916Z" fill="white" stroke="white" stroke-width="0.2"/>
<path d="M7.06152 5.83789C7.75852 5.6662 8.64739 5.93853 9.10645 6.93359L9.56738 7.90332C9.72621 8.22971 9.88486 8.54862 10.0254 8.8291C10.1658 9.10938 10.2885 9.35099 10.376 9.52246C10.4197 9.6082 10.4545 9.67688 10.4785 9.72363C10.4905 9.74693 10.4996 9.76521 10.5059 9.77734C10.5089 9.78332 10.5121 9.78796 10.5137 9.79102C10.5143 9.79214 10.5143 9.79326 10.5146 9.79395L10.5156 9.79492L10.5166 9.79785C10.8441 10.4816 11.5636 10.9258 12.2188 10.9258H15.4355V12.0332H12.2188C11.1294 12.0332 10.1309 11.3689 9.68652 10.3496V10.3486C9.53428 10.0879 8.65282 8.60045 8.10547 7.39941C7.98929 7.14417 7.8425 7.00674 7.70117 6.94238C7.55947 6.87792 7.41236 6.88187 7.28613 6.92676H7.28516C7.00214 7.02379 6.74446 7.35517 6.83984 7.93262L6.86426 8.05078V8.05371L8.17773 14.2441L8.21875 14.3623C8.32153 14.6279 8.47174 14.8261 8.65723 14.9736C8.87041 15.1431 9.13562 15.2496 9.44043 15.3096C9.90037 15.4 10.4398 15.383 11.0049 15.3242L11.5762 15.2539C11.6596 15.2415 12.5607 15.1466 13.4512 15.0527C13.9043 15.005 14.3571 14.9579 14.7031 14.9209C14.8761 14.9024 15.0227 14.8868 15.1289 14.875C15.182 14.8691 15.2256 14.864 15.2568 14.8604C15.2723 14.8585 15.2848 14.8566 15.2939 14.8555C15.2984 14.8549 15.302 14.8549 15.3047 14.8545C15.3072 14.8541 15.3086 14.8535 15.3086 14.8535H15.3105C15.8139 14.7759 16.3208 15.0068 16.5713 15.4414L16.6182 15.5303V15.5322C16.8009 15.9372 17.2578 17.1181 17.667 18.1934C17.8719 18.7319 18.0656 19.2452 18.208 19.624C18.2792 19.8135 18.3373 19.9697 18.3779 20.0781C18.3981 20.1321 18.414 20.1743 18.4248 20.2031C18.4302 20.2175 18.4347 20.2289 18.4375 20.2363C18.4388 20.2397 18.4397 20.2423 18.4404 20.2441L18.4414 20.2471C18.4784 20.3459 18.6016 20.4104 18.7256 20.3691L18.7285 20.3682L20.959 19.6992L21.0557 19.6709L21.084 19.7666L21.3408 20.6357L21.3701 20.7324L21.2734 20.7607H21.2715C21.2703 20.7611 21.2688 20.7621 21.2666 20.7627C21.262 20.7641 21.255 20.7659 21.2461 20.7686C21.228 20.7739 21.2009 20.7821 21.167 20.792C21.0992 20.8118 21.0023 20.84 20.8857 20.874C20.6523 20.9421 20.3399 21.0332 20.0234 21.124C19.707 21.2148 19.3862 21.3058 19.1367 21.374C19.0122 21.4081 18.9046 21.4359 18.8242 21.4561C18.7843 21.466 18.7501 21.4748 18.7236 21.4805C18.7049 21.4845 18.6812 21.487 18.6621 21.4883V21.4902H18.6523V21.4893C18.1454 21.4855 17.6741 21.1977 17.4561 20.7373L17.415 20.6426V20.6416L17.4141 20.6396C17.4134 20.6378 17.4125 20.6345 17.4111 20.6309C17.4084 20.6235 17.4037 20.6128 17.3984 20.5986C17.3878 20.5701 17.3726 20.5281 17.3525 20.4746C17.3123 20.3671 17.2542 20.2121 17.1836 20.0244C17.0425 19.6491 16.8509 19.1406 16.6484 18.6084C16.2429 17.542 15.7961 16.3849 15.626 16.0059H15.625C15.6072 15.9751 15.5576 15.9428 15.4873 15.9492L15.4863 15.9482C15.3572 15.9675 14.4657 16.0649 13.5889 16.1572C12.6988 16.251 11.8115 16.3418 11.7256 16.3496C11.1087 16.4305 10.1377 16.5633 9.23438 16.3867C8.3237 16.2086 7.47108 15.7134 7.11914 14.541L7.11426 14.5273V14.4805L5.79199 8.29785L5.74609 8.06445C5.56951 6.91746 6.20915 6.12657 6.9248 5.87793L7.06152 5.83789Z" fill="white" stroke="white" stroke-width="0.2"/>
<path d="M5.28809 12.3193C5.53323 12.1439 5.88157 12.2028 6.05664 12.4482C6.23159 12.6937 6.17378 13.0423 5.92871 13.2178V13.2188C4.56381 14.1838 3.75 15.7675 3.75 17.4355C3.75009 20.2845 6.06015 22.5986 8.90234 22.5986C11.7444 22.5984 14.0536 20.2843 14.0537 17.4355V17.4238L14.1543 17.4355L14.0547 17.4238C14.0753 17.2481 14.1313 17.11 14.2305 17.0166C14.3308 16.9223 14.4613 16.8868 14.6016 16.8867C14.9048 16.8867 15.1504 17.1322 15.1504 17.4355C15.1503 20.885 12.3513 23.6949 8.91113 23.7051V23.7061H8.89258V23.7051C5.45251 23.6948 2.65439 20.8849 2.6543 17.4355C2.6543 15.2139 3.64289 13.4929 5.28809 12.3193Z" fill="white" stroke="white" stroke-width="0.2"/>
</svg>
