<svg width="24" height="24" viewBox="0 0 24 24" fill="none" xmlns="http://www.w3.org/2000/svg">
<path d="M20.7926 20.1997C20.7926 20.1997 20.7908 20.1997 20.7899 20.2001C20.7895 20.2001 20.7891 20.201 20.7891 20.201C20.7891 20.201 20.7891 20.201 20.7899 20.201C20.7904 20.201 20.7913 20.2001 20.7926 20.1992V20.1997Z" fill="#003459"/>
<path d="M18.7619 13.951C18.6541 13.8393 18.5409 13.7402 18.4233 13.655C18.3056 13.5698 18.183 13.4976 18.0568 13.4397C17.9306 13.3819 17.8008 13.3379 17.6678 13.3083C17.5349 13.2787 17.3993 13.2639 17.2618 13.2639C17.1244 13.2639 16.9901 13.2787 16.8572 13.3074C16.7242 13.3366 16.5935 13.3796 16.466 13.437C16.3384 13.4944 16.214 13.5657 16.0932 13.6505C15.9724 13.7353 15.8556 13.8339 15.7438 13.946L15.393 14.295L15.0423 14.6439L14.6915 14.9928L14.3408 15.3417C14.312 15.326 14.2828 15.3107 14.2541 15.2959C14.2253 15.2807 14.1966 15.2659 14.1678 15.2515C14.1391 15.2372 14.1108 15.2224 14.0825 15.208C14.0542 15.1937 14.0264 15.1793 13.9985 15.165C13.9585 15.1448 13.919 15.1255 13.8804 15.1058C13.8418 15.0861 13.8041 15.0668 13.7668 15.0475C13.7299 15.0282 13.694 15.0085 13.659 14.9892C13.6244 14.9695 13.5907 14.9502 13.5584 14.93C13.2301 14.7219 12.909 14.4977 12.5946 14.2568C12.2802 14.016 11.9716 13.7581 11.6689 13.4823C11.3662 13.2065 11.0685 12.9132 10.7747 12.6006C10.481 12.2881 10.1918 11.9571 9.90568 11.6055C9.7669 11.4306 9.6398 11.2624 9.52258 11.0992C9.40536 10.9359 9.29847 10.7781 9.20011 10.6233C9.10175 10.4686 9.01283 10.317 8.93109 10.1664C8.84935 10.0157 8.77524 9.86722 8.70787 9.71743C8.79905 9.63447 8.88797 9.5506 8.976 9.46584C9.06403 9.38153 9.15071 9.29677 9.23604 9.21201C9.32137 9.12725 9.40581 9.04249 9.48934 8.95818C9.57288 8.87387 9.65552 8.79 9.73771 8.70659C9.7687 8.67564 9.80014 8.64425 9.83113 8.61286C9.86212 8.58146 9.8931 8.55007 9.92454 8.51823C9.95553 8.48684 9.98652 8.45499 10.018 8.4236C10.0489 8.39221 10.0799 8.36082 10.1114 8.32987C10.3445 8.09712 10.5192 7.84732 10.6355 7.589C10.7518 7.33068 10.8102 7.0634 10.8102 6.79656C10.8102 6.52972 10.7518 6.26243 10.6355 6.00411C10.5192 5.74579 10.3445 5.49555 10.1114 5.26324L9.80822 4.96053L9.50506 4.65781L9.20191 4.35509L8.89875 4.05282C8.86462 4.01829 8.82959 3.98376 8.795 3.94923C8.76042 3.91425 8.72539 3.87927 8.69081 3.84429C8.65623 3.80931 8.62164 3.77388 8.58751 3.73845C8.55338 3.70302 8.51969 3.66759 8.48601 3.63216C8.41954 3.56355 8.35217 3.49403 8.2839 3.42497C8.21564 3.3559 8.14692 3.28594 8.07731 3.21688C8.00769 3.14781 7.93718 3.07875 7.86622 3.01013C7.79526 2.94197 7.72385 2.87425 7.65154 2.80788C7.54375 2.70159 7.43102 2.60741 7.3138 2.52669C7.19658 2.44551 7.07487 2.37735 6.94956 2.32263C6.82426 2.26792 6.69581 2.22621 6.56467 2.19841C6.43353 2.1706 6.29969 2.15625 6.1645 2.15625C6.02932 2.15625 5.89503 2.17015 5.76254 2.19841C5.6305 2.22621 5.50025 2.26792 5.37315 2.32263C5.24605 2.37735 5.12209 2.44551 5.00218 2.52669C4.88226 2.60786 4.76639 2.70159 4.65545 2.80788L4.65321 2.81012L4.65096 2.81236L4.64872 2.8146L4.64647 2.81684L4.26921 3.19715L3.89195 3.57745L3.51469 3.95775L3.13743 4.33805C2.9955 4.47977 2.86885 4.62956 2.75747 4.78652C2.64609 4.94348 2.54998 5.10852 2.46958 5.28028C2.38919 5.4525 2.32407 5.63188 2.27511 5.818C2.22571 6.00456 2.19248 6.1983 2.17451 6.39877C2.14801 6.72211 2.15161 7.04052 2.17721 7.34772C2.2028 7.65493 2.24951 7.95181 2.3088 8.23255C2.36808 8.5133 2.43994 8.77834 2.51539 9.02276C2.59085 9.26717 2.66944 9.49006 2.74265 9.68739C2.9223 10.1717 3.1244 10.6471 3.35121 11.1176C3.57801 11.5884 3.82997 12.0544 4.10932 12.5199C4.38868 12.9854 4.69588 13.4509 5.03272 13.92C5.37001 14.3891 5.73739 14.8618 6.138 15.343C6.62395 15.9224 7.1346 16.4714 7.66906 16.9894C8.20351 17.5069 8.76177 17.9935 9.34248 18.4478C9.9232 18.9021 10.5268 19.3241 11.1524 19.7134C11.7781 20.1026 12.4252 20.4587 13.0931 20.7812C13.3482 20.9018 13.6249 21.0283 13.9199 21.1511C14.215 21.274 14.5285 21.3942 14.8581 21.5018C15.1873 21.6095 15.5323 21.7055 15.8902 21.7803C16.2482 21.8552 16.6187 21.9091 16.9991 21.9337C17.0225 21.9351 17.0463 21.936 17.0696 21.9369C17.0934 21.9378 17.1172 21.9387 17.1406 21.9396C17.1639 21.9405 17.1877 21.9409 17.2106 21.9413C17.2335 21.9418 17.2564 21.9422 17.2789 21.9422C17.5353 21.9422 17.7815 21.9194 18.0168 21.8732C18.2521 21.8274 18.4772 21.7584 18.6909 21.6669C18.9047 21.5754 19.1077 21.4606 19.2995 21.3234C19.4913 21.1861 19.6714 21.026 19.8402 20.843C19.8411 20.8408 19.8425 20.839 19.8443 20.8372C19.8456 20.8354 19.8474 20.8336 19.8492 20.8323C19.851 20.8305 19.8524 20.8291 19.8542 20.8274C19.856 20.8256 19.8573 20.8238 19.8582 20.8215C19.9157 20.7516 19.9759 20.6834 20.0374 20.6166C20.0994 20.5493 20.1627 20.4834 20.2278 20.4175C20.293 20.3515 20.3599 20.2861 20.4277 20.2197C20.4955 20.1538 20.5647 20.0869 20.6347 20.0197C20.6823 19.9744 20.7304 19.9282 20.7785 19.8815C20.8265 19.8349 20.875 19.7878 20.9231 19.7403C20.9711 19.6927 21.0196 19.6443 21.0677 19.5959C21.1157 19.547 21.1638 19.4976 21.2114 19.4479C21.3214 19.334 21.418 19.2151 21.5015 19.0922C21.5851 18.9698 21.6551 18.8433 21.7113 18.7142C21.7674 18.585 21.8101 18.4532 21.8388 18.3195C21.8671 18.1859 21.8819 18.0504 21.8819 17.9141C21.8819 17.7778 21.8671 17.6405 21.8384 17.5069C21.8092 17.3732 21.7661 17.2418 21.7086 17.114C21.6511 16.9862 21.5797 16.8615 21.4948 16.7409C21.4099 16.6207 21.3111 16.5046 21.1988 16.3938L20.5898 15.7834L19.9808 15.1731L19.3718 14.5627L18.7628 13.9523L18.7619 13.951ZM20.3509 18.6177C20.3078 18.6644 20.2642 18.7097 20.2202 18.7545C20.1762 18.7994 20.1317 18.8438 20.0868 18.8882C20.0419 18.9326 19.9965 18.977 19.9503 19.0218C19.904 19.0667 19.8573 19.112 19.8092 19.1586C19.7369 19.2272 19.6646 19.2967 19.5923 19.3676C19.52 19.4384 19.4477 19.5102 19.3758 19.5837C19.304 19.6573 19.2326 19.7322 19.1621 19.8089C19.0916 19.8856 19.0215 19.9645 18.9528 20.0452C18.8405 20.165 18.7237 20.269 18.6002 20.3574C18.4767 20.4457 18.3469 20.5188 18.2099 20.5771C18.0725 20.6354 17.9279 20.6785 17.7738 20.7072C17.6198 20.7359 17.4572 20.7498 17.2838 20.7498C17.2672 20.7498 17.2502 20.7498 17.2331 20.7498C17.216 20.7498 17.199 20.7498 17.1814 20.7493C17.1644 20.7493 17.1469 20.7489 17.1298 20.748C17.1127 20.7475 17.0957 20.7466 17.079 20.7453C16.7494 20.7242 16.4256 20.6762 16.1112 20.6094C15.7968 20.5426 15.4914 20.4565 15.1981 20.3596C14.9053 20.2627 14.6246 20.1546 14.3601 20.0434C14.0955 19.9322 13.8467 19.8178 13.6168 19.708C12.9889 19.4044 12.3799 19.0689 11.7911 18.7025C11.2023 18.3361 10.6337 17.9383 10.0862 17.5105C9.53875 17.0826 9.01283 16.6243 8.50891 16.1364C8.005 15.6484 7.52354 15.1309 7.06499 14.5847C6.68683 14.129 6.33966 13.6823 6.02123 13.2402C5.70325 12.798 5.41357 12.3598 5.15084 11.9226C4.88765 11.4853 4.65141 11.048 4.43853 10.6076C4.22565 10.1668 4.03702 9.72282 3.86949 9.27076C3.7662 8.99495 3.67952 8.73439 3.6081 8.48594C3.53714 8.23749 3.48145 8.00114 3.44103 7.77422C3.40061 7.54729 3.37501 7.32889 3.36378 7.11721C3.35255 6.90509 3.3557 6.69969 3.37232 6.49698C3.38354 6.36737 3.4042 6.24315 3.43474 6.1243C3.46528 6.00546 3.50615 5.89155 3.5569 5.78212C3.60766 5.67269 3.66874 5.56865 3.7397 5.46864C3.81111 5.36863 3.8924 5.27266 3.98447 5.18072L4.36308 4.80266L4.74169 4.42461L5.1203 4.04655L5.4989 3.66849C5.55325 3.61736 5.60849 3.57251 5.66418 3.5335C5.71987 3.49448 5.77601 3.46129 5.83305 3.43483C5.88964 3.40838 5.94668 3.38819 6.00327 3.37429C6.06031 3.36084 6.11689 3.35366 6.17348 3.35366C6.24355 3.35366 6.31002 3.36398 6.37289 3.38236C6.43577 3.4003 6.49461 3.42587 6.5494 3.45591C6.60419 3.48596 6.65449 3.52004 6.69985 3.55592C6.74521 3.5918 6.78609 3.62857 6.82157 3.664L6.82471 3.66714L6.82785 3.67028L6.831 3.67342L6.83414 3.67656C6.90196 3.73979 6.96888 3.80348 7.03535 3.86806C7.10182 3.93263 7.16784 3.99766 7.23386 4.06359C7.29988 4.12951 7.3659 4.19633 7.43237 4.26405C7.49884 4.33177 7.56576 4.40039 7.63358 4.47035C7.66816 4.50578 7.70274 4.54121 7.73777 4.57664C7.7728 4.61207 7.80784 4.64794 7.84287 4.68337C7.8779 4.71925 7.91338 4.75513 7.94886 4.791C7.98434 4.82688 8.01982 4.86321 8.0553 4.89998L8.35846 5.20225L8.66117 5.50497L8.96432 5.80768L9.26748 6.1104C9.38515 6.2279 9.47318 6.34315 9.53201 6.45707C9.59085 6.57098 9.62004 6.68444 9.62004 6.79745C9.62004 6.91047 9.59085 7.02348 9.53201 7.13784C9.47318 7.25175 9.38515 7.36701 9.26748 7.48451C9.23514 7.5168 9.20325 7.54864 9.17182 7.58093C9.13993 7.61322 9.10849 7.64506 9.0766 7.6769C9.04516 7.70874 9.01328 7.74058 8.98139 7.77198C8.9495 7.80337 8.91761 7.83476 8.88573 7.86571C8.79231 7.96078 8.70024 8.05451 8.60862 8.1469C8.517 8.23928 8.42538 8.32987 8.33376 8.41957C8.24214 8.50926 8.14962 8.59806 8.0562 8.68596C7.96278 8.77386 7.86802 8.86086 7.77191 8.94697C7.76966 8.94921 7.76741 8.951 7.76517 8.95279C7.76292 8.95459 7.76113 8.95638 7.75888 8.95773C7.75708 8.95952 7.75529 8.96087 7.75349 8.96266C7.7517 8.96445 7.75035 8.96625 7.74945 8.96849C7.65424 9.06401 7.58687 9.15864 7.54106 9.25103C7.49525 9.34341 7.47099 9.43355 7.46111 9.51966C7.45123 9.60577 7.45572 9.68784 7.4674 9.76408C7.47953 9.84032 7.49884 9.91117 7.5186 9.97441L7.52219 9.98427L7.52534 9.99414L7.52893 10.004L7.53252 10.0139C7.61112 10.2045 7.69825 10.3924 7.79436 10.5803C7.89092 10.7682 7.99691 10.9561 8.11414 11.1472C8.23136 11.3382 8.36025 11.5319 8.50128 11.7315C8.6423 11.9311 8.7968 12.1365 8.96567 12.3504L8.96657 12.3513L8.96747 12.3522L8.96836 12.3531L8.96926 12.354C9.27556 12.7307 9.58591 13.0868 9.90164 13.4227C10.2174 13.7586 10.538 14.0752 10.865 14.3721C11.192 14.6694 11.5252 14.9475 11.8661 15.2076C12.2065 15.4677 12.5546 15.7099 12.9107 15.935C12.9561 15.9637 13.0019 15.9911 13.0477 16.0175C13.0935 16.044 13.1394 16.0691 13.1852 16.0933C13.231 16.1175 13.2763 16.1413 13.3217 16.1642C13.3671 16.187 13.412 16.2095 13.4564 16.2319C13.4964 16.2521 13.5359 16.2714 13.5745 16.2911C13.6132 16.3108 13.6509 16.3301 13.6882 16.3494C13.725 16.3687 13.7609 16.388 13.7955 16.4077C13.8301 16.4274 13.8638 16.4467 13.8961 16.4669C13.9006 16.4691 13.9051 16.4718 13.9096 16.4741C13.9141 16.4768 13.9186 16.4794 13.9231 16.4821C13.9276 16.4848 13.9321 16.4875 13.9365 16.4902C13.941 16.4929 13.9455 16.4951 13.95 16.4974C13.9877 16.5162 14.025 16.5324 14.0618 16.5463C14.0987 16.5602 14.1351 16.5718 14.1714 16.5808C14.2078 16.5898 14.2437 16.5969 14.2801 16.6014C14.3165 16.6059 14.3529 16.6082 14.3893 16.6082C14.4813 16.6082 14.5649 16.5938 14.6394 16.5709C14.714 16.5481 14.78 16.5171 14.8366 16.4835C14.8932 16.4498 14.9408 16.414 14.9785 16.3821C15.0167 16.3498 15.045 16.3216 15.0638 16.3028L15.4433 15.9238L15.8229 15.5448L16.2024 15.1659L16.5819 14.7869C16.6196 14.7493 16.6627 14.7098 16.7112 14.6712C16.7593 14.6331 16.8123 14.5963 16.8689 14.564C16.9259 14.5317 16.9865 14.5044 17.0507 14.4851C17.115 14.4658 17.1823 14.4542 17.2524 14.4542C17.3225 14.4542 17.3871 14.4649 17.4491 14.4833C17.5111 14.5017 17.5695 14.5282 17.6238 14.5591C17.6777 14.59 17.7276 14.6259 17.7725 14.6631C17.8174 14.7004 17.8574 14.7398 17.8915 14.7775L18.505 15.3901L19.1185 16.0027L19.732 16.6153L20.3455 17.2279C20.46 17.341 20.5454 17.4549 20.6028 17.5692C20.6603 17.6836 20.6886 17.7988 20.6891 17.915C20.6891 18.0307 20.6612 18.1473 20.6046 18.2639C20.5481 18.3805 20.4632 18.498 20.35 18.6151L20.3509 18.6177Z" fill="#003459"/>
</svg>
