<svg width="28" height="28" viewBox="0 0 28 28" fill="none" xmlns="http://www.w3.org/2000/svg">
<path d="M16.4509 13.3236V10.343C17.9848 10.2906 21.0683 10.8925 22.3125 12.0637C22.7883 12.5113 22.4634 13.317 21.8137 13.3083C20.0095 13.2828 16.4509 13.3236 16.4509 13.3236Z" stroke="#003459" stroke-width="0.797721" stroke-linecap="round"/>
<path d="M24.8317 11.3462C20.4586 8.65239 18.2585 8.61236 16.6757 8.61745C15.1419 8.62255 11.9671 9.1517 7.54014 11.8339C1.14091 12.8092 0.537861 14.2605 0.537861 15.8109V17.2338C0.537861 18.0003 1.15312 18.6211 1.91143 18.6211H26.4618C27.0383 18.5258 27.4609 18.0228 27.4609 17.4325V16.0096C27.4609 13.6186 26.0234 11.9641 24.8317 11.3455V11.3462Z" stroke="#003459" stroke-width="0.797721" stroke-linecap="round"/>
<path d="M16.4512 13.3222V10.3555C14.1252 10.3555 11.6713 11.3919 10.1641 12.5987C9.88086 12.8258 10.0332 13.3222 10.3833 13.3222H16.4512Z" stroke="#003459" stroke-width="0.797721" stroke-linecap="round"/>
<path d="M4.27734 14.2656H1.10252" stroke="#003459" stroke-width="0.797721" stroke-linecap="round"/>
<path d="M22.792 20.4634C21.5574 20.4634 20.5566 19.4529 20.5566 18.2063C20.5566 16.9598 21.5574 15.9492 22.792 15.9492C24.0265 15.9492 25.0273 16.9598 25.0273 18.2063C25.0273 19.4529 24.0265 20.4634 22.792 20.4634Z" fill="white" stroke="#003459" stroke-width="0.797721" stroke-linecap="round"/>
<path d="M6.6279 20.4634C5.39333 20.4634 4.39252 19.4529 4.39252 18.2063C4.39252 16.9598 5.39333 15.9492 6.6279 15.9492C7.86247 15.9492 8.86328 16.9598 8.86328 18.2063C8.86328 19.4529 7.86247 20.4634 6.6279 20.4634Z" fill="white" stroke="#003459" stroke-width="0.797721" stroke-linecap="round"/>
</svg>
