<svg width="24" height="24" viewBox="0 0 24 24" fill="none" xmlns="http://www.w3.org/2000/svg">
<path d="M21.2141 8.10751C20.7104 6.91675 19.9894 5.84722 19.0712 4.92899C18.1529 4.01077 17.0834 3.28973 15.8926 2.78602C14.6595 2.26441 13.3499 2 12 2C10.6501 2 9.34053 2.26441 8.10751 2.78602C6.91675 3.28973 5.84722 4.01062 4.92899 4.92899C4.01077 5.84722 3.28973 6.91675 2.78602 8.10751C2.26441 9.34053 2 10.6501 2 12C2 13.3499 2.26441 14.6595 2.78602 15.8925C3.28973 17.0832 4.01062 18.1528 4.92899 19.071C5.84722 19.9892 6.91675 20.7103 8.10751 21.214C9.34053 21.7354 10.6503 22 12 22C13.3497 22 14.6595 21.7356 15.8925 21.214C17.0832 20.7103 18.1528 19.9892 19.071 19.071C19.9892 18.1528 20.7103 17.0832 21.214 15.8925C21.7354 14.6595 22 13.3497 22 12C22 10.6503 21.7356 9.34053 21.214 8.10751H21.2141ZM21.3921 11.6568H17.491C17.4623 10.0798 17.2356 8.56534 16.8331 7.2126C17.617 6.97646 18.3459 6.68107 19.0003 6.33062C19.1173 6.26805 19.231 6.20398 19.3416 6.1387C20.5614 7.66351 21.3169 9.57486 21.3921 11.6568ZM12.3008 2.61952C13.4609 2.75744 14.5543 3.69116 15.4071 5.28365C15.6576 5.75126 15.8785 6.25963 16.0683 6.80094C14.9024 7.09618 13.6256 7.26148 12.3008 7.28329V2.61952ZM11.6992 2.61952V7.28329C10.3746 7.26148 9.09763 7.09618 7.93184 6.80094C8.12165 6.25963 8.34259 5.75126 8.59302 5.28365C9.44567 3.69116 10.5391 2.75744 11.6993 2.61952H11.6992ZM11.6992 7.88491V11.6568H7.11062C7.1392 10.1327 7.35819 8.67303 7.74609 7.37383C8.97114 7.68743 10.3112 7.8628 11.6992 7.88491ZM11.6992 12.2584V16.0303C10.3025 16.0525 8.95414 16.23 7.72277 16.5474C7.3424 15.2439 7.13078 13.7823 7.10927 12.2584H11.6992ZM11.6992 16.632V21.3806C10.539 21.2427 9.44567 20.309 8.59287 18.7165C8.33056 18.2265 8.10059 17.6918 7.90476 17.1213C9.07793 16.8218 10.3643 16.654 11.6992 16.632ZM12.3008 21.3805V16.6319C13.6357 16.6538 14.9221 16.8217 16.0952 17.1212C15.8994 17.6915 15.6694 18.2263 15.4071 18.7164C14.5545 20.3088 13.461 21.2426 12.3008 21.3805ZM12.3008 16.0303V12.2584H16.8907C16.8692 13.7823 16.6576 15.2439 16.2772 16.5474C15.0459 16.23 13.6975 16.0525 12.3008 16.0303ZM12.3008 11.6568V7.88491C13.6886 7.8628 15.0289 7.68743 16.2539 7.37383C16.6418 8.67303 16.8608 10.1327 16.8894 11.6568H12.3008ZM18.9444 5.67365C18.8698 5.71637 18.7941 5.75878 18.7164 5.80029C18.0934 6.13389 17.398 6.41515 16.649 6.64031C16.446 6.05493 16.2082 5.50505 15.9375 4.99968C15.4577 4.10357 14.8982 3.39095 14.2737 2.87987C16.099 3.335 17.715 4.32527 18.9445 5.67365H18.9444ZM9.72632 2.87987C9.10184 3.39095 8.54233 4.10357 8.06254 4.99968C7.79196 5.5052 7.55417 6.05508 7.35097 6.64031C6.60195 6.41515 5.90663 6.13389 5.2835 5.80029C5.20574 5.75863 5.12994 5.71637 5.05548 5.67365C6.28505 4.32527 7.90085 3.335 9.72632 2.87987ZM4.65826 6.13885C4.76896 6.20413 4.88267 6.2682 4.99953 6.33077C5.65395 6.68122 6.38296 6.97661 7.16672 7.21275C6.76424 8.56549 6.53758 10.0799 6.50885 11.6569H2.60794C2.68299 9.57501 3.43863 7.66366 4.65841 6.13885H4.65826ZM2.60523 12.2584H6.50765C6.52931 13.8357 6.74875 15.3522 7.14401 16.7095C6.36882 16.9446 5.64778 17.2376 4.99968 17.5846C4.86658 17.6558 4.73753 17.7289 4.61254 17.8037C3.40328 16.2678 2.66193 14.3471 2.60523 12.2584ZM5.00525 18.2705C5.09579 18.2179 5.18844 18.166 5.28365 18.115C5.89926 17.7853 6.58556 17.5066 7.3245 17.283C7.53326 17.8971 7.78008 18.473 8.06254 19.0006C8.54233 19.8967 9.10184 20.6094 9.72632 21.1204C7.87589 20.659 6.24068 19.6477 5.0051 18.2707L5.00525 18.2705ZM14.2737 21.1203C14.8982 20.6092 15.4577 19.8966 15.9375 19.0005C16.2199 18.473 16.4667 17.8969 16.6755 17.2828C17.4144 17.5066 18.1007 17.7853 18.7164 18.1149C18.8116 18.1659 18.9044 18.2178 18.9948 18.2704C17.7592 19.6474 16.124 20.6587 14.2735 21.1201L14.2737 21.1203ZM19.3875 17.8037C19.2625 17.7289 19.1336 17.6558 19.0003 17.5846C18.3522 17.2376 17.6312 16.9444 16.856 16.7095C17.2513 15.3522 17.4707 13.8357 17.4924 12.2584H21.3948C21.3381 14.3471 20.5967 16.2678 19.3875 17.8037Z" fill="#003459" stroke="#003459" stroke-width="0.4"/>
</svg>
