<svg width="18" height="24" viewBox="0 0 18 24" fill="none" xmlns="http://www.w3.org/2000/svg">
<path d="M8.90778 11.7446C10.8886 11.7446 12.5003 10.1069 12.5003 8.09347C12.5003 6.08004 10.8886 4.44238 8.90778 4.44238C6.92698 4.44238 5.31641 6.08004 5.31641 8.09347C5.31641 10.1069 6.92698 11.7446 8.90778 11.7446ZM8.90778 5.53995C10.2938 5.53995 11.4205 6.68519 11.4205 8.09347C11.4205 9.50175 10.2938 10.647 8.90778 10.647C7.52177 10.647 6.39619 9.50175 6.39619 8.09347C6.39619 6.68519 7.52288 5.53995 8.90778 5.53995Z" fill="#003459" stroke="#003459" stroke-width="0.48"/>
<path d="M12.0013 17.4961C15.7571 12.324 16.3635 11.3604 16.4121 8.22924C16.4501 6.26629 15.7152 4.40204 14.343 2.97918C12.9294 1.51314 10.9486 0.671875 8.90984 0.671875C6.8711 0.671875 4.92561 1.48678 3.49215 2.96572C2.11331 4.38858 1.3701 6.25731 1.39879 8.23036C1.45617 11.37 2.0631 12.338 5.82883 17.5C2.99943 17.9885 1.20898 19.113 1.20898 20.4775C1.20898 22.5784 5.17666 23.7119 8.90984 23.7119C12.643 23.7119 16.6107 22.5784 16.6107 20.4775C16.6107 18.8684 14.3689 17.9128 12.0008 17.4961H12.0013ZM4.26074 3.73576C5.49061 2.4677 7.14146 1.76888 8.91039 1.76888C10.6793 1.76888 12.3605 2.49013 13.5727 3.74754C14.7408 4.9584 15.3659 6.54278 15.3328 8.20961V8.21185C15.2887 11.1305 14.7573 11.8613 10.6103 17.5639C10.5342 17.6615 10.4575 17.7681 10.3786 17.878C10.3025 17.9773 10.2385 18.0647 10.1965 18.1326C9.98245 18.4186 9.65471 18.8634 9.34186 19.2885L8.96004 19.9643C8.63672 19.5072 8.16221 18.8578 7.82564 18.3951L7.63252 18.1304C7.57459 18.0547 7.52383 17.9868 7.44934 17.8746C7.37264 17.7681 7.2954 17.6615 7.21981 17.5639C3.06675 11.8781 2.53154 11.1434 2.47802 8.21185C2.45374 6.53717 3.08606 4.94718 4.26019 3.7352L4.26074 3.73576ZM8.90984 22.6149C4.86768 22.6149 2.28822 21.349 2.28822 20.4775C2.28822 19.7669 3.87783 18.8494 6.55439 18.4893C6.56156 18.4994 6.56929 18.5089 6.57646 18.5185C6.64102 18.6161 6.70392 18.7024 6.77068 18.7905L6.95828 19.0473C7.29264 19.5067 7.76384 20.1516 8.09544 20.6199C8.25435 20.8286 8.46843 20.9391 8.72389 20.9839C8.78514 20.9957 8.84087 21.0266 8.90487 21.0266H8.92584C9.24751 21.0198 9.54049 20.8617 9.71981 20.6037L10.2059 19.9441C10.5171 19.5218 10.8426 19.0799 11.0766 18.7658C11.124 18.6918 11.1737 18.6256 11.2526 18.5207C11.2592 18.5117 11.2691 18.4988 11.2758 18.4899C13.9474 18.8589 15.5326 19.7736 15.5326 20.4769C15.5326 21.3485 12.9531 22.6143 8.91094 22.6143L8.90984 22.6149Z" fill="#003459" stroke="#003459" stroke-width="0.48"/>
</svg>
