<svg width="24" height="25" viewBox="0 0 24 25" fill="none" xmlns="http://www.w3.org/2000/svg">
<path d="M11.9042 12.2344C14.0015 12.2344 15.708 10.5285 15.708 8.43115C15.708 6.33383 14.0015 4.62793 11.9042 4.62793C9.80688 4.62793 8.10156 6.33383 8.10156 8.43115C8.10156 10.5285 9.80688 12.2344 11.9042 12.2344ZM11.9042 5.77123C13.3717 5.77123 14.5647 6.96419 14.5647 8.43115C14.5647 9.8981 13.3717 11.0911 11.9042 11.0911C10.4367 11.0911 9.24486 9.8981 9.24486 8.43115C9.24486 6.96419 10.4378 5.77123 11.9042 5.77123Z" fill="#003459"/>
<path d="M15.1772 18.2244C19.1539 12.8368 19.796 11.8331 19.8474 8.57147C19.8877 6.52673 19.1095 4.58481 17.6566 3.10267C16.1598 1.57554 14.0625 0.699219 11.9038 0.699219C9.74518 0.699219 7.68525 1.54808 6.16747 3.08864C4.70752 4.57079 3.92059 6.51738 3.95097 8.57264C4.01173 11.8431 4.65436 12.8514 8.6416 18.2285C5.64577 18.7373 3.75 19.9087 3.75 21.3301C3.75 23.5185 7.95107 24.6992 11.9038 24.6992C15.8566 24.6992 20.0577 23.5185 20.0577 21.3301C20.0577 19.654 17.684 18.6585 15.1766 18.2244H15.1772ZM6.98127 3.89077C8.28348 2.56986 10.0314 1.84194 11.9044 1.84194C13.7774 1.84194 15.5575 2.59323 16.841 3.90304C18.0778 5.16435 18.7397 6.81475 18.7047 8.55102V8.55336C18.6579 11.5936 18.0953 12.3548 13.7044 18.2951C13.6238 18.3967 13.5426 18.5077 13.459 18.6222C13.3784 18.7257 13.3106 18.8168 13.2662 18.8875C13.0395 19.1854 12.6925 19.6487 12.3613 20.0915L11.957 20.7955C11.6147 20.3194 11.1122 19.6429 10.7559 19.1609L10.5514 18.8851C10.4901 18.8063 10.4363 18.7356 10.3574 18.6187C10.2762 18.5077 10.1944 18.3967 10.1144 18.2951C5.71704 12.3724 5.15036 11.607 5.09369 8.55336C5.06798 6.8089 5.73749 5.15266 6.98069 3.89018L6.98127 3.89077ZM11.9038 23.5565C7.62391 23.5565 4.89272 22.2379 4.89272 21.3301C4.89272 20.5899 6.57583 19.6341 9.40984 19.259C9.41744 19.2696 9.42562 19.2795 9.43321 19.2894C9.50156 19.3911 9.56816 19.481 9.63885 19.5728L9.83749 19.8403C10.1915 20.3188 10.6904 20.9906 11.0415 21.4785C11.2098 21.6958 11.4365 21.8109 11.707 21.8576C11.7718 21.8699 11.8308 21.902 11.8986 21.902H11.9208C12.2614 21.895 12.5716 21.7303 12.7615 21.4615L13.2762 20.7745C13.6057 20.3346 13.9503 19.8742 14.198 19.5471C14.2483 19.4699 14.3009 19.401 14.3844 19.2918C14.3914 19.2824 14.4019 19.269 14.4089 19.2596C17.2377 19.644 18.9161 20.5969 18.9161 21.3295C18.9161 22.2374 16.1849 23.5559 11.905 23.5559L11.9038 23.5565Z" fill="#003459"/>
</svg>
