<svg width="55" height="84" viewBox="0 0 55 84" fill="none" xmlns="http://www.w3.org/2000/svg">
<path opacity="0.5" d="M15.6329 41.3543V3.07757L9.40625 0V42.6466L15.6329 41.3543Z" fill="#003459"/>
<path opacity="0.5" d="M23.0898 39.9386V5.89149L16.6172 3.44531V41.1073L23.0898 39.9386Z" fill="#003459"/>
<path opacity="0.5" d="M39.375 41.3543V3.07757L45.6017 0V42.6466L39.375 41.3543Z" fill="#003459"/>
<path opacity="0.5" d="M31.9141 39.9386V5.89149L38.3867 3.44531V41.1073L31.9141 39.9386Z" fill="#003459"/>
<path d="M3.58594 15.6738V43.2003C3.58594 43.2003 6.66877 49.6859 16.8308 51.8496L18.8299 49.5216C18.8299 49.5216 9.16721 45.4471 8.24994 41.788L8.0835 13.3477L3.58594 15.6757V15.6738Z" fill="#003459"/>
<path d="M19.7726 48.5036L21.5868 46.0869C21.5868 46.0869 15.8595 44.2482 15.0883 41.6635L15.0846 9.86133L10.3281 12.313V41.6783C10.3281 41.6783 11.3397 45.3356 19.7708 48.5036H19.7726Z" fill="#003459"/>
<path d="M23.3404 43.1518L22.4619 44.0288H22.0458C22.0458 44.0288 17.8627 43.2201 17.4688 40.9124L17.515 8.42716L22.338 5.88867V39.6275C22.338 39.6275 20.7347 39.7512 20.4036 40.5654C20.4036 40.5654 20.2575 40.9807 20.4036 41.1192L23.3404 43.15V43.1518Z" fill="#003459"/>
<path d="M27.3177 40.541L18.6406 52.9104H23.2491L23.2177 56.0027H31.6026V53.0341L36.4108 53.0488L27.3177 40.541Z" fill="#003459"/>
<path d="M51.4237 15.6738V43.2003C51.4237 43.2003 48.3409 49.6859 38.1788 51.8496L36.1797 49.5216C36.1797 49.5216 45.8424 45.4471 46.7597 41.788L46.9261 13.3477L51.4237 15.6757V15.6738Z" fill="#003459"/>
<path d="M35.2439 48.5036L33.4297 46.0869C33.4297 46.0869 39.1571 44.2482 39.9282 41.6635L39.9319 9.86133L44.6884 12.313V41.6783C44.6884 41.6783 43.6768 45.3356 35.2457 48.5036H35.2439Z" fill="#003459"/>
<path d="M31.6562 43.1518L32.5347 44.0288H32.9508C32.9508 44.0288 37.134 43.2201 37.5279 40.9124L37.4816 8.42716L32.6586 5.88867V39.6275C32.6586 39.6275 34.2619 39.7512 34.593 40.5654C34.593 40.5654 34.7391 40.9807 34.593 41.1192L31.6581 43.15L31.6562 43.1518Z" fill="#003459"/>
<path d="M4.35056 66.136H7.00656C7.48656 66.136 7.85723 66.2693 8.11856 66.536C8.3799 66.7973 8.51056 67.1573 8.51056 67.616V71H4.35056V66.136ZM7.47056 70.08V67.712C7.47056 67.488 7.4119 67.3227 7.29456 67.216C7.18256 67.1093 7.0279 67.056 6.83056 67.056H5.39056V70.08H7.47056ZM9.64594 66.136H10.6859V68.952H9.64594V66.136ZM13.8902 67.832C13.8902 67.3147 13.6289 67.056 13.1062 67.056H11.4182V66.136H13.1622C13.7489 66.136 14.1889 66.272 14.4822 66.544C14.7809 66.8107 14.9302 67.2027 14.9302 67.72V71H13.8902V67.832ZM16.2564 70.08H18.5684V67.056H16.2724V66.136H18.5684C18.9257 66.136 19.187 66.224 19.3524 66.4C19.523 66.576 19.6084 66.824 19.6084 67.144V70.08H20.2644V71H16.2564V70.08ZM20.7248 70.264L22.0768 70.096L20.7168 66.136H21.7728L22.5168 68.296L23.0048 69.896C23.2928 69.7573 23.5034 69.5307 23.6368 69.216C23.7754 68.896 23.8448 68.4773 23.8448 67.96V66.136H24.8848V67.872C24.8848 68.4107 24.8208 68.8693 24.6927 69.248C24.5648 69.6213 24.3861 69.9307 24.1568 70.176C23.9328 70.416 23.6634 70.6 23.3488 70.728C23.0394 70.8507 22.7034 70.936 22.3408 70.984L20.7248 71.192V70.264ZM26.3276 67.648L26.0636 66.136H27.1036L27.2636 67.08H27.3116C27.3649 66.9413 27.4316 66.8107 27.5116 66.688C27.5916 66.56 27.6902 66.448 27.8076 66.352C27.9249 66.256 28.0609 66.1813 28.2156 66.128C28.3756 66.0693 28.5569 66.04 28.7596 66.04C28.9569 66.04 29.1436 66.072 29.3196 66.136C29.4956 66.2 29.6502 66.3067 29.7836 66.456C29.9169 66.6053 30.0209 66.8027 30.0956 67.048C30.1756 67.2933 30.2156 67.5973 30.2156 67.96V71H27.9756V70.08H29.1756V68.152C29.1756 67.9707 29.1622 67.808 29.1356 67.664C29.1142 67.5147 29.0716 67.3893 29.0076 67.288C28.9436 67.1867 28.8582 67.1093 28.7516 67.056C28.6449 66.9973 28.5116 66.968 28.3516 66.968C28.1809 66.968 28.0342 66.9947 27.9116 67.048C27.7889 67.1013 27.6876 67.1733 27.6076 67.264C27.5276 67.3493 27.4636 67.4507 27.4156 67.568C27.3729 67.68 27.3409 67.7973 27.3196 67.92L26.7836 71H25.7436L26.3276 67.648ZM33.1037 70.08H33.7597L33.6557 69.088C33.6397 68.928 33.6317 68.7813 33.6317 68.648C33.6317 68.3013 33.6904 68.0187 33.8077 67.8C33.925 67.5813 34.0904 67.392 34.3037 67.232L34.4717 67.104V67.056H33.1197V66.136H35.6637C36.2504 66.136 36.6904 66.272 36.9837 66.544C37.2824 66.8107 37.4317 67.2027 37.4317 67.72V71H36.3917V67.832C36.3917 67.3147 36.1304 67.056 35.6077 67.056H34.9037L34.8637 67.136C34.789 67.2907 34.7304 67.4507 34.6877 67.616C34.645 67.776 34.6237 67.9653 34.6237 68.184C34.6237 68.3227 34.629 68.472 34.6397 68.632C34.6504 68.7867 34.6637 68.9493 34.6797 69.12L34.8637 71H33.1037V70.08ZM38.5615 66.136H39.6015V71H38.5615V66.136ZM43.3786 71.096C42.9039 71.096 42.4986 71.0347 42.1626 70.912C41.8266 70.7893 41.5519 70.608 41.3386 70.368C41.1306 70.1227 40.9759 69.816 40.8746 69.448C40.7786 69.0747 40.7306 68.64 40.7306 68.144V66.136H41.7546V68.224H42.8666V66.136H43.8906V68.072C43.8906 68.392 43.8052 68.64 43.6346 68.816C43.4692 68.992 43.2106 69.08 42.8586 69.08H41.8426C41.9279 69.464 42.0932 69.7413 42.3386 69.912C42.5892 70.0773 42.9359 70.16 43.3786 70.16C43.6612 70.16 43.9039 70.1253 44.1066 70.056C44.3146 69.9867 44.4826 69.8773 44.6106 69.728C44.7439 69.5787 44.8426 69.3867 44.9066 69.152C44.9706 68.912 45.0026 68.6213 45.0026 68.28V66.136H46.0266V68.144C46.0266 68.64 45.9759 69.0747 45.8746 69.448C45.7786 69.816 45.6239 70.1227 45.4106 70.368C45.2026 70.608 44.9306 70.7893 44.5946 70.912C44.2586 71.0347 43.8532 71.096 43.3786 71.096ZM49.1793 67.832C49.1793 67.3147 48.9179 67.056 48.3953 67.056H46.7073V66.136H48.4513C49.0379 66.136 49.4779 66.272 49.7713 66.544C50.0699 66.8107 50.2193 67.2027 50.2193 67.72V71H49.1793V67.832ZM14.3232 74.136H16.9792C17.4592 74.136 17.8299 74.2693 18.0912 74.536C18.3526 74.7973 18.4832 75.1573 18.4832 75.616V79H14.3232V74.136ZM17.4432 78.08V75.712C17.4432 75.488 17.3846 75.3227 17.2672 75.216C17.1552 75.1093 17.0006 75.056 16.8032 75.056H15.3632V78.08H17.4432ZM19.6186 74.136H20.6586V76.952H19.6186V74.136ZM21.7748 74.136H22.8148V76.952H21.7748V74.136ZM23.7951 78.08H24.4511L24.3471 77.088C24.3311 76.928 24.3231 76.7813 24.3231 76.648C24.3231 76.3013 24.3818 76.0187 24.4991 75.8C24.6164 75.5813 24.7818 75.392 24.9951 75.232L25.1631 75.104V75.056H23.8111V74.136H26.3551C26.9418 74.136 27.3818 74.272 27.6751 74.544C27.9738 74.8107 28.1231 75.2027 28.1231 75.72V79H27.0831V75.832C27.0831 75.3147 26.8218 75.056 26.2991 75.056H25.5951L25.5551 75.136C25.4804 75.2907 25.4218 75.4507 25.3791 75.616C25.3364 75.776 25.3151 75.9653 25.3151 76.184C25.3151 76.3227 25.3204 76.472 25.3311 76.632C25.3418 76.7867 25.3551 76.9493 25.3711 77.12L25.5551 79H23.7951V78.08ZM31.7809 79.096C31.3062 79.096 30.9009 79.0347 30.5649 78.912C30.2289 78.7893 29.9542 78.608 29.7409 78.368C29.5329 78.1227 29.3782 77.816 29.2769 77.448C29.1809 77.0747 29.1329 76.64 29.1329 76.144V74.136H30.1569V76.224H31.2689V74.136H32.2929V76.072C32.2929 76.392 32.2076 76.64 32.0369 76.816C31.8716 76.992 31.6129 77.08 31.2609 77.08H30.2449C30.3302 77.464 30.4956 77.7413 30.7409 77.912C30.9916 78.0773 31.3382 78.16 31.7809 78.16C32.0636 78.16 32.3062 78.1253 32.5089 78.056C32.7169 77.9867 32.8849 77.8773 33.0129 77.728C33.1462 77.5787 33.2449 77.3867 33.3089 77.152C33.3729 76.912 33.4049 76.6213 33.4049 76.28V74.136H34.4289V76.144C34.4289 76.64 34.3782 77.0747 34.2769 77.448C34.1809 77.816 34.0262 78.1227 33.8129 78.368C33.6049 78.608 33.3329 78.7893 32.9969 78.912C32.6609 79.0347 32.2556 79.096 31.7809 79.096ZM35.1275 78.08H37.4395V75.056H35.1435V74.136H37.4395C37.7968 74.136 38.0581 74.224 38.2235 74.4C38.3941 74.576 38.4795 74.824 38.4795 75.144V78.08H39.1355V79H35.1275V78.08ZM39.7045 74.136H40.7445V76.952H39.7045V74.136Z" fill="#003459"/>
</svg>
