<svg width="49" height="56" viewBox="0 0 49 56" fill="none" xmlns="http://www.w3.org/2000/svg">
<path opacity="0.5" d="M12.6349 41.3543V3.07757L6.4082 0V42.6466L12.6349 41.3543Z" fill="white"/>
<path opacity="0.5" d="M20.0918 39.9386V5.89149L13.6191 3.44531V41.1073L20.0918 39.9386Z" fill="white"/>
<path opacity="0.5" d="M36.377 41.3543V3.07757L42.6036 0V42.6466L36.377 41.3543Z" fill="white"/>
<path opacity="0.5" d="M28.9121 39.9386V5.89149L35.3848 3.44531V41.1073L28.9121 39.9386Z" fill="white"/>
<path d="M0.583984 15.6738V43.2003C0.583984 43.2003 3.66681 49.6859 13.8289 51.8496L15.828 49.5216C15.828 49.5216 6.16525 45.4471 5.24799 41.788L5.08155 13.3477L0.583984 15.6757V15.6738Z" fill="white"/>
<path d="M16.7668 48.5036L18.581 46.0869C18.581 46.0869 12.8536 44.2482 12.0824 41.6635L12.0787 9.86133L7.32227 12.313V41.6783C7.32227 41.6783 8.33385 45.3356 16.7649 48.5036H16.7668Z" fill="white"/>
<path d="M20.3384 43.1518L19.46 44.0288H19.0439C19.0439 44.0288 14.8607 43.2201 14.4668 40.9124L14.513 8.42716L19.3361 5.88867V39.6275C19.3361 39.6275 17.7327 39.7512 17.4017 40.5654C17.4017 40.5654 17.2556 40.9807 17.4017 41.1192L20.3384 43.15V43.1518Z" fill="white"/>
<path d="M24.3196 40.541L15.6426 52.9104H20.2511L20.2197 56.0027H28.6045V53.0341L33.4128 53.0488L24.3196 40.541Z" fill="white"/>
<path d="M48.4217 15.6738V43.2003C48.4217 43.2003 45.3389 49.6859 35.1769 51.8496L33.1777 49.5216C33.1777 49.5216 42.8405 45.4471 43.7577 41.788L43.9242 13.3477L48.4217 15.6757V15.6738Z" fill="white"/>
<path d="M32.2419 48.5036L30.4277 46.0869C30.4277 46.0869 36.1551 44.2482 36.9263 41.6635L36.93 9.86133L41.6864 12.313V41.6783C41.6864 41.6783 40.6749 45.3356 32.2438 48.5036H32.2419Z" fill="white"/>
<path d="M28.6582 43.1518L29.5366 44.0288H29.9527C29.9527 44.0288 34.1359 43.2201 34.5298 40.9124L34.4836 8.42716L29.6605 5.88867V39.6275C29.6605 39.6275 31.2639 39.7512 31.5949 40.5654C31.5949 40.5654 31.741 40.9807 31.5949 41.1192L28.6601 43.15L28.6582 43.1518Z" fill="white"/>
</svg>
