<svg width="72" height="80" viewBox="0 0 72 80" fill="none" xmlns="http://www.w3.org/2000/svg">
<g clip-path="url(#clip0_4614_13118)">
<path opacity="0.5" d="M19.0555 58.638V4.28608L10.2539 -0.0839844V60.473L19.0555 58.638Z" fill="white"/>
<path opacity="0.5" d="M29.5985 56.6301V8.28406L20.4492 4.81055V58.2895L29.5985 56.6301Z" fill="white"/>
<path opacity="0.5" d="M52.6055 58.638V4.28608L61.407 -0.0839844V60.473L52.6055 58.638Z" fill="white"/>
<path opacity="0.5" d="M42.0664 56.6301V8.28406L51.2156 4.81055V58.2895L42.0664 56.6301Z" fill="white"/>
<path d="M2.02344 22.1752V61.262C2.02344 61.262 6.38109 70.4714 20.7454 73.5438L23.5712 70.2381C23.5712 70.2381 9.9127 64.4524 8.61612 59.2565L8.38085 18.8721L2.02344 22.1778V22.1752Z" fill="white"/>
<path d="M24.8891 68.7889L27.4535 65.3574C27.4535 65.3574 19.3577 62.7463 18.2677 59.0762L18.2624 13.918L11.5391 17.3993V59.0972C11.5391 59.0972 12.969 64.2904 24.8865 68.7889H24.8891Z" fill="white"/>
<path d="M29.9481 61.1939L28.7064 62.4392H28.1183C28.1183 62.4392 22.2052 61.2909 21.6484 58.014L21.7138 11.8858L28.5313 8.28125V56.1895C28.5313 56.1895 26.2649 56.3651 25.797 57.5212C25.797 57.5212 25.5905 58.111 25.797 58.3077L29.9481 61.1913V61.1939Z" fill="white"/>
<path d="M35.566 57.4795L23.3008 75.0436H29.815L29.7706 79.4347H41.6228V75.2193L48.4194 75.2403L35.566 57.4795Z" fill="white"/>
<path d="M69.6376 22.1752V61.262C69.6376 61.262 65.28 70.4714 50.9157 73.5438L48.0898 70.2381C48.0898 70.2381 61.7484 64.4524 63.0449 59.2565L63.2802 18.8721L69.6376 22.1778V22.1752Z" fill="white"/>
<path d="M46.7714 68.7889L44.207 65.3574C44.207 65.3574 52.3028 62.7463 53.3929 59.0762L53.3981 13.918L60.1215 17.3993V59.0972C60.1215 59.0972 58.6916 64.2904 46.774 68.7889H46.7714Z" fill="white"/>
<path d="M41.7109 61.1939L42.9526 62.4392H43.5408C43.5408 62.4392 49.4538 61.2909 50.0106 58.014L49.9453 11.8858L43.1278 8.28125V56.1895C43.1278 56.1895 45.3942 56.3651 45.8621 57.5212C45.8621 57.5212 46.0686 58.111 45.8621 58.3077L41.7136 61.1913L41.7109 61.1939Z" fill="white"/>
</g>
<defs>
<clipPath id="clip0_4614_13118">
<rect width="72" height="80" fill="white"/>
</clipPath>
</defs>
</svg>
