<svg width="28" height="28" viewBox="0 0 28 28" fill="none" xmlns="http://www.w3.org/2000/svg">
<path d="M11.9885 7.49672C11.1053 7.49672 10.3892 6.78303 10.3892 5.90266C10.3892 5.02228 11.1053 4.30859 11.9885 4.30859C12.8718 4.30859 13.5879 5.02228 13.5879 5.90266C13.5879 6.78303 12.8718 7.49672 11.9885 7.49672Z" stroke="#003459" stroke-width="0.793344" stroke-linecap="round" stroke-linejoin="round"/>
<path d="M15.0294 17.0715L18.5693 20.9958C19.1343 21.6408 19.8582 21.4587 20.2133 21.1063C20.5841 20.7376 20.5287 20.1491 20.1127 19.6498L16.214 15.0655C16.6319 14.3884 16.7035 13.5537 16.4063 12.8157L15.6654 10.9748L16.882 11.2486C17.2276 11.3636 17.4727 11.6694 17.5092 12.0306L17.6958 13.8903C17.7442 14.3721 18.1621 14.7319 18.6472 14.71C19.172 14.6861 19.5685 14.2276 19.5151 13.7069L19.2587 11.199C19.1625 10.2776 18.5681 9.8254 17.9893 9.63446L14.7749 8.6176C14.4393 8.51146 14.0899 8.44111 13.7373 8.44551C12.7557 8.45681 11.8722 8.90526 11.3676 9.71297L10.8497 10.716C10.6021 11.1959 10.1836 11.5664 9.67583 11.7542L8.22856 12.2912C7.72268 12.479 7.43926 13.0148 7.56934 13.5367C7.72205 14.1485 8.37435 14.4914 8.96759 14.2722L10.949 13.5392C11.4901 13.3389 12.0808 12.9639 12.3485 12.1374" stroke="#003459" stroke-width="0.793344" stroke-linecap="round" stroke-linejoin="round"/>
<path d="M12.0564 11.3867L13.4773 15.0088C13.5477 15.1627 13.5414 15.3405 13.4597 15.4893L10.3025 20.8789C9.99831 21.4309 9.9826 22.1193 10.5199 22.4516C11.0937 22.8064 11.8013 22.5565 12.1337 21.9705L16.2109 15.0622" stroke="#003459" stroke-width="0.793344" stroke-linecap="round" stroke-linejoin="round"/>
<path d="M15.668 10.9783L14.1968 10.6328" stroke="#003459" stroke-width="0.793344" stroke-linecap="round" stroke-linejoin="round"/>
</svg>
