<svg width="18" height="18" viewBox="0 0 18 18" fill="none" xmlns="http://www.w3.org/2000/svg">
<path d="M14.7959 10.6723C14.7035 10.5766 14.6065 10.4916 14.5057 10.4186C14.4048 10.3455 14.2997 10.2836 14.1915 10.2341C14.0833 10.1845 13.9721 10.1468 13.8581 10.1214C13.7442 10.096 13.6279 10.0834 13.5101 10.0834C13.3923 10.0834 13.2772 10.096 13.1633 10.1207C13.0493 10.1456 12.9373 10.1825 12.828 10.2317C12.7187 10.2809 12.612 10.3421 12.5085 10.4147C12.4049 10.4874 12.3048 10.5719 12.209 10.668L11.9083 10.9671L11.6077 11.2662L11.307 11.5652L11.0064 11.8643C10.9817 11.8508 10.9567 11.8378 10.9321 11.8251C10.9074 11.812 10.8828 11.7993 10.8581 11.787C10.8335 11.7747 10.8093 11.762 10.785 11.7497C10.7608 11.7374 10.7369 11.7251 10.713 11.7128C10.6788 11.6955 10.6449 11.679 10.6118 11.6621C10.5787 11.6452 10.5463 11.6287 10.5144 11.6121C10.4828 11.5956 10.452 11.5787 10.422 11.5622C10.3923 11.5452 10.3635 11.5287 10.3358 11.5114C10.0543 11.3331 9.7791 11.1409 9.50963 10.9344C9.24016 10.728 8.97569 10.507 8.71622 10.2706C8.45676 10.0342 8.20153 9.78276 7.94977 9.51483C7.698 9.24691 7.45009 8.96322 7.20487 8.66185C7.08592 8.51193 6.97697 8.36778 6.8765 8.22786C6.77602 8.08793 6.6844 7.95262 6.60009 7.82001C6.51579 7.68739 6.43957 7.55746 6.3695 7.4283C6.29944 7.29914 6.23592 7.17191 6.17818 7.04352C6.25632 6.9724 6.33255 6.90052 6.408 6.82787C6.48345 6.7556 6.55775 6.68295 6.63089 6.61029C6.70403 6.53764 6.77641 6.46499 6.84801 6.39272C6.91961 6.32046 6.99045 6.24857 7.06089 6.17707C7.08746 6.15055 7.1144 6.12364 7.14096 6.09673C7.16753 6.06983 7.19409 6.04292 7.22104 6.01562C7.2476 5.98872 7.27416 5.96142 7.30111 5.93452C7.32767 5.90761 7.35423 5.8807 7.38118 5.85418C7.58097 5.65467 7.73072 5.44056 7.83043 5.21914C7.93013 4.99773 7.98018 4.76862 7.98018 4.53991C7.98018 4.31119 7.93013 4.08208 7.83043 3.86067C7.73072 3.63925 7.58097 3.42476 7.38118 3.22564L7.12133 2.96616L6.86148 2.70669L6.60163 2.44722L6.34179 2.18814C6.31253 2.15854 6.2825 2.12894 6.25286 2.09934C6.22322 2.06936 6.19319 2.03937 6.16355 2.00939C6.13391 1.97941 6.10427 1.94904 6.07501 1.91867C6.04575 1.8883 6.01688 1.85793 5.98801 1.82757C5.93103 1.76875 5.87329 1.70917 5.81477 1.64997C5.75626 1.59077 5.69736 1.53081 5.63769 1.47161C5.57802 1.41241 5.51758 1.35321 5.45676 1.2944C5.39594 1.23597 5.33473 1.17793 5.27275 1.12104C5.18036 1.02993 5.08373 0.949208 4.98326 0.880016C4.88278 0.810439 4.77846 0.75201 4.67106 0.705113C4.56365 0.658216 4.45355 0.622467 4.34114 0.598634C4.22874 0.574801 4.11402 0.5625 3.99814 0.5625C3.88227 0.5625 3.76717 0.574416 3.6536 0.598634C3.54043 0.622467 3.42879 0.658216 3.31984 0.705113C3.2109 0.75201 3.10465 0.810439 3.00187 0.880016C2.89908 0.949593 2.79976 1.02993 2.70468 1.12104L2.70275 1.12296L2.70083 1.12488L2.6989 1.1268L2.69698 1.12872L2.37361 1.4547L2.05024 1.78067L1.72687 2.10664L1.40351 2.43261C1.28186 2.55409 1.1733 2.68248 1.07783 2.81702C0.982361 2.95156 0.899979 3.09302 0.831071 3.24024C0.762163 3.38785 0.706344 3.54161 0.664383 3.70114C0.622037 3.86105 0.59355 4.02711 0.578152 4.19894C0.555439 4.47609 0.558519 4.74902 0.580461 5.01234C0.602404 5.27565 0.64244 5.53012 0.693255 5.77076C0.74407 6.0114 0.805664 6.23858 0.870337 6.44808C0.93501 6.65757 1.00238 6.84862 1.06513 7.01776C1.21911 7.43291 1.39234 7.84038 1.58675 8.24362C1.78115 8.64724 1.99712 9.04663 2.23656 9.44564C2.47601 9.84465 2.73932 10.2437 3.02804 10.6457C3.31715 11.0478 3.63205 11.453 3.97543 11.8655C4.39196 12.3621 4.82966 12.8326 5.28776 13.2766C5.74587 13.7202 6.22437 14.1373 6.72213 14.5267C7.21988 14.9161 7.73727 15.2778 8.27352 15.6114C8.80977 15.9451 9.3645 16.2503 9.93694 16.5267C10.1556 16.6301 10.3927 16.7385 10.6456 16.8438C10.8986 16.9492 11.1673 17.0522 11.4498 17.1444C11.732 17.2367 12.0277 17.319 12.3345 17.3832C12.6413 17.4473 12.9589 17.4935 13.2849 17.5146C13.305 17.5158 13.3254 17.5165 13.3454 17.5173C13.3658 17.5181 13.3862 17.5188 13.4062 17.5196C13.4262 17.5204 13.4466 17.5208 13.4663 17.5212C13.4859 17.5215 13.5055 17.5219 13.5248 17.5219C13.7446 17.5219 13.9555 17.5023 14.1573 17.4627C14.359 17.4235 14.5518 17.3643 14.7351 17.2859C14.9183 17.2075 15.0923 17.1091 15.2567 16.9914C15.4211 16.8738 15.5755 16.7366 15.7202 16.5798C15.721 16.5778 15.7221 16.5763 15.7237 16.5748C15.7248 16.5732 15.7264 16.5717 15.7279 16.5705C15.7294 16.569 15.7306 16.5678 15.7321 16.5663C15.7337 16.5648 15.7348 16.5632 15.7356 16.5613C15.7849 16.5013 15.8365 16.4429 15.8892 16.3856C15.9423 16.328 15.9966 16.2715 16.0524 16.215C16.1082 16.1585 16.1656 16.1023 16.2237 16.0454C16.2819 15.9889 16.3411 15.9317 16.4012 15.874C16.442 15.8352 16.4832 15.7956 16.5244 15.7556C16.5656 15.7156 16.6072 15.6753 16.6483 15.6345C16.6895 15.5938 16.7311 15.5522 16.7723 15.5107C16.8135 15.4688 16.8547 15.4266 16.8955 15.3839C16.9898 15.2862 17.0726 15.1844 17.1442 15.0791C17.2158 14.9741 17.2758 14.8657 17.324 14.755C17.3721 14.6443 17.4086 14.5313 17.4333 14.4167C17.4575 14.3022 17.4702 14.1861 17.4702 14.0692C17.4702 13.9524 17.4575 13.8347 17.4329 13.7202C17.4079 13.6056 17.3709 13.493 17.3216 13.3835C17.2724 13.2739 17.2112 13.167 17.1384 13.0636C17.0656 12.9606 16.981 12.8611 16.8847 12.7661L16.3627 12.2429L15.8407 11.7198L15.3187 11.1966L14.7967 10.6734L14.7959 10.6723ZM16.1579 14.6724C16.1209 14.7123 16.0836 14.7512 16.0459 14.7896C16.0082 14.828 15.97 14.8661 15.9315 14.9041C15.8931 14.9422 15.8542 14.9803 15.8145 15.0187C15.7749 15.0571 15.7348 15.096 15.6936 15.1359C15.6317 15.1948 15.5697 15.2543 15.5077 15.3151C15.4457 15.3758 15.3837 15.4373 15.3222 15.5004C15.2606 15.5634 15.1994 15.6276 15.1389 15.6933C15.0785 15.7591 15.0184 15.8267 14.9595 15.8959C14.8633 15.9985 14.7632 16.0877 14.6573 16.1634C14.5515 16.2392 14.4402 16.3018 14.3228 16.3518C14.205 16.4018 14.081 16.4387 13.949 16.4633C13.817 16.4879 13.6776 16.4998 13.529 16.4998C13.5148 16.4998 13.5001 16.4998 13.4855 16.4998C13.4709 16.4998 13.4562 16.4998 13.4412 16.4994C13.4266 16.4994 13.4116 16.499 13.397 16.4983C13.3823 16.4979 13.3677 16.4971 13.3535 16.496C13.0709 16.4779 12.7933 16.4368 12.5239 16.3795C12.2544 16.3222 11.9926 16.2484 11.7412 16.1654C11.4903 16.0823 11.2497 15.9897 11.0229 15.8944C10.7962 15.799 10.5829 15.701 10.3858 15.6068C9.84762 15.3466 9.32562 15.0591 8.82093 14.745C8.31625 14.4309 7.82889 14.09 7.35962 13.7233C6.89036 13.3565 6.43957 12.9637 6.00764 12.5455C5.57571 12.1272 5.16304 11.6836 4.76999 11.2154C4.44585 10.8249 4.14828 10.442 3.87534 10.063C3.60279 9.68397 3.35449 9.30841 3.12929 8.93362C2.9037 8.55883 2.70121 8.18404 2.51874 7.80655C2.33627 7.42869 2.17458 7.04813 2.03099 6.66065C1.94245 6.42424 1.86816 6.20091 1.80695 5.98795C1.74612 5.77499 1.69839 5.57241 1.66374 5.3779C1.62909 5.18339 1.60715 4.99619 1.59753 4.81475C1.5879 4.63293 1.5906 4.45687 1.60484 4.28313C1.61447 4.17203 1.63217 4.06555 1.65835 3.96369C1.68453 3.86182 1.71956 3.76418 1.76306 3.67039C1.80656 3.57659 1.85892 3.48741 1.91974 3.40169C1.98095 3.31597 2.05063 3.23371 2.12954 3.15491L2.45407 2.83086L2.77859 2.5068L3.10311 2.18275L3.42763 1.8587C3.47421 1.81488 3.52156 1.77644 3.5693 1.743C3.61703 1.70956 3.66515 1.68111 3.71404 1.65843C3.76255 1.63575 3.81144 1.61845 3.85994 1.60654C3.90883 1.595 3.95734 1.58885 4.00584 1.58885C4.0659 1.58885 4.12287 1.59769 4.17677 1.61345C4.23066 1.62883 4.28109 1.65074 4.32806 1.6765C4.37502 1.70225 4.41814 1.73147 4.45702 1.76222C4.4959 1.79297 4.53093 1.82449 4.56134 1.85486L4.56404 1.85755L4.56673 1.86024L4.56943 1.86293L4.57212 1.86562C4.63025 1.91982 4.68761 1.97441 4.74458 2.02976C4.80156 2.08512 4.85815 2.14085 4.91474 2.19736C4.97133 2.25387 5.02791 2.31114 5.08489 2.36919C5.14186 2.42723 5.19922 2.48605 5.25735 2.54601C5.28699 2.57638 5.31663 2.60675 5.34666 2.63712C5.37669 2.66748 5.40672 2.69824 5.43674 2.7286C5.46677 2.75936 5.49718 2.79011 5.52759 2.82086C5.55801 2.85161 5.58842 2.88275 5.61883 2.91427L5.87868 3.17336L6.13814 3.43283L6.39799 3.6923L6.65784 3.95177C6.7587 4.05248 6.83415 4.15128 6.88458 4.24891C6.93501 4.34655 6.96003 4.44381 6.96003 4.54067C6.96003 4.63754 6.93501 4.73441 6.88458 4.83244C6.83415 4.93007 6.7587 5.02887 6.65784 5.12958C6.63012 5.15726 6.60279 5.18455 6.57584 5.21222C6.54851 5.2399 6.52156 5.26719 6.49423 5.29449C6.46728 5.32178 6.43995 5.34907 6.41262 5.37598C6.38529 5.40289 6.35795 5.4298 6.33062 5.45632C6.25055 5.53781 6.17163 5.61815 6.0931 5.69734C6.01457 5.77653 5.93604 5.85418 5.8575 5.93106C5.77897 6.00794 5.69967 6.08405 5.6196 6.15939C5.53953 6.23473 5.4583 6.30931 5.37592 6.38311C5.37399 6.38504 5.37207 6.38657 5.37014 6.38811C5.36822 6.38965 5.36668 6.39119 5.36476 6.39234C5.36322 6.39388 5.36168 6.39503 5.36014 6.39657C5.3586 6.3981 5.35744 6.39964 5.35667 6.40156C5.27506 6.48344 5.21732 6.56455 5.17805 6.64374C5.13878 6.72292 5.118 6.80019 5.10953 6.87399C5.10106 6.9478 5.10491 7.01814 5.11492 7.08349C5.12531 7.14884 5.14186 7.20958 5.1588 7.26378L5.16188 7.27223L5.16458 7.28069L5.16766 7.28915L5.17073 7.2976C5.2381 7.46097 5.31279 7.62204 5.39517 7.7831C5.47793 7.94417 5.56878 8.10523 5.66926 8.26899C5.76973 8.43274 5.88022 8.5988 6.0011 8.76986C6.12197 8.94092 6.2544 9.11698 6.39915 9.30034L6.39992 9.30111L6.40068 9.30188L6.40145 9.30264L6.40222 9.30341C6.66477 9.62631 6.93078 9.93153 7.2014 10.2194C7.47203 10.5074 7.74689 10.7787 8.02714 11.0332C8.3074 11.2881 8.59304 11.5264 8.88522 11.7494C9.17702 11.9723 9.47537 12.1799 9.78064 12.3729C9.81952 12.3975 9.85879 12.4209 9.89805 12.4436C9.93732 12.4663 9.97659 12.4878 10.0159 12.5086C10.0551 12.5293 10.094 12.5497 10.1329 12.5693C10.1718 12.5889 10.2103 12.6081 10.2484 12.6273C10.2826 12.6446 10.3165 12.6612 10.3496 12.6781C10.3827 12.695 10.4151 12.7115 10.447 12.728C10.4786 12.7446 10.5094 12.7611 10.539 12.778C10.5687 12.7949 10.5975 12.8115 10.6252 12.8288C10.6291 12.8307 10.6329 12.833 10.6368 12.8349C10.6406 12.8372 10.6445 12.8395 10.6483 12.8418C10.6522 12.8441 10.656 12.8464 10.6599 12.8488C10.6637 12.8511 10.6676 12.853 10.6714 12.8549C10.7038 12.871 10.7357 12.8849 10.7673 12.8968C10.7989 12.9087 10.83 12.9187 10.8612 12.9264C10.8924 12.9341 10.9232 12.9402 10.9544 12.9441C10.9856 12.9479 11.0168 12.9498 11.0479 12.9498C11.1269 12.9498 11.1985 12.9375 11.2624 12.9179C11.3263 12.8983 11.3828 12.8718 11.4314 12.843C11.4799 12.8142 11.5207 12.7834 11.553 12.7561C11.5857 12.7284 11.61 12.7042 11.6261 12.6881L11.9514 12.3633L12.2767 12.0384L12.602 11.7136L12.9273 11.3888C12.9596 11.3565 12.9966 11.3227 13.0382 11.2896C13.0794 11.2569 13.1248 11.2254 13.1733 11.1977C13.2222 11.1701 13.2742 11.1466 13.3292 11.1301C13.3843 11.1136 13.442 11.1036 13.5021 11.1036C13.5621 11.1036 13.6175 11.1128 13.6707 11.1286C13.7238 11.1443 13.7738 11.167 13.8204 11.1935C13.8666 11.22 13.9093 11.2508 13.9478 11.2827C13.9863 11.3146 14.0206 11.3484 14.0499 11.3807L14.5757 11.9058L15.1016 12.4309L15.6274 12.956L16.1533 13.4811C16.2514 13.578 16.3246 13.6756 16.3739 13.7736C16.4231 13.8716 16.4474 13.9704 16.4478 14.07C16.4478 14.1692 16.4239 14.2691 16.3754 14.3691C16.3269 14.469 16.2541 14.5697 16.1571 14.67L16.1579 14.6724Z" fill="#003459" stroke="#003459" stroke-width="0.375"/>
</svg>
