<svg width="29" height="28" viewBox="0 0 29 28" fill="none" xmlns="http://www.w3.org/2000/svg">
<path d="M18.4659 19.1946H7.81012V17.4609H19.1582" stroke="#003459" stroke-width="0.897403" stroke-linecap="round"/>
<path d="M5.98708 19.1914H7.80664V9.98047H2.91665L0.448179 13.1552V19.1914H2.62905" stroke="#003459" stroke-width="0.897403" stroke-linecap="round"/>
<path d="M2.96642 14.0722H5.70371C5.82728 14.0722 5.92773 13.973 5.92773 13.8509V11.6041C5.92773 11.482 5.82728 11.3828 5.70371 11.3828H3.95858C3.88921 11.3828 3.82345 11.4149 3.78081 11.4692L2.78865 12.7454C2.7583 12.7839 2.74241 12.8317 2.74241 12.8803V13.8509C2.74241 13.973 2.84285 14.0722 2.96642 14.0722Z" stroke="#003459" stroke-width="0.897403" stroke-linecap="round"/>
<path d="M27.373 17.4612V7.36597C27.373 6.86635 26.9626 6.46094 26.4568 6.46094H8.72575C8.21991 6.46094 7.80946 6.86635 7.80946 7.36597V17.4612" stroke="#003459" stroke-width="0.897403" stroke-linecap="round"/>
<path d="M24.7962 20.999C23.8672 20.999 23.114 20.2551 23.114 19.3374C23.114 18.4197 23.8672 17.6758 24.7962 17.6758C25.7253 17.6758 26.4785 18.4197 26.4785 19.3374C26.4785 20.2551 25.7253 20.999 24.7962 20.999Z" stroke="#003459" stroke-width="0.897403" stroke-linecap="round"/>
<path d="M21.431 20.999C20.5019 20.999 19.7488 20.2551 19.7488 19.3374C19.7488 18.4197 20.5019 17.6758 21.431 17.6758C22.3601 17.6758 23.1133 18.4197 23.1133 19.3374C23.1133 20.2551 22.3601 20.999 21.431 20.999Z" stroke="#003459" stroke-width="0.897403" stroke-linecap="round"/>
<path d="M4.30797 20.999C3.37888 20.999 2.6257 20.2551 2.6257 19.3374C2.6257 18.4197 3.37888 17.6758 4.30797 17.6758C5.23706 17.6758 5.99023 18.4197 5.99023 19.3374C5.99023 20.2551 5.23706 20.999 4.30797 20.999Z" stroke="#003459" stroke-width="0.897403" stroke-linecap="round"/>
</svg>
