<svg width="135" height="107" viewBox="0 0 135 107" fill="none" xmlns="http://www.w3.org/2000/svg">
<g style="mix-blend-mode:color-dodge" clip-path="url(#clip0_1197_29875)">
<g style="mix-blend-mode:color-dodge" filter="url(#filter0_d_1197_29875)">
<path d="M29.3706 75.5736C29.5805 64.4707 29.5775 57.0924 29.3899 48.872H22.622L35.8437 26.1279L49.0655 48.872H42.3169V75.5736C42.3169 86.586 32.6224 98.9838 27.6265 106.496C15.4607 106.488 12.1658 106.469 0 106.461C6.2434 101.686 29.164 86.495 29.3706 75.5741V75.5736Z" fill="url(#paint0_linear_1197_29875)" style="mix-blend-mode:screen" shape-rendering="crispEdges"/>
</g>
<g style="mix-blend-mode:color-dodge" filter="url(#filter1_d_1197_29875)">
<path d="M92.1365 106.466C76.0152 106.475 59.1642 106.485 43.043 106.495C48.0604 97.7031 58.0084 80.4862 58.0084 66.0991V30.1386H49.0656L66.5862 0L84.1064 30.1386H75.1637C74.89 41.3181 74.8762 51.1107 75.1637 66.0991C75.4373 80.3668 86.6719 98.6367 92.1365 106.466Z" fill="url(#paint1_linear_1197_29875)" style="mix-blend-mode:screen" shape-rendering="crispEdges"/>
</g>
<g style="mix-blend-mode:color-dodge" filter="url(#filter2_d_1197_29875)">
<path d="M85.0898 48.873L98.3116 26.1289L111.533 48.873H104.781C104.578 57.2648 104.569 64.6529 104.785 75.9221C104.991 86.7205 127.912 101.74 134.155 106.462C121.99 106.47 118.695 106.489 106.529 106.496C101.533 99.069 91.8384 86.8107 91.8384 75.9221V48.873H85.0898Z" fill="url(#paint2_linear_1197_29875)" style="mix-blend-mode:screen" shape-rendering="crispEdges"/>
</g>
</g>
<defs>
<filter id="filter0_d_1197_29875" x="-2.76613" y="26.1279" width="54.5987" height="85.9004" filterUnits="userSpaceOnUse" color-interpolation-filters="sRGB">
<feFlood flood-opacity="0" result="BackgroundImageFix"/>
<feColorMatrix in="SourceAlpha" type="matrix" values="0 0 0 0 0 0 0 0 0 0 0 0 0 0 0 0 0 0 127 0" result="hardAlpha"/>
<feOffset dy="2.76613"/>
<feGaussianBlur stdDeviation="1.38306"/>
<feComposite in2="hardAlpha" operator="out"/>
<feColorMatrix type="matrix" values="0 0 0 0 0 0 0 0 0 0 0 0 0 0 0 0 0 0 0.25 0"/>
<feBlend mode="normal" in2="BackgroundImageFix" result="effect1_dropShadow_1197_29875"/>
<feBlend mode="normal" in="SourceGraphic" in2="effect1_dropShadow_1197_29875" result="shape"/>
</filter>
<filter id="filter1_d_1197_29875" x="40.2768" y="-5.53226" width="54.626" height="112.027" filterUnits="userSpaceOnUse" color-interpolation-filters="sRGB">
<feFlood flood-opacity="0" result="BackgroundImageFix"/>
<feColorMatrix in="SourceAlpha" type="matrix" values="0 0 0 0 0 0 0 0 0 0 0 0 0 0 0 0 0 0 127 0" result="hardAlpha"/>
<feOffset dy="-2.76613"/>
<feGaussianBlur stdDeviation="1.38306"/>
<feComposite in2="hardAlpha" operator="out"/>
<feColorMatrix type="matrix" values="0 0 0 0 0 0 0 0 0 0 0 0 0 0 0 0 0 0 0.25 0"/>
<feBlend mode="normal" in2="BackgroundImageFix" result="effect1_dropShadow_1197_29875"/>
<feBlend mode="normal" in="SourceGraphic" in2="effect1_dropShadow_1197_29875" result="shape"/>
</filter>
<filter id="filter2_d_1197_29875" x="82.3237" y="26.1289" width="54.5987" height="85.8994" filterUnits="userSpaceOnUse" color-interpolation-filters="sRGB">
<feFlood flood-opacity="0" result="BackgroundImageFix"/>
<feColorMatrix in="SourceAlpha" type="matrix" values="0 0 0 0 0 0 0 0 0 0 0 0 0 0 0 0 0 0 127 0" result="hardAlpha"/>
<feOffset dy="2.76613"/>
<feGaussianBlur stdDeviation="1.38306"/>
<feComposite in2="hardAlpha" operator="out"/>
<feColorMatrix type="matrix" values="0 0 0 0 0 0 0 0 0 0 0 0 0 0 0 0 0 0 0.25 0"/>
<feBlend mode="normal" in2="BackgroundImageFix" result="effect1_dropShadow_1197_29875"/>
<feBlend mode="normal" in="SourceGraphic" in2="effect1_dropShadow_1197_29875" result="shape"/>
</filter>
<linearGradient id="paint0_linear_1197_29875" x1="24.5325" y1="26.1279" x2="24.5325" y2="106.496" gradientUnits="userSpaceOnUse">
<stop stop-color="#00CCFF"/>
<stop offset="0.379808" stop-color="#0098D8"/>
<stop offset="0.677885" stop-color="#176180"/>
<stop offset="1" stop-color="#104359"/>
</linearGradient>
<linearGradient id="paint1_linear_1197_29875" x1="67.5895" y1="0" x2="67.5895" y2="106.495" gradientUnits="userSpaceOnUse">
<stop stop-color="#00CCFF"/>
<stop offset="0.379808" stop-color="#0098D8"/>
<stop offset="0.677885" stop-color="#176180"/>
<stop offset="1" stop-color="#104359"/>
</linearGradient>
<linearGradient id="paint2_linear_1197_29875" x1="109.622" y1="26.1289" x2="109.622" y2="106.496" gradientUnits="userSpaceOnUse">
<stop stop-color="#00CCFF"/>
<stop offset="0.379808" stop-color="#0098D8"/>
<stop offset="0.677885" stop-color="#176180"/>
<stop offset="1" stop-color="#104359"/>
</linearGradient>
<clipPath id="clip0_1197_29875">
<rect width="134.157" height="106.496" fill="white"/>
</clipPath>
</defs>
</svg>
