<svg width="48" height="48" viewBox="0 0 48 48" fill="none" xmlns="http://www.w3.org/2000/svg">
<g clip-path="url(#clip0_896_22860)">
<path d="M38.0384 37.3154C37.874 37.3469 37.7008 37.3771 37.5971 37.5218C37.5351 37.6081 37.0583 40.8572 38.1946 40.7307C38.3711 40.6905 38.526 40.6722 38.6347 40.5098C38.6455 40.4941 39.293 37.2009 38.0384 37.3154Z" fill="#00A7E1"/>
<path d="M38.7041 20.8678C38.7699 14.1416 33.1135 8.35758 26.3518 8.30157H22.8903C22.0322 8.30157 21.1571 8.26381 20.3015 8.33115C15.2699 8.72636 10.987 12.0938 9.43778 16.8515C9.2974 17.2819 8.88005 18.2467 9.31131 18.6293C10.2409 19.4531 10.5513 17.4726 10.6854 17.0755C11.9703 13.2795 15.5513 10.3437 19.5244 9.76347C20.8365 9.57216 22.208 9.64327 23.5315 9.64327C27.1416 9.64327 29.6514 9.43119 32.7322 11.7257C36.4409 14.4884 37.4457 17.8093 37.4426 22.1227C37.4046 24.8501 37.4426 27.5826 37.4413 30.3107L37.44 33.2005C37.44 33.7468 37.2876 34.923 37.6569 35.3711C37.8207 35.5693 38.3987 35.5706 38.5726 35.4013C38.8508 35.13 38.7287 32.4366 38.7287 31.9772V23.1566C38.7287 22.4008 38.768 21.6211 38.7041 20.8678Z" fill="#00A7E1"/>
<path d="M19.3312 15.2733L22.5719 15.272C25.0805 15.2739 27.6048 15.335 30.1108 15.245C30.4832 15.1783 30.6015 15.0247 30.7621 14.7119C30.6837 14.4747 30.6103 14.2683 30.4579 14.0656C29.4841 14.0058 28.4977 14.0354 27.5226 14.0354H18.8537C18.3757 14.0354 17.8742 13.9775 17.4006 14.0058C17.0421 14.0719 16.6209 14.3696 16.717 14.7862C16.8897 15.5313 18.7785 15.2746 19.3312 15.2733Z" fill="#00A7E1"/>
<path d="M8.89963 27.8469C8.83513 31.6555 8.74534 35.994 8.90975 39.7957C8.93188 40.3017 9.01345 41.0619 9.70397 40.8819C10.5753 40.4433 10.2326 37.1677 10.2326 36.2363V26.4687C10.2326 25.6908 10.2693 24.8903 10.1751 24.1175C9.97146 23.8173 9.77353 23.7544 9.42701 23.7808C9.27018 23.862 9.09882 23.9388 9.03622 24.1169C8.96097 24.3315 8.91038 27.2264 8.90026 27.8462L8.89963 27.8469Z" fill="#00A7E1"/>
<path d="M45.6912 33.5704L45.6925 31.8089C45.6925 28.9021 44.5246 27.4685 41.5159 27.3785C41.5715 24.8543 41.6664 21.5051 41.3894 19.0489C41.2838 15.6392 39.0364 11.312 36.5608 8.99677C34.0991 6.69473 31.28 5.47007 27.9558 5.0113C28.0026 0.768436 23.6426 -1.65318 20.6768 1.30902C19.6714 2.31341 19.4216 3.63435 19.4811 5.00438C11.5976 6.17302 6.02409 12.2441 5.99247 20.2899C5.99058 20.799 5.78823 21.6801 6.28146 22.0344C7.34127 22.7952 7.26286 20.8972 7.2812 20.4988C7.38174 18.3195 7.64733 16.4435 8.56929 14.4259C10.2311 10.7903 13.2904 7.94833 17.1762 6.82688C19.495 6.15792 21.8884 6.26113 24.2749 6.26239C27.5347 6.26427 29.9761 6.29951 32.9083 7.91498C37.0287 10.1843 39.7706 14.655 40.1569 19.3075C40.2512 21.5397 40.2208 23.7725 40.2208 26.0072V40.8422C40.2227 43.1291 40.5231 45.1725 37.9077 46.3198C36.8023 46.6464 35.7634 46.6206 34.6195 46.6206L15.121 46.6193C13.2992 46.6193 10.4967 46.9434 8.89811 46.0391C7.53667 45.0536 7.3868 44.1071 7.31155 42.5835C7.23504 41.0247 7.33495 39.4923 7.34633 37.9385V28.0399C7.34696 27.3169 7.33748 26.5925 7.34633 25.8694C7.35202 25.4088 7.58536 23.5938 6.65328 23.8053C5.63773 24.0356 6.05697 26.5038 6.09112 27.3899C1.66785 27.4855 1.73867 29.7775 1.74183 33.4521C1.74436 37.2293 1.02602 41.2368 5.99374 41.5105C5.9792 42.8956 5.9324 43.8069 6.53945 45.1121C7.18002 46.4897 8.6066 47.7678 10.1736 47.883C10.8976 48.0265 11.671 47.9937 12.4057 47.9919L34.2009 47.99C35.6926 47.99 37.8299 48.1479 39.0857 47.2046C39.4576 47.0844 40.0071 46.5639 40.2746 46.2763C41.5475 44.9088 41.5734 43.1631 41.5152 41.43C43.7683 41.4526 45.628 40.0788 45.6894 37.7573C45.7267 36.3658 45.6894 34.9637 45.6894 33.571L45.6912 33.5704ZM24.1554 4.93389C22.9982 4.94145 21.8442 4.92634 20.6876 4.98298C20.6465 3.13216 21.3674 1.80618 23.2733 1.41097C25.5592 1.28133 26.7113 2.81624 26.6886 4.98298C25.8431 4.9383 25.0015 4.93578 24.1548 4.93389H24.1554ZM5.33736 28.7284C5.56121 28.7032 5.79328 28.7152 6.01903 28.7165C5.96086 29.9241 5.97034 31.1576 6.02915 32.3652C5.27286 32.3923 4.48812 32.3401 3.74068 32.425L2.99199 32.4269C2.84149 30.5409 3.26832 28.9701 5.33799 28.7284H5.33736ZM5.92355 40.1197C4.79481 40.3803 3.6041 39.6559 3.22975 38.5621C2.94456 37.7289 3.03751 36.6849 3.03815 35.8127L3.04194 33.6736C4.02334 33.7088 5.01423 33.6981 5.99564 33.6761C5.97919 35.0927 6.19483 38.9001 5.92355 40.1197ZM43.5836 39.452C42.9374 39.9737 42.36 40.1147 41.5544 40.2324C41.4362 38.1625 41.4944 35.7315 41.5367 33.6491C42.4739 33.7435 43.4622 33.6963 44.4044 33.6837L44.4152 37.4017C44.4101 38.2588 44.1995 38.8447 43.5836 39.4514V39.452ZM44.3899 32.364C43.4439 32.4049 42.4916 32.3816 41.5443 32.3992C41.4887 31.1891 41.5247 29.965 41.5228 28.7536C41.9357 28.8096 42.36 28.7605 42.773 28.8272C44.1723 29.0538 44.5846 31.2388 44.3899 32.364Z" fill="#00A7E1"/>
<path d="M14.3373 41.4456C15.8094 42.7773 17.7779 42.4469 19.6136 42.4462L28.5588 42.4714C29.0223 42.4752 29.4669 42.4488 29.9304 42.4953C33.646 42.4085 34.3998 40.7156 34.3979 37.3299L34.3992 32.4564C34.4125 29.9706 33.9104 27.5037 30.951 26.9656C30.3199 26.8511 29.6338 26.8952 28.9932 26.8945H20.805C19.7173 26.8945 18.6265 26.8788 17.5395 26.9096C16.0978 26.9556 15.1967 27.2828 14.1906 28.3608C12.697 29.9606 13.103 32.6201 13.1017 34.6106C13.1004 36.7729 12.6047 39.878 14.3386 41.4463L14.3373 41.4456ZM33.0289 39.1694C32.4149 41.7836 28.9996 41.2392 26.8515 41.2398H21.7459C20.3554 41.2398 18.9528 41.2776 17.5642 41.2096C14.1375 41.0416 14.4246 39.5004 14.424 36.8006L14.4252 32.8063C15.6406 32.88 16.8794 32.7466 18.089 32.8649C18.0783 33.3545 18.1263 35.7069 19.1836 34.5231C19.4726 34.1997 19.2899 33.2871 19.2772 32.8554C20.8195 32.7698 22.3941 32.8321 23.9401 32.8321L33.1086 32.8284C33.1623 34.306 33.2502 37.8302 33.0289 39.1694ZM19.0856 28.1016C19.3803 28.0877 19.6996 28.1525 20 28.1544L27.4117 28.1507C30.1359 28.15 33.0788 27.6352 33.1421 31.549L28.4482 31.5509L16.094 31.5295C15.5053 31.5244 14.9343 31.5068 14.3462 31.4835C14.4081 28.3986 16.6138 28.2004 19.0856 28.1016Z" fill="#00A7E1"/>
</g>
<defs>
<clipPath id="clip0_896_22860">
<rect width="44" height="48" fill="white" transform="translate(1.70703)"/>
</clipPath>
</defs>
</svg>
