<svg width="48" height="49" viewBox="0 0 48 49" fill="none" xmlns="http://www.w3.org/2000/svg">
<path d="M36.4253 18.992C35.6744 18.992 34.9902 19.2581 34.435 19.7084C33.8736 18.5031 32.7579 17.6977 31.4438 17.6977C30.7133 17.6977 30.0451 17.9485 29.4979 18.3763C28.9534 17.1135 27.8128 16.2596 26.4613 16.2596C25.8777 16.2596 25.3038 16.4196 24.8589 16.7009V9.85988C24.8589 7.72246 23.374 6.04883 21.478 6.04883C19.582 6.04883 18.0971 7.72246 18.0971 9.85988V29.7547L15.9172 26.0578C15.4172 25.2003 14.6449 24.5657 13.7419 24.2718C12.8014 23.9653 11.8379 24.0615 11.0282 24.5432C9.38848 25.5194 8.91248 27.7862 9.96769 29.5965C9.96769 29.5965 17.5481 42.4076 17.88 42.981C18.3604 43.8133 18.8088 44.7742 18.8088 45.4969V47.1426C18.8088 47.6388 19.2074 48.0415 19.6986 48.0415C20.1897 48.0415 20.5883 47.6388 20.5883 47.1426V46.064C20.5883 46.064 20.5821 45.2542 20.5758 45.2092C20.5011 44.2637 20.074 43.257 19.5873 42.3698C19.1959 41.6561 11.5025 28.6842 11.5025 28.6842C10.9544 27.744 11.151 26.5566 11.9322 26.0919C12.2979 25.8744 12.7472 25.8358 13.1965 25.9823C13.684 26.1414 14.1058 26.4919 14.3869 26.9737L18.1585 33.3671C18.4102 33.794 18.9405 33.9073 19.3774 33.679C19.7991 33.4579 19.8765 32.924 19.8765 32.7613V9.85988C19.8765 8.73095 20.5803 7.8465 21.478 7.8465C22.3757 7.8465 23.0795 8.73095 23.0795 9.85988V21.9762C23.0795 22.4723 23.4781 22.875 23.9692 22.875C24.4603 22.875 24.8589 22.4723 24.8589 21.9762V20.0706C24.8589 18.9417 25.5627 18.0573 26.4604 18.0573C27.3582 18.0573 28.0619 18.9417 28.0619 20.0706V23.4143C28.0619 23.9105 28.4605 24.3131 28.9517 24.3131C29.4428 24.3131 29.8414 23.9105 29.8414 23.4143V21.5088C29.8414 20.3798 30.5451 19.4954 31.4429 19.4954C32.3406 19.4954 33.0444 20.3798 33.0444 21.5088V24.4929C33.0444 24.9891 33.443 25.3917 33.9341 25.3917C34.4252 25.3917 34.8238 24.9891 34.8238 24.4929V22.8031C34.8238 21.6742 35.5276 20.7897 36.4253 20.7897C37.323 20.7897 38.0268 21.6742 38.0268 22.8031V36.0205C38.0268 38.1929 37.5526 39.3623 37.0944 40.493C36.678 41.5195 36.2474 42.581 36.2474 44.1908V47.148C36.2474 47.6433 36.6469 48.0442 37.1371 48.0442C37.6273 48.0442 38.0268 47.6415 38.0268 47.1453V44.1908C38.0268 42.9343 38.3418 42.1577 38.7404 41.1744C39.2395 39.943 39.8062 38.5471 39.8062 36.0205V22.8031C39.8062 20.6657 38.3222 18.992 36.4262 18.992H36.4253Z" fill="#00A7E1"/>
<path d="M12.9327 4.17858C13.4238 4.17858 13.8224 3.77591 13.8224 3.27975V1.84161H15.2469C15.738 1.84161 16.1366 1.43894 16.1366 0.94278C16.1366 0.446623 15.738 0.0439453 15.2469 0.0439453H12.9336C12.4425 0.0439453 12.043 0.446623 12.043 0.94278V3.27975C12.043 3.77591 12.4416 4.17858 12.9327 4.17858Z" fill="#00A7E1"/>
<path d="M12.9336 15.1444H15.2469C15.738 15.1444 16.1366 14.7417 16.1366 14.2456C16.1366 13.7494 15.738 13.3467 15.2469 13.3467H13.8224V11.9086C13.8224 11.4124 13.4238 11.0098 12.9327 11.0098C12.4416 11.0098 12.043 11.4124 12.043 11.9086V14.2456C12.043 14.7417 12.4425 15.1444 12.9336 15.1444Z" fill="#00A7E1"/>
<path d="M27.71 15.1444H30.0233C30.5144 15.1444 30.9121 14.7417 30.9121 14.2456V11.9086C30.9121 11.4124 30.5135 11.0098 30.0224 11.0098C29.5313 11.0098 29.1327 11.4124 29.1327 11.9086V13.3467H27.71C27.2189 13.3467 26.8203 13.7494 26.8203 14.2456C26.8203 14.7417 27.2189 15.1444 27.71 15.1444Z" fill="#00A7E1"/>
<path d="M27.71 1.84161H29.1327V3.27975C29.1327 3.77591 29.5313 4.17858 30.0224 4.17858C30.5135 4.17858 30.9121 3.77591 30.9121 3.27975V0.94278C30.9121 0.446623 30.5153 0.0439453 30.0233 0.0439453H27.71C27.2189 0.0439453 26.8203 0.446623 26.8203 0.94278C26.8203 1.43894 27.2189 1.84161 27.71 1.84161Z" fill="#00A7E1"/>
</svg>
