<svg width="62" height="60" viewBox="0 0 62 60" fill="none" xmlns="http://www.w3.org/2000/svg">
<path d="M36.2172 27.4198V20.8273C39.6356 20.7114 46.5074 22.0428 49.2802 24.6331C50.3406 25.6231 49.6166 27.4053 48.1685 27.386C44.1479 27.3296 36.2172 27.4198 36.2172 27.4198Z" stroke="#003459" stroke-width="1.5" stroke-linecap="round"/>
<path d="M54.8905 23.0361C45.1449 17.0779 40.2417 16.9893 36.7144 17.0006C33.2961 17.0119 26.2208 18.1822 16.3551 24.1147C2.09393 26.2719 0.750001 29.482 0.750001 32.9111V36.0584C0.750001 37.7536 2.12115 39.1269 3.81109 39.1269H58.5234C59.8081 38.916 60.75 37.8035 60.75 36.4979V33.3506C60.75 28.0621 57.5463 24.4028 54.8905 23.0344V23.0361Z" stroke="#003459" stroke-width="1.5" stroke-linecap="round"/>
<path d="M36.2227 27.3978V20.8359C31.0391 20.8359 25.5704 23.1284 22.2114 25.7976C21.5802 26.2999 21.9198 27.3978 22.6999 27.3978H36.2227Z" stroke="#003459" stroke-width="1.5" stroke-linecap="round"/>
<path d="M9.08594 29.5078H2.01062" stroke="#003459" stroke-width="1.5" stroke-linecap="round"/>
<path d="M50.3464 43.1955C47.5951 43.1955 45.3647 40.9603 45.3647 38.2032C45.3647 35.446 47.5951 33.2109 50.3464 33.2109C53.0977 33.2109 55.3281 35.446 55.3281 38.2032C55.3281 40.9603 53.0977 43.1955 50.3464 43.1955Z" fill="#F2F4F5" stroke="#003459" stroke-width="1.5" stroke-linecap="round"/>
<path d="M14.3308 43.1955C11.5795 43.1955 9.34908 40.9603 9.34908 38.2032C9.34908 35.446 11.5795 33.2109 14.3308 33.2109C17.0821 33.2109 19.3125 35.446 19.3125 38.2032C19.3125 40.9603 17.0821 43.1955 14.3308 43.1955Z" fill="#F2F4F5" stroke="#003459" stroke-width="1.5" stroke-linecap="round"/>
</svg>
