<svg width="50" height="48" viewBox="0 0 50 48" fill="none" xmlns="http://www.w3.org/2000/svg">
<path d="M29.1222 21.9339V16.6599C31.8569 16.5671 37.3544 17.6322 39.5726 19.7045C40.4209 20.4966 39.8417 21.9223 38.6833 21.9068C35.4668 21.8617 29.1222 21.9339 29.1222 21.9339Z" stroke="#00A7E1" stroke-width="1.5" stroke-linecap="round"/>
<path d="M44.0624 18.4285C36.2659 13.6619 32.3433 13.5911 29.5215 13.6001C26.7869 13.6091 21.1266 14.5454 13.2341 19.2913C1.82514 21.0171 0.75 23.5852 0.75 26.3285V28.8464C0.75 30.2025 1.84692 31.3011 3.19887 31.3011H46.9688C47.9965 31.1324 48.75 30.2424 48.75 29.1979V26.6801C48.75 22.4493 46.1871 19.5219 44.0624 18.4272V18.4285Z" stroke="#00A7E1" stroke-width="1.5" stroke-linecap="round"/>
<path d="M29.1289 21.9194V16.6699C24.9821 16.6699 20.6071 18.5039 17.9199 20.6393C17.415 21.0411 17.6867 21.9194 18.3107 21.9194H29.1289Z" stroke="#00A7E1" stroke-width="1.5" stroke-linecap="round"/>
<path d="M7.41797 23.6074H1.75771" stroke="#00A7E1" stroke-width="1.5" stroke-linecap="round"/>
<path d="M40.4287 34.556C38.2276 34.556 36.4433 32.7679 36.4433 30.5622C36.4433 28.3564 38.2276 26.5684 40.4287 26.5684C42.6298 26.5684 44.4141 28.3564 44.4141 30.5622C44.4141 32.7679 42.6298 34.556 40.4287 34.556Z" fill="white" stroke="#00A7E1" stroke-width="1.5" stroke-linecap="round"/>
<path d="M11.6162 34.556C9.41513 34.556 7.63083 32.7679 7.63083 30.5622C7.63083 28.3564 9.41513 26.5684 11.6162 26.5684C13.8173 26.5684 15.6016 28.3564 15.6016 30.5622C15.6016 32.7679 13.8173 34.556 11.6162 34.556Z" fill="white" stroke="#00A7E1" stroke-width="1.5" stroke-linecap="round"/>
</svg>
