<svg width="49" height="48" viewBox="0 0 49 48" fill="none" xmlns="http://www.w3.org/2000/svg">
<g clip-path="url(#clip0_3593_15238)">
<path d="M24.3551 14.4473C30.7942 14.4473 36.0227 19.6456 36.0227 26.0492V38.9053H12.6875V26.0492C12.6875 19.6464 17.9153 14.4473 24.3551 14.4473Z" stroke="#5CD6FF" stroke-width="1.6" stroke-linecap="round" stroke-linejoin="round"/>
<path d="M16.4258 26.2508C16.4258 21.8974 19.9749 18.3682 24.353 18.3682" stroke="#5CD6FF" stroke-width="1.6" stroke-linecap="round" stroke-linejoin="round"/>
<path d="M11.3097 38.9062H37.3972C38.2045 38.9062 38.8593 39.5581 38.8593 40.3601V44.2267H9.84766V40.3601C9.84766 39.5573 10.5032 38.9062 11.3097 38.9062Z" stroke="#5CD6FF" stroke-width="1.6" stroke-linecap="round" stroke-linejoin="round"/>
<path d="M24.3555 9.86147V3.1582" stroke="#5CD6FF" stroke-width="1.6" stroke-linecap="round" stroke-linejoin="round"/>
<path d="M36.0859 14.6928L40.8531 9.95312" stroke="#5CD6FF" stroke-width="1.6" stroke-linecap="round" stroke-linejoin="round"/>
<path d="M40.9414 26.3574H47.6826" stroke="#5CD6FF" stroke-width="1.6" stroke-linecap="round" stroke-linejoin="round"/>
<path d="M12.6219 14.6928L7.85547 9.95312" stroke="#5CD6FF" stroke-width="1.6" stroke-linecap="round" stroke-linejoin="round"/>
<path d="M7.76461 26.3574H1.02344" stroke="#5CD6FF" stroke-width="1.6" stroke-linecap="round" stroke-linejoin="round"/>
</g>
<defs>
<clipPath id="clip0_3593_15238">
<rect width="48" height="42.4" fill="white" transform="translate(0.355469 2.49219)"/>
</clipPath>
</defs>
</svg>
