<svg width="48" height="48" viewBox="0 0 48 48" fill="none" xmlns="http://www.w3.org/2000/svg">
<g clip-path="url(#clip0_3593_13752)">
<path d="M39.9723 39.8258C39.7833 39.8258 39.5994 39.8465 39.4207 39.8815C38.2923 38.1079 36.5564 36.8438 34.5603 36.3215C36.3115 35.0956 37.4615 33.0669 37.4615 30.7719C37.4615 27.0365 34.4224 23.9977 30.6871 23.9977C30.4133 23.9977 30.1449 24.0188 29.8796 24.0506C28.9189 19.9379 25.7823 16.792 21.808 15.7551C24.2696 14.3245 25.9326 11.6651 25.9326 8.61882C25.9326 4.06685 22.229 0.363281 17.6771 0.363281C13.1251 0.363281 9.42154 4.06685 9.42154 8.61882C9.42154 11.6719 11.0917 14.3367 13.5623 15.7649C8.73993 17.0336 5.16797 21.4185 5.16797 26.6335V46.8863C5.16797 47.3004 5.50386 47.6363 5.91797 47.6363C6.33208 47.6363 6.66797 47.3004 6.66797 46.8863V33.4572L8.90118 37.5588C9.51011 38.8717 10.4806 39.9711 11.7081 40.7376L20.3496 46.1351C20.4458 46.1954 20.5514 46.2319 20.6521 46.2813V46.8861C20.6521 47.3002 20.988 47.6361 21.4021 47.6361C21.8162 47.6361 22.1521 47.3002 22.1521 46.8861V46.6256C23.3883 46.5972 24.5142 45.8731 25.043 44.7172C25.7183 43.2399 25.144 41.4495 23.7078 40.5527L23.4212 40.3738C24.6814 38.6186 26.7187 37.5461 28.9021 37.5461H32.4723C34.7428 37.5461 36.8323 38.6922 38.0781 40.5597C37.4912 41.0835 37.1139 41.8372 37.1139 42.684V43.772C37.1139 45.087 38.011 46.1861 39.2221 46.5181V46.8863C39.2221 47.3004 39.558 47.6363 39.9721 47.6363C40.3862 47.6363 40.7221 47.3004 40.7221 46.8863V46.5181C41.9332 46.1861 42.8303 45.087 42.8303 43.772V42.684C42.8303 41.1077 41.5481 39.8258 39.9721 39.8258H39.9723ZM35.9615 30.7719C35.9615 33.6799 33.5955 36.046 30.6871 36.046C27.7787 36.046 25.413 33.6799 25.413 30.7719C25.413 27.8638 27.779 25.4977 30.6871 25.4977C33.5951 25.4977 35.9615 27.8638 35.9615 30.7719ZM10.9215 8.61864C10.9215 4.89346 13.9519 1.8631 17.6771 1.8631C21.4023 1.8631 24.4326 4.89346 24.4326 8.61864C24.4326 12.3438 21.4023 15.3738 17.6771 15.3738C13.9519 15.3738 10.9215 12.3435 10.9215 8.61864ZM22.1514 39.5804L14.973 35.0965L12.7119 27.8795C12.5885 27.484 12.1673 27.264 11.7723 27.3881C11.3767 27.5119 11.1571 27.9327 11.2808 28.3277L13.6246 35.8094C13.678 35.9804 13.7908 36.1265 13.9428 36.2213L22.9131 41.8247C23.6994 42.3158 24.0357 43.3122 23.6789 44.0935C23.3565 44.7977 22.6274 45.2083 21.8646 45.1181C21.6078 45.0874 21.3658 45.0017 21.1446 44.8633L12.5028 39.4652C11.5228 38.8533 10.748 37.9758 10.2403 36.8845L6.66797 30.3201V26.6333C6.66797 21.2569 11.0415 16.8833 16.418 16.8833H18.936C23.5108 16.8833 27.3967 20.007 28.4206 24.396C25.7981 25.3311 23.9128 27.8322 23.9128 30.7719C23.9128 33.0665 25.0623 35.0949 26.813 36.321C24.9356 36.8151 23.2803 37.969 22.1514 39.5804ZM41.3305 43.772C41.3305 44.5213 40.7212 45.1306 39.9723 45.1306C39.2233 45.1306 38.614 44.5213 38.614 43.772V42.684C38.614 41.9351 39.2233 41.3258 39.9723 41.3258C40.7212 41.3258 41.3305 41.9351 41.3305 42.684V43.772Z" fill="#5CD6FF" stroke="#5CD6FF" stroke-width="0.3"/>
</g>
<defs>
<clipPath id="clip0_3593_13752">
<rect width="48" height="48" fill="white"/>
</clipPath>
</defs>
</svg>
