<svg width="48" height="48" viewBox="0 0 48 48" fill="none" xmlns="http://www.w3.org/2000/svg">
<path d="M7.39383 10.3057H6.97756C4.00844 10.3057 1.60156 12.6863 1.60156 15.6231V31.5755C1.60156 34.5123 4.00844 36.893 6.97756 36.893H34.2738" stroke="#5CD6FF" stroke-width="1.86667" stroke-linecap="round" stroke-linejoin="round"/>
<path d="M13.7305 10.3058H16.0022C16.0832 10.3058 16.1545 10.2519 16.1754 10.1744L16.5786 8.6866C16.8933 7.52415 17.9585 6.71582 19.1752 6.71582H28.8303C30.047 6.71582 31.1117 7.52415 31.4268 8.6866L31.83 10.1744C31.8509 10.2519 31.9219 10.3058 32.0029 10.3058H41.0267C43.9959 10.3058 46.4027 12.6865 46.4027 15.6233V31.5757C46.4027 34.5125 43.9959 36.8932 41.0267 36.8932H40.6105" stroke="#5CD6FF" stroke-width="1.86667" stroke-linecap="round" stroke-linejoin="round"/>
<path d="M15.5053 18.3311C14.6407 19.7808 14.1445 21.4717 14.1445 23.2767C14.1445 28.6606 18.5573 33.0253 24.0005 33.0253C25.8254 33.0253 27.5349 32.5346 29.0006 31.6794" stroke="#5CD6FF" stroke-width="1.86667" stroke-linecap="round" stroke-linejoin="round"/>
<path d="M18.5977 15.1218C20.1492 14.1137 22.0062 13.5273 24.0013 13.5273C29.4445 13.5273 33.8573 17.8921 33.8573 23.276C33.8573 25.2494 33.2644 27.0861 32.2452 28.6208" stroke="#5CD6FF" stroke-width="1.86667" stroke-linecap="round" stroke-linejoin="round"/>
<path d="M24 16.5723C27.7434 16.5723 30.7782 19.574 30.7782 23.2767" stroke="#5CD6FF" stroke-width="1.86667" stroke-linecap="round" stroke-linejoin="round"/>
<ellipse cx="42.0814" cy="14.5731" rx="1.02667" ry="1.01549" fill="#5CD6FF"/>
<path d="M4.99609 4.7998L43.0104 42.3998" stroke="#5CD6FF" stroke-width="1.86667" stroke-linecap="round" stroke-linejoin="round"/>
</svg>
