<svg width="48" height="49" viewBox="0 0 48 49" fill="none" xmlns="http://www.w3.org/2000/svg">
<path d="M23.8587 6.24805C17.3538 6.24805 12.0625 11.5002 12.0625 17.955C12.0625 24.4098 17.3547 29.662 23.8587 29.662C30.3626 29.662 35.6557 24.4098 35.6557 17.955C35.6557 11.5002 30.3635 6.24805 23.8587 6.24805ZM33.8656 17.1246H30.4826C30.4301 15.7602 30.2452 14.4698 29.9543 13.2837C30.77 13.0654 31.5367 12.7985 32.2543 12.4933C33.1506 13.8454 33.7228 15.4246 33.8647 17.1246H33.8656ZM32.334 23.295C31.6042 22.9793 30.8226 22.7037 29.9902 22.4793C30.2548 21.3559 30.4257 20.1428 30.48 18.8637H33.8595C33.7114 20.4837 33.1708 21.9915 32.334 23.295ZM13.8587 18.8637H17.0016C17.0568 20.168 17.2329 21.4037 17.5071 22.5454C16.758 22.7576 16.0483 23.008 15.385 23.295C14.5483 21.9915 14.0076 20.4828 13.8596 18.8637H13.8587ZM15.463 12.4933C16.114 12.7707 16.8097 13.0124 17.5422 13.2185C17.2417 14.4228 17.0515 15.7359 16.9981 17.1246H13.8517C13.9936 15.4246 14.5667 13.8454 15.4621 12.4933H15.463ZM24.7235 14.0263C25.9501 13.9863 27.1146 13.8611 28.2396 13.6585C28.5042 14.7281 28.6742 15.8994 28.7285 17.1246H24.7235V14.0263ZM24.7235 12.2872V8.18979C25.9501 8.68979 26.9875 10.0811 27.7174 11.9863C26.7588 12.1489 25.7749 12.2515 24.7235 12.2872ZM22.9711 8.11065V12.2872C21.832 12.2472 20.7955 12.1315 19.7765 11.948C20.5493 9.94978 21.6568 8.52457 22.9711 8.11152V8.11065ZM22.9711 14.0254V17.1246H18.7531C18.8074 15.8837 18.98 14.6994 19.2508 13.6185C20.4363 13.8446 21.6568 13.982 22.9711 14.0254ZM18.7557 18.8637H22.9711V21.7289C21.6568 21.7733 20.41 21.9124 19.2148 22.1428C18.9704 21.1254 18.8118 20.0202 18.7566 18.8637H18.7557ZM22.9711 23.4672V27.7994C21.6568 27.3759 20.4941 25.8907 19.7204 23.8159C20.7552 23.6263 21.832 23.5072 22.9711 23.4672ZM24.7235 27.7202V23.4663C25.7749 23.5037 26.7974 23.6089 27.7726 23.7767C27.041 25.7567 25.9501 27.208 24.7235 27.7202ZM24.7235 21.728V18.8637H28.725C28.6707 20.0046 28.5139 21.0959 28.2747 22.102C27.14 21.8959 25.9501 21.7689 24.7235 21.728ZM31.1196 11.0776C30.5922 11.2811 30.0375 11.4628 29.454 11.6176C29.0781 10.5907 28.612 9.67936 28.074 8.90979C29.2236 9.43936 30.2548 10.1785 31.1205 11.0776H31.1196ZM19.2884 9.08283C18.8109 9.79848 18.3947 10.6298 18.0513 11.555C17.5457 11.4141 17.0603 11.255 16.5985 11.0776C17.3731 10.2724 18.2817 9.59588 19.2884 9.08283ZM16.489 24.7185C16.9665 24.5298 17.4721 24.362 17.9978 24.2133C18.3509 25.1967 18.7881 26.075 19.2902 26.828C18.2353 26.2907 17.2872 25.575 16.489 24.7185ZM28.0722 27.0011C28.6356 26.1959 29.1202 25.235 29.504 24.1498C30.1094 24.3124 30.6842 24.5037 31.2283 24.7194C30.3416 25.6707 29.27 26.4498 28.0714 27.002L28.0722 27.0011Z" fill="#5CD6FF" stroke="white" stroke-width="0.4"/>
<path d="M16.8369 32.8955H30.8564C31.2744 32.8957 31.6121 33.2319 31.6123 33.6445V42.6885C31.6123 43.1012 31.2745 43.4383 30.8564 43.4385H16.8369C16.4188 43.4384 16.0811 43.1013 16.0811 42.6885V33.6445C16.0813 33.2319 16.4189 32.8956 16.8369 32.8955ZM17.5938 41.9385H30.0996V38.916H26.5498L26.5225 38.999C26.143 40.1535 25.0491 40.9902 23.7617 40.9902C22.4744 40.9902 21.3804 40.1526 21.001 38.999L20.9736 38.916H17.5938V41.9385ZM23.7617 36.7246C22.9946 36.7246 22.3682 37.3437 22.3682 38.1074C22.3682 38.8711 22.9954 39.4912 23.7617 39.4912C24.5281 39.4912 25.1543 38.871 25.1543 38.1074C25.1542 37.3448 24.5289 36.7246 23.7617 36.7246ZM17.5938 37.417H20.9424L20.9668 37.3301C21.31 36.1188 22.4322 35.2256 23.7617 35.2256C25.0913 35.2256 26.2125 36.118 26.5557 37.3301L26.5811 37.417H30.0996V34.3945H17.5938V37.417Z" fill="#5CD6FF" stroke="white" stroke-width="0.24"/>
<path d="M37.7833 0.0800781H6.32629C5.84263 0.0800781 5.44922 0.469643 5.44922 0.949643V47.2105C5.44922 47.6905 5.84263 48.0801 6.32629 48.0801H37.7833C40.2051 48.0801 42.2492 46.0618 42.2492 43.6731V4.36877C42.2492 2.00356 40.2463 0.0800781 37.7833 0.0800781ZM40.4968 43.6731C40.4968 45.094 39.2299 46.341 37.7833 46.341H7.2016V1.81921H37.7833C39.2544 1.81921 40.4968 2.98704 40.4968 4.36877V43.6731Z" fill="#5CD6FF" stroke="white" stroke-width="0.16"/>
</svg>
