<svg width="48" height="49" viewBox="0 0 48 49" fill="none" xmlns="http://www.w3.org/2000/svg">
<path d="M37.8834 16.913C37.4684 16.5222 36.8913 16.324 36.2647 16.3598C35.0638 16.4259 33.8601 16.9763 32.9835 18.0523V6.32885C32.9835 4.4465 31.4556 2.9164 29.5759 2.9164C28.7899 2.9164 28.0644 3.18334 27.4873 3.63466V3.61265C27.4873 1.73029 25.9594 0.200195 24.0797 0.200195C22.2 0.200195 20.6721 1.73029 20.6721 3.61265V3.63466C20.095 3.18609 19.3695 2.9164 18.5835 2.9164C16.7038 2.9164 15.1759 4.4465 15.1759 6.32885V10.2394C14.5988 9.79084 13.8733 9.52114 13.0873 9.52114C11.2076 9.52114 9.67969 11.0512 9.67969 12.9336V33.7798C9.67969 41.7303 16.1405 48.2002 24.0797 48.2002C32.0189 48.2002 38.4797 41.7303 38.4797 33.7798V18.3467C38.4797 17.7853 38.2681 17.2762 37.8834 16.913ZM21.9911 3.61265C21.9911 2.45957 22.9282 1.52114 24.0797 1.52114C25.2311 1.52114 26.1682 2.45957 26.1682 3.61265V21.1978C25.473 21.1455 24.7777 21.1207 24.0797 21.1207C23.3817 21.1207 22.6837 21.1483 21.9911 21.1978V3.61265ZM16.495 6.32885C16.495 5.17577 17.4321 4.23735 18.5835 4.23735C19.735 4.23735 20.6721 5.17577 20.6721 6.32885V21.3271C19.2568 21.4978 17.8635 21.7757 16.495 22.1582V6.32885ZM37.1606 33.7798C37.1606 41.0038 31.2934 46.8792 24.0797 46.8792C16.8659 46.8792 10.9988 41.0038 10.9988 33.7798V12.9336C10.9988 11.7805 11.9359 10.8421 13.0873 10.8421C14.2388 10.8421 15.1759 11.7805 15.1759 12.9336V22.5628C14.3817 22.8297 13.5957 23.1269 12.8235 23.4654C12.491 23.6113 12.3371 24.0021 12.4827 24.335C12.5899 24.5827 12.8345 24.7313 13.0873 24.7313C13.1753 24.7313 13.2659 24.7148 13.3511 24.6763C16.7395 23.193 20.3505 22.4417 24.0797 22.4417C25.8852 22.4417 27.6907 22.6233 29.444 22.9783C29.8012 23.0499 30.1502 22.8187 30.2217 22.4637C30.2931 22.1059 30.0623 21.7564 29.7078 21.6849C28.974 21.5363 28.2321 21.4179 27.4873 21.3271V6.32885C27.4873 5.17577 28.4244 4.23735 29.5759 4.23735C30.7273 4.23735 31.6644 5.17577 31.6644 6.32885V21.7812C31.6644 21.817 31.6699 21.85 31.6754 21.883C31.6699 22.0234 31.6644 22.1637 31.6644 22.3096V28.84C27.7676 29.0409 24.1182 31.0031 21.807 34.1789C21.5927 34.4733 21.6559 34.8861 21.9527 35.1008C22.0708 35.1861 22.2055 35.2274 22.3401 35.2274C22.5435 35.2274 22.7441 35.1338 22.8733 34.9549C25.069 31.9388 28.603 30.139 32.3267 30.139C32.6922 30.139 32.9863 29.8445 32.9863 29.4785V22.3068C32.9863 20.0942 34.0223 17.8018 36.3389 17.6753C36.6055 17.6615 36.8308 17.7303 36.9792 17.8706C37.1001 17.9862 37.1634 18.1458 37.1634 18.344V27.8108C37.1634 27.8768 37.1771 27.9401 37.1936 28.0007L37.1634 28.0089V33.7743L37.1606 33.7798Z" fill="#5CD6FF" stroke="#5CD6FF" stroke-width="0.4"/>
</svg>
