<svg width="48" height="48" viewBox="0 0 48 48" fill="none" xmlns="http://www.w3.org/2000/svg">
<g clip-path="url(#clip0_1197_22485)">
<path d="M23.9996 6.49201C26.3645 6.49201 28.657 6.9546 30.8136 7.86663C32.8978 8.74797 34.7708 10.0108 36.3793 11.62C37.9878 13.2285 39.2506 15.1015 40.1326 17.1857C41.0447 19.3423 41.5073 21.6355 41.5073 23.9996C41.5073 26.3638 41.0447 28.657 40.1326 30.8136C39.2513 32.8978 37.9885 34.7708 36.3793 36.3793C34.7708 37.9878 32.8978 39.2506 30.8136 40.1326C28.657 41.0447 26.3638 41.5073 23.9996 41.5073C21.6355 41.5073 19.3423 41.0447 17.1857 40.1326C15.1015 39.2513 13.2285 37.9885 11.62 36.3793C10.0115 34.7708 8.7487 32.8978 7.86663 30.8136C6.9546 28.657 6.49201 26.3638 6.49201 23.9996C6.49201 21.6355 6.9546 19.3423 7.86663 17.1857C8.74797 15.1015 10.0108 13.2285 11.62 11.62C13.2285 10.0115 15.1015 8.7487 17.1857 7.86663C19.3423 6.9546 21.6355 6.49201 23.9996 6.49201ZM23.9996 4C12.9544 4 4 12.9544 4 23.9996C4 35.0449 12.9544 43.9993 23.9996 43.9993C35.0449 43.9993 43.9993 35.0449 43.9993 23.9996C43.9993 12.9544 35.0456 4 23.9996 4Z" fill="#00A7E1"/>
<path d="M28.9384 30.1875C28.6197 30.1875 28.3004 30.0662 28.057 29.8229L22.75 24.5158V12.5995C22.75 11.9111 23.3076 11.3535 23.996 11.3535C24.6844 11.3535 25.242 11.9111 25.242 12.5995V23.4832L29.8197 28.0609C30.3064 28.5476 30.3064 29.3362 29.8197 29.8229C29.5763 30.0662 29.2577 30.1875 28.9384 30.1875Z" fill="#00A7E1"/>
</g>
<defs>
<clipPath id="clip0_1197_22485">
<rect width="40" height="40" fill="white" transform="translate(4 4)"/>
</clipPath>
</defs>
</svg>
