<svg width="62" height="60" viewBox="0 0 62 60" fill="none" xmlns="http://www.w3.org/2000/svg">
<path d="M40.8986 42.6333H17.1505V38.7344H42.4414" stroke="#003459" stroke-width="1.5" stroke-linecap="round"/>
<path d="M13.0933 42.6363H17.1484V21.9219H6.25035L0.748973 29.0616V42.6363H5.60938" stroke="#003459" stroke-width="1.5" stroke-linecap="round"/>
<path d="M6.36118 31.1263H12.4617C12.7371 31.1263 12.9609 30.9032 12.9609 30.6287V25.5757C12.9609 25.3012 12.7371 25.0781 12.4617 25.0781H8.57237C8.41776 25.0781 8.27121 25.1504 8.1762 25.2723L5.96501 28.1423C5.89737 28.229 5.86196 28.3366 5.86196 28.4457V30.6287C5.86196 30.9032 6.08579 31.1263 6.36118 31.1263Z" stroke="#003459" stroke-width="1.5" stroke-linecap="round"/>
<path d="M60.75 38.7386V16.0353C60.75 14.9117 59.8352 14 58.7079 14H19.1916C18.0643 14 17.1495 14.9117 17.1495 16.0353V38.7386" stroke="#003459" stroke-width="1.5" stroke-linecap="round"/>
<path d="M55.0086 46.7001C52.938 46.7001 51.2594 45.0271 51.2594 42.9634C51.2594 40.8996 52.938 39.2266 55.0086 39.2266C57.0792 39.2266 58.7578 40.8996 58.7578 42.9634C58.7578 45.0271 57.0792 46.7001 55.0086 46.7001Z" stroke="#003459" stroke-width="1.5" stroke-linecap="round"/>
<path d="M47.5086 46.7001C45.438 46.7001 43.7594 45.0271 43.7594 42.9634C43.7594 40.8996 45.438 39.2266 47.5086 39.2266C49.5792 39.2266 51.2578 40.8996 51.2578 42.9634C51.2578 45.0271 49.5792 46.7001 47.5086 46.7001Z" stroke="#003459" stroke-width="1.5" stroke-linecap="round"/>
<path d="M9.34065 46.7001C7.27003 46.7001 5.59145 45.0271 5.59145 42.9634C5.59145 40.8996 7.27003 39.2266 9.34065 39.2266C11.4113 39.2266 13.0898 40.8996 13.0898 42.9634C13.0898 45.0271 11.4113 46.7001 9.34065 46.7001Z" stroke="#003459" stroke-width="1.5" stroke-linecap="round"/>
</svg>
