<svg width="50" height="48" viewBox="0 0 50 48" fill="none" xmlns="http://www.w3.org/2000/svg">
<path d="M32.7189 34.1074H13.7204V30.9883H33.9531" stroke="#00A7E1" stroke-width="1.2" stroke-linecap="round"/>
<path d="M10.4746 34.1067H13.7188V17.5352H5.00028L0.599178 23.2469V34.1067H4.48751" stroke="#00A7E1" stroke-width="1.2" stroke-linecap="round"/>
<path d="M5.09129 24.8971H9.97168C10.192 24.8971 10.3711 24.7187 10.3711 24.4991V20.4567C10.3711 20.2371 10.192 20.0586 9.97168 20.0586H6.86024C6.73655 20.0586 6.61931 20.1164 6.5433 20.214L4.77435 22.51C4.72024 22.5793 4.69191 22.6654 4.69191 22.7527V24.4991C4.69191 24.7187 4.87098 24.8971 5.09129 24.8971Z" stroke="#00A7E1" stroke-width="1.2" stroke-linecap="round"/>
<path d="M48.6016 30.9901V12.8275C48.6016 11.9286 47.8698 11.1992 46.9679 11.1992H15.3549C14.453 11.1992 13.7212 11.9286 13.7212 12.8275V30.9901" stroke="#00A7E1" stroke-width="1.2" stroke-linecap="round"/>
<path d="M44.0085 37.3578C42.352 37.3578 41.0091 36.0194 41.0091 34.3683C41.0091 32.7173 42.352 31.3789 44.0085 31.3789C45.665 31.3789 47.0078 32.7173 47.0078 34.3683C47.0078 36.0194 45.665 37.3578 44.0085 37.3578Z" stroke="#00A7E1" stroke-width="1.2" stroke-linecap="round"/>
<path d="M38.0085 37.3578C36.352 37.3578 35.0091 36.0194 35.0091 34.3683C35.0091 32.7173 36.352 31.3789 38.0085 31.3789C39.665 31.3789 41.0078 32.7173 41.0078 34.3683C41.0078 36.0194 39.665 37.3578 38.0085 37.3578Z" stroke="#00A7E1" stroke-width="1.2" stroke-linecap="round"/>
<path d="M7.4733 37.3578C5.8168 37.3578 4.47394 36.0194 4.47394 34.3683C4.47394 32.7173 5.8168 31.3789 7.4733 31.3789C9.1298 31.3789 10.4727 32.7173 10.4727 34.3683C10.4727 36.0194 9.1298 37.3578 7.4733 37.3578Z" stroke="#00A7E1" stroke-width="1.2" stroke-linecap="round"/>
</svg>
