<svg width="66" height="38" viewBox="0 0 66 38" fill="none" xmlns="http://www.w3.org/2000/svg">
<path d="M44.0926 32.1198H18.7613V27.9609H45.7383" stroke="#003459" stroke-width="1.4" stroke-linecap="round"/>
<path d="M14.4362 32.1189H18.7617V10.0234H7.13709L1.26896 17.6391V32.1189H6.45339" stroke="#003459" stroke-width="1.4" stroke-linecap="round"/>
<path d="M7.25323 19.8342H13.7604C14.0542 19.8342 14.293 19.5962 14.293 19.3035V13.9136C14.293 13.6208 14.0542 13.3828 13.7604 13.3828H9.61183C9.44691 13.3828 9.2906 13.4599 9.18924 13.59L6.83065 16.6513C6.7585 16.7438 6.72073 16.8585 6.72073 16.9749V19.3035C6.72073 19.5962 6.95948 19.8342 7.25323 19.8342Z" stroke="#003459" stroke-width="1.4" stroke-linecap="round"/>
<path d="M65.2656 27.962V3.74525C65.2656 2.54673 64.2899 1.57422 63.0874 1.57422H20.9367C19.7342 1.57422 18.7585 2.54673 18.7585 3.74525V27.962" stroke="#003459" stroke-width="1.4" stroke-linecap="round"/>
<path d="M59.1415 36.4523C56.9328 36.4523 55.1423 34.6677 55.1423 32.4664C55.1423 30.265 56.9328 28.4805 59.1415 28.4805C61.3501 28.4805 63.1406 30.265 63.1406 32.4664C63.1406 34.6677 61.3501 36.4523 59.1415 36.4523Z" stroke="#003459" stroke-width="1.4" stroke-linecap="round"/>
<path d="M51.1415 36.4523C48.9328 36.4523 47.1424 34.6677 47.1424 32.4664C47.1424 30.265 48.9328 28.4805 51.1415 28.4805C53.3501 28.4805 55.1406 30.265 55.1406 32.4664C55.1406 34.6677 53.3501 36.4523 51.1415 36.4523Z" stroke="#003459" stroke-width="1.4" stroke-linecap="round"/>
<path d="M10.4345 36.4523C8.22579 36.4523 6.43531 34.6677 6.43531 32.4664C6.43531 30.265 8.22579 28.4805 10.4345 28.4805C12.6431 28.4805 14.4336 30.265 14.4336 32.4664C14.4336 34.6677 12.6431 36.4523 10.4345 36.4523Z" stroke="#003459" stroke-width="1.4" stroke-linecap="round"/>
</svg>
