<svg width="74" height="34" viewBox="0 0 74 34" fill="none" xmlns="http://www.w3.org/2000/svg">
    <path
        d="M43.5623 13.4975V5.58649C47.6642 5.4474 55.9105 7.04505 59.2378 10.1534C60.5103 11.3415 59.6415 13.4801 57.9038 13.4569C53.0791 13.3893 43.5623 13.4975 43.5623 13.4975Z"
        stroke="#003459" stroke-width="1.4" stroke-linecap="round" />
    <path
        d="M65.9686 8.24326C54.2739 1.09343 48.39 0.987184 44.1573 1.00071C40.0553 1.01423 31.565 2.41868 19.7261 9.5376C2.61272 12.1263 1 15.9784 1 20.0933V23.8701C1 25.9044 2.64538 27.5522 4.67331 27.5522H70.3281C71.8697 27.2992 73 25.9642 73 24.3975V20.6207C73 14.2745 69.1556 9.88337 65.9686 8.24133V8.24326Z"
        stroke="#003459" stroke-width="1.4" stroke-linecap="round" />
    <path
        d="M43.5664 13.4797V5.60547C37.3462 5.60547 30.7837 8.35646 26.7529 11.5595C25.9955 12.1622 26.403 13.4797 27.3391 13.4797H43.5664Z"
        stroke="#003459" stroke-width="1.4" stroke-linecap="round" />
    <path d="M11.0039 16.0117H2.51352" stroke="#003459" stroke-width="1.4" stroke-linecap="round" />
    <path
        d="M60.5141 32.4345C57.2125 32.4345 54.5361 29.7524 54.5361 26.4438C54.5361 23.1353 57.2125 20.4531 60.5141 20.4531C63.8157 20.4531 66.4922 23.1353 66.4922 26.4438C66.4922 29.7524 63.8157 32.4345 60.5141 32.4345Z"
        fill="white" stroke="#003459" stroke-width="1.4" stroke-linecap="round" />
    <path
        d="M17.2954 32.4345C13.9938 32.4345 11.3173 29.7524 11.3173 26.4438C11.3173 23.1353 13.9938 20.4531 17.2954 20.4531C20.597 20.4531 23.2734 23.1353 23.2734 26.4438C23.2734 29.7524 20.597 32.4345 17.2954 32.4345Z"
        fill="white" stroke="#003459" stroke-width="1.4" stroke-linecap="round" />
</svg>