<svg width="36" height="50" viewBox="0 0 36 50" fill="none" xmlns="http://www.w3.org/2000/svg">
<path d="M12.8158 9.35726C10.5028 9.35726 8.62773 7.48643 8.62773 5.17863C8.62773 2.87084 10.5028 1 12.8158 1C15.1288 1 17.0039 2.87084 17.0039 5.17863C17.0039 7.48643 15.1288 9.35726 12.8158 9.35726Z" stroke="#003459" stroke-width="1.3" stroke-linecap="round" stroke-linejoin="round"/>
<path d="M20.7768 34.4602L30.0466 44.7471C31.526 46.4379 33.4217 45.9605 34.3515 45.0368C35.3224 44.0704 35.1776 42.5277 34.0882 41.2188L23.8788 29.2015C24.9731 27.4267 25.1607 25.2385 24.3823 23.304L22.4422 18.4783L25.6281 19.1962C26.5332 19.4975 27.175 20.2993 27.2704 21.246L27.7591 26.121C27.8859 27.3838 28.9802 28.3273 30.2506 28.2696C31.6247 28.2071 32.6631 27.0052 32.5232 25.6403L31.8518 19.0661C31.6 16.6508 30.0433 15.4654 28.5277 14.9649L20.1103 12.2993C19.2316 12.021 18.3166 11.8366 17.3934 11.8482C14.823 11.8778 12.5093 13.0534 11.1878 15.1707L9.83184 17.8C9.18347 19.0579 8.08748 20.0293 6.75783 20.5216L2.96798 21.9292C1.64326 22.4215 0.901088 23.8259 1.24173 25.1941C1.64161 26.7977 3.34976 27.6967 4.90322 27.1221L10.0918 25.2007C11.5087 24.6755 13.0556 23.6926 13.7566 21.5259" stroke="#003459" stroke-width="1.3" stroke-linecap="round" stroke-linejoin="round"/>
<path d="M12.9998 19.5664L16.7205 29.0614C16.9048 29.4647 16.8883 29.9307 16.6744 30.3209L8.40685 44.4489C7.61037 45.8961 7.56923 47.7006 8.97623 48.5715C10.4787 49.5017 12.3316 48.8465 13.2022 47.3103L23.8789 29.2013" stroke="#003459" stroke-width="1.3" stroke-linecap="round" stroke-linejoin="round"/>
<path d="M22.4453 18.4758L18.5929 17.5703" stroke="#003459" stroke-width="1.3" stroke-linecap="round" stroke-linejoin="round"/>
</svg>
